M48
; DRILL file {KiCad 7.0.9} date Tue Mar 19 08:46:47 2024
; FORMAT={-:-/ absolute / inch / decimal}
; #@! TF.CreationDate,2024-03-19T08:46:47+01:00
; #@! TF.GenerationSoftware,Kicad,Pcbnew,7.0.9
; #@! TF.FileFunction,MixedPlating,1,2
FMAT,2
INCH
; #@! TA.AperFunction,Plated,PTH,ComponentDrill
T1C0.0118
; #@! TA.AperFunction,Plated,PTH,ViaDrill
T2C0.0157
; #@! TA.AperFunction,Plated,PTH,ComponentDrill
T3C0.0394
; #@! TA.AperFunction,Plated,PTH,ComponentDrill
T4C0.0598
; #@! TA.AperFunction,NonPlated,NPTH,ComponentDrill
T5C0.0866
%
G90
G05
T1
X5.5077Y-3.609
X5.5077Y-3.669
X5.5377Y-3.5789
X5.5377Y-3.639
X5.5377Y-3.699
X5.5677Y-3.609
X5.5677Y-3.669
X5.5977Y-3.5789
X5.5977Y-3.639
X5.5977Y-3.699
X5.6278Y-3.609
X5.6278Y-3.669
T2
X4.55Y-3.75
X4.6Y-4.4
X4.75Y-3.65
X4.85Y-4.55
X4.95Y-3.35
X5.0Y-3.4
X5.1Y-4.05
X5.15Y-4.65
X5.4Y-3.55
X5.4Y-3.75
X5.45Y-3.95
X5.45Y-4.6
X5.55Y-4.45
X5.6Y-3.95
X5.7Y-3.55
X5.7Y-3.9
X5.8Y-3.45
X5.8Y-3.6
X5.8Y-3.9
X5.85Y-3.75
X5.9Y-4.45
X6.0Y-3.9
X6.0Y-4.1
X6.05Y-3.7
X6.05Y-4.3
X6.1Y-3.4
X6.15Y-3.8
X6.2Y-3.35
X6.2Y-4.65
X6.25Y-3.55
X6.25Y-3.7
X6.3Y-3.9
X6.35Y-4.4
T3
X4.6669Y-3.4506
X4.6669Y-3.5506
X4.6669Y-3.6506
X4.6669Y-3.8504
X4.6669Y-3.9504
X4.6669Y-4.0504
X4.6669Y-4.1504
X4.85Y-3.4506
X4.85Y-3.5506
X4.85Y-3.6506
X4.85Y-3.8504
X4.85Y-3.9504
X4.85Y-4.0504
X4.85Y-4.1504
X6.45Y-3.4
X6.45Y-3.5
X6.45Y-3.6
X6.45Y-3.7
T4
X6.35Y-4.05
X6.35Y-4.25
T5
X4.6Y-3.2
X4.6Y-4.6
X6.4Y-3.2
X6.4Y-4.6
T0
M30
