%TF.GenerationSoftware,KiCad,Pcbnew,7.0.9*%
%TF.CreationDate,2024-03-19T08:45:44+01:00*%
%TF.ProjectId,soil_moister_air,736f696c-5f6d-46f6-9973-7465725f6169,rev?*%
%TF.SameCoordinates,Original*%
%TF.FileFunction,Copper,L1,Top*%
%TF.FilePolarity,Positive*%
%FSLAX46Y46*%
G04 Gerber Fmt 4.6, Leading zero omitted, Abs format (unit mm)*
G04 Created by KiCad (PCBNEW 7.0.9) date 2024-03-19 08:45:44*
%MOMM*%
%LPD*%
G01*
G04 APERTURE LIST*
G04 Aperture macros list*
%AMRoundRect*
0 Rectangle with rounded corners*
0 $1 Rounding radius*
0 $2 $3 $4 $5 $6 $7 $8 $9 X,Y pos of 4 corners*
0 Add a 4 corners polygon primitive as box body*
4,1,4,$2,$3,$4,$5,$6,$7,$8,$9,$2,$3,0*
0 Add four circle primitives for the rounded corners*
1,1,$1+$1,$2,$3*
1,1,$1+$1,$4,$5*
1,1,$1+$1,$6,$7*
1,1,$1+$1,$8,$9*
0 Add four rect primitives between the rounded corners*
20,1,$1+$1,$2,$3,$4,$5,0*
20,1,$1+$1,$4,$5,$6,$7,0*
20,1,$1+$1,$6,$7,$8,$9,0*
20,1,$1+$1,$8,$9,$2,$3,0*%
G04 Aperture macros list end*
%TA.AperFunction,SMDPad,CuDef*%
%ADD10RoundRect,0.250000X0.262500X0.450000X-0.262500X0.450000X-0.262500X-0.450000X0.262500X-0.450000X0*%
%TD*%
%TA.AperFunction,SMDPad,CuDef*%
%ADD11R,1.500000X2.000000*%
%TD*%
%TA.AperFunction,SMDPad,CuDef*%
%ADD12R,3.800000X2.000000*%
%TD*%
%TA.AperFunction,SMDPad,CuDef*%
%ADD13R,0.760000X1.600000*%
%TD*%
%TA.AperFunction,SMDPad,CuDef*%
%ADD14RoundRect,0.243750X-0.243750X-0.456250X0.243750X-0.456250X0.243750X0.456250X-0.243750X0.456250X0*%
%TD*%
%TA.AperFunction,SMDPad,CuDef*%
%ADD15RoundRect,0.250000X0.250000X0.475000X-0.250000X0.475000X-0.250000X-0.475000X0.250000X-0.475000X0*%
%TD*%
%TA.AperFunction,SMDPad,CuDef*%
%ADD16RoundRect,0.250000X0.450000X-0.262500X0.450000X0.262500X-0.450000X0.262500X-0.450000X-0.262500X0*%
%TD*%
%TA.AperFunction,ComponentPad*%
%ADD17R,1.700000X1.700000*%
%TD*%
%TA.AperFunction,ComponentPad*%
%ADD18O,1.700000X1.700000*%
%TD*%
%TA.AperFunction,ComponentPad*%
%ADD19R,3.000000X3.000000*%
%TD*%
%TA.AperFunction,ComponentPad*%
%ADD20C,3.000000*%
%TD*%
%TA.AperFunction,SMDPad,CuDef*%
%ADD21RoundRect,0.250000X-0.450000X0.262500X-0.450000X-0.262500X0.450000X-0.262500X0.450000X0.262500X0*%
%TD*%
%TA.AperFunction,SMDPad,CuDef*%
%ADD22RoundRect,0.250000X-0.262500X-0.450000X0.262500X-0.450000X0.262500X0.450000X-0.262500X0.450000X0*%
%TD*%
%TA.AperFunction,SMDPad,CuDef*%
%ADD23R,1.500000X0.900000*%
%TD*%
%TA.AperFunction,SMDPad,CuDef*%
%ADD24R,0.900000X1.500000*%
%TD*%
%TA.AperFunction,SMDPad,CuDef*%
%ADD25R,1.050000X1.050000*%
%TD*%
%TA.AperFunction,HeatsinkPad*%
%ADD26C,0.600000*%
%TD*%
%TA.AperFunction,SMDPad,CuDef*%
%ADD27R,4.200000X4.200000*%
%TD*%
%TA.AperFunction,SMDPad,CuDef*%
%ADD28RoundRect,0.250000X0.475000X-0.250000X0.475000X0.250000X-0.475000X0.250000X-0.475000X-0.250000X0*%
%TD*%
%TA.AperFunction,ViaPad*%
%ADD29C,0.800000*%
%TD*%
%TA.AperFunction,Conductor*%
%ADD30C,0.533400*%
%TD*%
G04 APERTURE END LIST*
D10*
%TO.P,R1,1*%
%TO.N,GPIO0*%
X152042500Y-106680000D03*
%TO.P,R1,2*%
%TO.N,+3V3*%
X150217500Y-106680000D03*
%TD*%
D11*
%TO.P,U2,1,GND*%
%TO.N,GND*%
X150100000Y-116180000D03*
%TO.P,U2,2,VO*%
%TO.N,+3V3*%
X152400000Y-116180000D03*
D12*
X152400000Y-109880000D03*
D11*
%TO.P,U2,3,VI*%
%TO.N,+5V*%
X154700000Y-116180000D03*
%TD*%
D13*
%TO.P,SW1,1,1*%
%TO.N,EN*%
X128270000Y-91440000D03*
%TO.P,SW1,2,2*%
%TO.N,GND*%
X128270000Y-99060000D03*
%TD*%
D14*
%TO.P,D1,1,K*%
%TO.N,GND*%
X132055000Y-106680000D03*
%TO.P,D1,2,A*%
%TO.N,Net-(D1-A)*%
X133930000Y-106680000D03*
%TD*%
D15*
%TO.P,C2,1*%
%TO.N,+5V*%
X147000000Y-115570000D03*
%TO.P,C2,2*%
%TO.N,GND*%
X145100000Y-115570000D03*
%TD*%
D16*
%TO.P,R3,1*%
%TO.N,TX0*%
X154940000Y-88542500D03*
%TO.P,R3,2*%
%TO.N,+3V3*%
X154940000Y-86717500D03*
%TD*%
D17*
%TO.P,J4,1,Pin_1*%
%TO.N,GND*%
X123190000Y-87645000D03*
D18*
%TO.P,J4,2,Pin_2*%
%TO.N,+3V3*%
X123190000Y-90185000D03*
%TO.P,J4,3,Pin_3*%
%TO.N,GPIO34*%
X123190000Y-92725000D03*
%TD*%
D19*
%TO.P,J5,1,Pin_1*%
%TO.N,+5V*%
X161290000Y-107950000D03*
D20*
%TO.P,J5,2,Pin_2*%
%TO.N,GND*%
X161290000Y-102870000D03*
%TD*%
D13*
%TO.P,SW2,1,1*%
%TO.N,GPIO0*%
X154940000Y-99060000D03*
%TO.P,SW2,2,2*%
%TO.N,GND*%
X154940000Y-106680000D03*
%TD*%
D15*
%TO.P,C3,1*%
%TO.N,+3V3*%
X147000000Y-113030000D03*
%TO.P,C3,2*%
%TO.N,GND*%
X145100000Y-113030000D03*
%TD*%
D21*
%TO.P,R2,1*%
%TO.N,+3V3*%
X129540000Y-86717500D03*
%TO.P,R2,2*%
%TO.N,EN*%
X129540000Y-88542500D03*
%TD*%
D22*
%TO.P,R4,1*%
%TO.N,GPIO5*%
X154027500Y-96520000D03*
%TO.P,R4,2*%
%TO.N,+3V3*%
X155852500Y-96520000D03*
%TD*%
D23*
%TO.P,U1,1,GND*%
%TO.N,GND*%
X133350000Y-85090000D03*
%TO.P,U1,2,VDD*%
%TO.N,+3V3*%
X133350000Y-86360000D03*
%TO.P,U1,3,EN*%
%TO.N,EN*%
X133350000Y-87630000D03*
%TO.P,U1,4,SENSOR_VP*%
%TO.N,unconnected-(U1-SENSOR_VP-Pad4)*%
X133350000Y-88900000D03*
%TO.P,U1,5,SENSOR_VN*%
%TO.N,unconnected-(U1-SENSOR_VN-Pad5)*%
X133350000Y-90170000D03*
%TO.P,U1,6,IO34*%
%TO.N,GPIO34*%
X133350000Y-91440000D03*
%TO.P,U1,7,IO35*%
%TO.N,unconnected-(U1-IO35-Pad7)*%
X133350000Y-92710000D03*
%TO.P,U1,8,IO32*%
%TO.N,GPIO32*%
X133350000Y-93980000D03*
%TO.P,U1,9,IO33*%
%TO.N,unconnected-(U1-IO33-Pad9)*%
X133350000Y-95250000D03*
%TO.P,U1,10,IO25*%
%TO.N,unconnected-(U1-IO25-Pad10)*%
X133350000Y-96520000D03*
%TO.P,U1,11,IO26*%
%TO.N,unconnected-(U1-IO26-Pad11)*%
X133350000Y-97790000D03*
%TO.P,U1,12,IO27*%
%TO.N,unconnected-(U1-IO27-Pad12)*%
X133350000Y-99060000D03*
%TO.P,U1,13,IO14*%
%TO.N,unconnected-(U1-IO14-Pad13)*%
X133350000Y-100330000D03*
%TO.P,U1,14,IO12*%
%TO.N,unconnected-(U1-IO12-Pad14)*%
X133350000Y-101600000D03*
D24*
%TO.P,U1,15,GND*%
%TO.N,GND*%
X136390000Y-102850000D03*
%TO.P,U1,16,IO13*%
%TO.N,SDA2*%
X137660000Y-102850000D03*
%TO.P,U1,17,SHD/SD2*%
%TO.N,unconnected-(U1-SHD{slash}SD2-Pad17)*%
X138930000Y-102850000D03*
%TO.P,U1,18,SWP/SD3*%
%TO.N,unconnected-(U1-SWP{slash}SD3-Pad18)*%
X140200000Y-102850000D03*
%TO.P,U1,19,SCS/CMD*%
%TO.N,unconnected-(U1-SCS{slash}CMD-Pad19)*%
X141470000Y-102850000D03*
%TO.P,U1,20,SCK/CLK*%
%TO.N,unconnected-(U1-SCK{slash}CLK-Pad20)*%
X142740000Y-102850000D03*
%TO.P,U1,21,SDO/SD0*%
%TO.N,unconnected-(U1-SDO{slash}SD0-Pad21)*%
X144010000Y-102850000D03*
%TO.P,U1,22,SDI/SD1*%
%TO.N,unconnected-(U1-SDI{slash}SD1-Pad22)*%
X145280000Y-102850000D03*
%TO.P,U1,23,IO15*%
%TO.N,unconnected-(U1-IO15-Pad23)*%
X146550000Y-102850000D03*
%TO.P,U1,24,IO2*%
%TO.N,GPIO2*%
X147820000Y-102850000D03*
D23*
%TO.P,U1,25,IO0*%
%TO.N,GPIO0*%
X150850000Y-101600000D03*
%TO.P,U1,26,IO4*%
%TO.N,unconnected-(U1-IO4-Pad26)*%
X150850000Y-100330000D03*
%TO.P,U1,27,IO16*%
%TO.N,SCL2*%
X150850000Y-99060000D03*
%TO.P,U1,28,IO17*%
%TO.N,unconnected-(U1-IO17-Pad28)*%
X150850000Y-97790000D03*
%TO.P,U1,29,IO5*%
%TO.N,GPIO5*%
X150850000Y-96520000D03*
%TO.P,U1,30,IO18*%
%TO.N,unconnected-(U1-IO18-Pad30)*%
X150850000Y-95250000D03*
%TO.P,U1,31,IO19*%
%TO.N,unconnected-(U1-IO19-Pad31)*%
X150850000Y-93980000D03*
%TO.P,U1,32,NC*%
%TO.N,unconnected-(U1-NC-Pad32)*%
X150850000Y-92710000D03*
%TO.P,U1,33,IO21*%
%TO.N,SDA1*%
X150850000Y-91440000D03*
%TO.P,U1,34,RXD0/IO3*%
%TO.N,RX0*%
X150850000Y-90170000D03*
%TO.P,U1,35,TXD0/IO1*%
%TO.N,TX0*%
X150850000Y-88900000D03*
%TO.P,U1,36,IO22*%
%TO.N,SCL1*%
X150850000Y-87630000D03*
%TO.P,U1,37,IO23*%
%TO.N,unconnected-(U1-IO23-Pad37)*%
X150850000Y-86360000D03*
%TO.P,U1,38,GND*%
%TO.N,GND*%
X150850000Y-85090000D03*
D25*
%TO.P,U1,39,GND*%
X139895000Y-90905000D03*
D26*
X139895000Y-91667500D03*
D25*
X139895000Y-92430000D03*
D26*
X139895000Y-93192500D03*
D25*
X139895000Y-93955000D03*
D26*
X140657500Y-90905000D03*
X140657500Y-92430000D03*
X140657500Y-93955000D03*
D25*
X141420000Y-90905000D03*
D26*
X141420000Y-91667500D03*
D25*
X141420000Y-92430000D03*
D27*
X141420000Y-92430000D03*
D26*
X141420000Y-93192500D03*
D25*
X141420000Y-93955000D03*
D26*
X142182500Y-90905000D03*
X142182500Y-92430000D03*
X142182500Y-93955000D03*
D25*
X142945000Y-90905000D03*
D26*
X142945000Y-91667500D03*
D25*
X142945000Y-92430000D03*
D26*
X142945000Y-93192500D03*
D25*
X142945000Y-93955000D03*
%TD*%
D14*
%TO.P,D2,1,K*%
%TO.N,Net-(D2-K)*%
X146050000Y-106680000D03*
%TO.P,D2,2,A*%
%TO.N,GPIO2*%
X147925000Y-106680000D03*
%TD*%
D17*
%TO.P,J1,1,Pin_1*%
%TO.N,+3V3*%
X118540000Y-97800000D03*
D18*
%TO.P,J1,2,Pin_2*%
%TO.N,GND*%
X118540000Y-100340000D03*
%TO.P,J1,3,Pin_3*%
%TO.N,SCL2*%
X118540000Y-102880000D03*
%TO.P,J1,4,Pin_4*%
%TO.N,SDA2*%
X118540000Y-105420000D03*
%TD*%
D22*
%TO.P,R5,1*%
%TO.N,GND*%
X140995000Y-106680000D03*
%TO.P,R5,2*%
%TO.N,Net-(D2-K)*%
X142820000Y-106680000D03*
%TD*%
D17*
%TO.P,J2,1,Pin_1*%
%TO.N,+3V3*%
X123190000Y-97800000D03*
D18*
%TO.P,J2,2,Pin_2*%
%TO.N,GND*%
X123190000Y-100340000D03*
%TO.P,J2,3,Pin_3*%
%TO.N,SCL1*%
X123190000Y-102880000D03*
%TO.P,J2,4,Pin_4*%
%TO.N,SDA1*%
X123190000Y-105420000D03*
%TD*%
D22*
%TO.P,R6,1*%
%TO.N,Net-(D1-A)*%
X135890000Y-106680000D03*
%TO.P,R6,2*%
%TO.N,+3V3*%
X137715000Y-106680000D03*
%TD*%
D17*
%TO.P,J6,1,Pin_1*%
%TO.N,+3V3*%
X163830000Y-93980000D03*
D18*
%TO.P,J6,2,Pin_2*%
%TO.N,RX0*%
X163830000Y-91440000D03*
%TO.P,J6,3,Pin_3*%
%TO.N,TX0*%
X163830000Y-88900000D03*
%TO.P,J6,4,Pin_4*%
%TO.N,GND*%
X163830000Y-86360000D03*
%TD*%
D28*
%TO.P,C1,1*%
%TO.N,GND*%
X127000000Y-88580000D03*
%TO.P,C1,2*%
%TO.N,+3V3*%
X127000000Y-86680000D03*
%TD*%
D17*
%TO.P,J3,1,Pin_1*%
%TO.N,GND*%
X118540000Y-87645000D03*
D18*
%TO.P,J3,2,Pin_2*%
%TO.N,+3V3*%
X118540000Y-90185000D03*
%TO.P,J3,3,Pin_3*%
%TO.N,GPIO32*%
X118540000Y-92725000D03*
%TD*%
D29*
%TO.N,GND*%
X149860000Y-113030000D03*
X125730000Y-85090000D03*
X130810000Y-118110000D03*
X161290000Y-111760000D03*
X157480000Y-118110000D03*
%TO.N,+3V3*%
X153670000Y-109220000D03*
X127000000Y-86360000D03*
X154940000Y-86360000D03*
X156210000Y-96520000D03*
%TO.N,SCL2*%
X147320000Y-99060000D03*
%TO.N,SDA2*%
X138430000Y-100330000D03*
%TO.N,GND*%
X142240000Y-100330000D03*
X123190000Y-115570000D03*
X137160000Y-95250000D03*
X120650000Y-92710000D03*
X137160000Y-90170000D03*
X160020000Y-99060000D03*
X140970000Y-113030000D03*
X115570000Y-95250000D03*
X144780000Y-90170000D03*
X138430000Y-116840000D03*
X152400000Y-99060000D03*
X157480000Y-85090000D03*
X116840000Y-111760000D03*
X158750000Y-93980000D03*
X129540000Y-102870000D03*
X153670000Y-93980000D03*
X152400000Y-104140000D03*
X148590000Y-95250000D03*
X144780000Y-99060000D03*
X158750000Y-90170000D03*
%TO.N,SCL1*%
X147320000Y-87630000D03*
%TO.N,SDA1*%
X147320000Y-91440000D03*
%TD*%
D30*
%TO.N,+5V*%
X157480000Y-113030000D02*
X160020000Y-110490000D01*
X155600000Y-116180000D02*
X157480000Y-114300000D01*
X157480000Y-114300000D02*
X157480000Y-113030000D01*
X160020000Y-110490000D02*
X161290000Y-110490000D01*
%TO.N,+3V3*%
X133350000Y-86360000D02*
X129897500Y-86360000D01*
X149200000Y-109880000D02*
X152400000Y-109880000D01*
X147000000Y-112080000D02*
X149200000Y-109880000D01*
X147000000Y-113030000D02*
X147000000Y-112080000D01*
X150217500Y-106680000D02*
X150217500Y-107697500D01*
X118540000Y-90185000D02*
X123190000Y-90185000D01*
X153670000Y-109220000D02*
X153060000Y-109220000D01*
X163830000Y-95250000D02*
X162560000Y-96520000D01*
X137715000Y-106680000D02*
X137715000Y-108505000D01*
X127000000Y-86360000D02*
X129502500Y-86680000D01*
X138430000Y-109220000D02*
X144140000Y-109220000D01*
X129502500Y-86680000D02*
X129540000Y-86717500D01*
X156210000Y-96520000D02*
X155852500Y-96520000D01*
X129897500Y-86360000D02*
X129540000Y-86717500D01*
X152400000Y-109880000D02*
X152400000Y-116180000D01*
X137715000Y-108505000D02*
X138430000Y-109220000D01*
X118540000Y-97800000D02*
X123190000Y-97800000D01*
X144140000Y-109220000D02*
X147000000Y-112080000D01*
X153060000Y-109220000D02*
X152400000Y-109880000D01*
X162560000Y-96520000D02*
X156210000Y-96520000D01*
X127000000Y-86680000D02*
X127000000Y-86360000D01*
X150217500Y-107697500D02*
X152400000Y-109880000D01*
X163830000Y-93980000D02*
X163830000Y-95250000D01*
%TO.N,Net-(D1-A)*%
X133930000Y-106680000D02*
X135890000Y-106680000D01*
%TO.N,Net-(D2-K)*%
X142820000Y-106680000D02*
X146050000Y-106680000D01*
%TO.N,GPIO2*%
X147925000Y-106680000D02*
X147925000Y-102955000D01*
X147925000Y-102955000D02*
X147820000Y-102850000D01*
%TO.N,RX0*%
X157480000Y-91440000D02*
X163830000Y-91440000D01*
X156210000Y-90170000D02*
X157480000Y-91440000D01*
X150850000Y-90170000D02*
X156210000Y-90170000D01*
%TO.N,TX0*%
X155297500Y-88900000D02*
X154940000Y-88542500D01*
X163830000Y-88900000D02*
X155297500Y-88900000D01*
X154582500Y-88900000D02*
X154940000Y-88542500D01*
X150850000Y-88900000D02*
X154582500Y-88900000D01*
%TO.N,EN*%
X129540000Y-90170000D02*
X129540000Y-88542500D01*
X130452500Y-87630000D02*
X129540000Y-88542500D01*
X128270000Y-91440000D02*
X129540000Y-90170000D01*
X133350000Y-87630000D02*
X130452500Y-87630000D01*
%TO.N,GPIO0*%
X152042500Y-105052500D02*
X150850000Y-103860000D01*
X152042500Y-106680000D02*
X152042500Y-105052500D01*
X153670000Y-101600000D02*
X154940000Y-100330000D01*
X154940000Y-100330000D02*
X154940000Y-99060000D01*
X150850000Y-101600000D02*
X153670000Y-101600000D01*
X150850000Y-103860000D02*
X150850000Y-101600000D01*
%TO.N,GPIO5*%
X150850000Y-96520000D02*
X154027500Y-96520000D01*
%TO.N,SCL2*%
X150850000Y-99060000D02*
X147320000Y-99060000D01*
%TO.N,SDA2*%
X137660000Y-102850000D02*
X137660000Y-101825000D01*
X137660000Y-101825000D02*
X138430000Y-101055000D01*
X138430000Y-101055000D02*
X138430000Y-100330000D01*
%TO.N,GPIO32*%
X129540000Y-95250000D02*
X130810000Y-93980000D01*
X121065000Y-95250000D02*
X129540000Y-95250000D01*
X118540000Y-92725000D02*
X121065000Y-95250000D01*
X130810000Y-93980000D02*
X133350000Y-93980000D01*
%TO.N,GPIO34*%
X124445000Y-93980000D02*
X129540000Y-93980000D01*
X132080000Y-91440000D02*
X133350000Y-91440000D01*
X123190000Y-92725000D02*
X124445000Y-93980000D01*
X129540000Y-93980000D02*
X132080000Y-91440000D01*
%TO.N,GND*%
X141420000Y-93192500D02*
X142182500Y-93955000D01*
X142182500Y-93955000D02*
X142945000Y-93192500D01*
X140657500Y-93955000D02*
X139895000Y-93192500D01*
X139895000Y-93192500D02*
X140657500Y-92430000D01*
X139895000Y-91667500D02*
X140657500Y-92430000D01*
X141420000Y-91667500D02*
X142182500Y-92430000D01*
X140657500Y-92430000D02*
X141420000Y-91667500D01*
X140657500Y-90905000D02*
X141420000Y-91667500D01*
X142182500Y-90905000D02*
X142945000Y-91667500D01*
X140657500Y-92430000D02*
X141420000Y-93192500D01*
X139895000Y-91667500D02*
X140657500Y-90905000D01*
%TO.N,+5V*%
X147000000Y-117790000D02*
X148590000Y-119380000D01*
X147000000Y-115570000D02*
X147000000Y-117790000D01*
X148590000Y-119380000D02*
X152400000Y-119380000D01*
X154700000Y-117870000D02*
X153190000Y-119380000D01*
X155600000Y-116180000D02*
X154700000Y-116180000D01*
X153190000Y-119380000D02*
X152400000Y-119380000D01*
X154700000Y-117870000D02*
X154700000Y-116180000D01*
X161290000Y-107950000D02*
X161290000Y-110490000D01*
%TO.N,SCL1*%
X150850000Y-87630000D02*
X147320000Y-87630000D01*
%TO.N,SDA1*%
X150850000Y-91440000D02*
X147320000Y-91440000D01*
%TD*%
%TA.AperFunction,Conductor*%
%TO.N,GND*%
G36*
X122081032Y-90971885D02*
G01*
X122115567Y-91005076D01*
X122139661Y-91039486D01*
X122151507Y-91056404D01*
X122318597Y-91223493D01*
X122318603Y-91223498D01*
X122504158Y-91353425D01*
X122547783Y-91408002D01*
X122554977Y-91477500D01*
X122523454Y-91539855D01*
X122504158Y-91556575D01*
X122318597Y-91686505D01*
X122151505Y-91853597D01*
X122015965Y-92047169D01*
X122015964Y-92047171D01*
X121916098Y-92261335D01*
X121916094Y-92261344D01*
X121854938Y-92489586D01*
X121854936Y-92489596D01*
X121834341Y-92724999D01*
X121834341Y-92725000D01*
X121854936Y-92960403D01*
X121854938Y-92960413D01*
X121916094Y-93188655D01*
X121916096Y-93188659D01*
X121916097Y-93188663D01*
X121980598Y-93326986D01*
X122015965Y-93402830D01*
X122015967Y-93402834D01*
X122071495Y-93482135D01*
X122151505Y-93596401D01*
X122318599Y-93763495D01*
X122415384Y-93831265D01*
X122512165Y-93899032D01*
X122512167Y-93899033D01*
X122512170Y-93899035D01*
X122726337Y-93998903D01*
X122954592Y-94060063D01*
X123142918Y-94076539D01*
X123189999Y-94080659D01*
X123190000Y-94080659D01*
X123190001Y-94080659D01*
X123223958Y-94077688D01*
X123381296Y-94063922D01*
X123449795Y-94077688D01*
X123479784Y-94099769D01*
X123651134Y-94271119D01*
X123684619Y-94332442D01*
X123679635Y-94402134D01*
X123637763Y-94458067D01*
X123572299Y-94482484D01*
X123563453Y-94482800D01*
X121434147Y-94482800D01*
X121367108Y-94463115D01*
X121346466Y-94446481D01*
X119914769Y-93014784D01*
X119881284Y-92953461D01*
X119878922Y-92916295D01*
X119881427Y-92887671D01*
X119895659Y-92725000D01*
X119875063Y-92489592D01*
X119813903Y-92261337D01*
X119714035Y-92047171D01*
X119711548Y-92043618D01*
X119578494Y-91853597D01*
X119411402Y-91686506D01*
X119411396Y-91686501D01*
X119225842Y-91556575D01*
X119182217Y-91501998D01*
X119175023Y-91432500D01*
X119206546Y-91370145D01*
X119225842Y-91353425D01*
X119371057Y-91251744D01*
X119411401Y-91223495D01*
X119578495Y-91056401D01*
X119614432Y-91005076D01*
X119669008Y-90961452D01*
X119716007Y-90952200D01*
X122013993Y-90952200D01*
X122081032Y-90971885D01*
G37*
%TD.AperFunction*%
%TA.AperFunction,Conductor*%
G36*
X158693039Y-83559685D02*
G01*
X158738794Y-83612489D01*
X158750000Y-83664000D01*
X158750000Y-85090000D01*
X162896817Y-85090000D01*
X162963856Y-85109685D01*
X163009611Y-85162489D01*
X163019555Y-85231647D01*
X162990530Y-85295203D01*
X162967941Y-85315574D01*
X162958929Y-85321884D01*
X162958920Y-85321891D01*
X162791891Y-85488920D01*
X162791886Y-85488926D01*
X162656400Y-85682420D01*
X162656399Y-85682422D01*
X162556570Y-85896507D01*
X162556567Y-85896513D01*
X162499364Y-86109999D01*
X162499364Y-86110000D01*
X163396314Y-86110000D01*
X163370507Y-86150156D01*
X163330000Y-86288111D01*
X163330000Y-86431889D01*
X163370507Y-86569844D01*
X163396314Y-86610000D01*
X162499364Y-86610000D01*
X162556567Y-86823486D01*
X162556570Y-86823492D01*
X162656399Y-87037578D01*
X162791894Y-87231082D01*
X162958917Y-87398105D01*
X163144595Y-87528119D01*
X163188219Y-87582696D01*
X163195412Y-87652195D01*
X163163890Y-87714549D01*
X163144595Y-87731269D01*
X162958594Y-87861508D01*
X162791507Y-88028595D01*
X162770830Y-88058125D01*
X162755567Y-88079923D01*
X162700992Y-88123548D01*
X162653993Y-88132800D01*
X156221394Y-88132800D01*
X156154355Y-88113115D01*
X156108600Y-88060311D01*
X156103692Y-88047815D01*
X156074814Y-87960666D01*
X155982712Y-87811344D01*
X155889049Y-87717681D01*
X155855564Y-87656358D01*
X155860548Y-87586666D01*
X155889049Y-87542319D01*
X155908660Y-87522708D01*
X155982712Y-87448656D01*
X156074814Y-87299334D01*
X156129999Y-87132797D01*
X156140500Y-87030009D01*
X156140499Y-86404992D01*
X156129999Y-86302203D01*
X156074814Y-86135666D01*
X155982712Y-85986344D01*
X155858656Y-85862288D01*
X155709334Y-85770186D01*
X155614139Y-85738641D01*
X155560996Y-85703909D01*
X155545871Y-85687112D01*
X155545864Y-85687106D01*
X155392734Y-85575851D01*
X155392729Y-85575848D01*
X155219807Y-85498857D01*
X155219802Y-85498855D01*
X155066186Y-85466204D01*
X155034646Y-85459500D01*
X154845354Y-85459500D01*
X154813814Y-85466204D01*
X154660197Y-85498855D01*
X154660192Y-85498857D01*
X154487270Y-85575848D01*
X154487265Y-85575851D01*
X154334130Y-85687110D01*
X154334126Y-85687114D01*
X154319002Y-85703910D01*
X154265862Y-85738639D01*
X154170668Y-85770184D01*
X154021342Y-85862289D01*
X153897289Y-85986342D01*
X153805187Y-86135663D01*
X153805186Y-86135666D01*
X153750001Y-86302203D01*
X153750001Y-86302204D01*
X153750000Y-86302204D01*
X153739500Y-86404983D01*
X153739500Y-87030001D01*
X153739501Y-87030019D01*
X153750000Y-87132796D01*
X153750001Y-87132799D01*
X153805185Y-87299331D01*
X153805187Y-87299336D01*
X153814424Y-87314312D01*
X153897287Y-87448655D01*
X153897289Y-87448657D01*
X153990951Y-87542319D01*
X154024436Y-87603642D01*
X154019452Y-87673334D01*
X153990951Y-87717681D01*
X153897289Y-87811342D01*
X153805187Y-87960663D01*
X153805186Y-87960666D01*
X153776310Y-88047806D01*
X153736540Y-88105249D01*
X153672024Y-88132072D01*
X153658606Y-88132800D01*
X152224500Y-88132800D01*
X152157461Y-88113115D01*
X152111706Y-88060311D01*
X152100500Y-88008800D01*
X152100499Y-87132129D01*
X152100498Y-87132123D01*
X152094091Y-87072518D01*
X152094091Y-87072517D01*
X152081340Y-87038332D01*
X152076357Y-86968642D01*
X152081338Y-86951672D01*
X152094091Y-86917483D01*
X152100500Y-86857873D01*
X152100499Y-85862128D01*
X152094091Y-85802517D01*
X152081073Y-85767616D01*
X152076090Y-85697926D01*
X152081075Y-85680949D01*
X152093597Y-85647375D01*
X152093598Y-85647372D01*
X152099999Y-85587844D01*
X152100000Y-85587827D01*
X152100000Y-85340000D01*
X149600000Y-85340000D01*
X149600000Y-85587844D01*
X149606401Y-85647372D01*
X149606403Y-85647379D01*
X149618925Y-85680952D01*
X149623909Y-85750643D01*
X149618925Y-85767617D01*
X149605909Y-85802514D01*
X149605908Y-85802516D01*
X149599501Y-85862116D01*
X149599500Y-85862127D01*
X149599500Y-86351649D01*
X149599501Y-86738800D01*
X149579817Y-86805839D01*
X149527013Y-86851594D01*
X149475501Y-86862800D01*
X147835315Y-86862800D01*
X147779012Y-86847714D01*
X147778666Y-86848492D01*
X147773756Y-86846305D01*
X147773316Y-86846188D01*
X147772725Y-86845846D01*
X147599807Y-86768857D01*
X147599802Y-86768855D01*
X147454001Y-86737865D01*
X147414646Y-86729500D01*
X147225354Y-86729500D01*
X147192897Y-86736398D01*
X147040197Y-86768855D01*
X147040192Y-86768857D01*
X146867270Y-86845848D01*
X146867265Y-86845851D01*
X146714129Y-86957111D01*
X146587466Y-87097785D01*
X146492821Y-87261715D01*
X146492818Y-87261722D01*
X146434327Y-87441740D01*
X146434326Y-87441744D01*
X146414540Y-87630000D01*
X146434326Y-87818256D01*
X146434327Y-87818259D01*
X146492818Y-87998277D01*
X146492821Y-87998284D01*
X146587467Y-88162216D01*
X146693532Y-88280013D01*
X146714129Y-88302888D01*
X146867265Y-88414148D01*
X146867270Y-88414151D01*
X147040192Y-88491142D01*
X147040197Y-88491144D01*
X147225354Y-88530500D01*
X147225355Y-88530500D01*
X147414644Y-88530500D01*
X147414646Y-88530500D01*
X147599803Y-88491144D01*
X147772730Y-88414151D01*
X147772735Y-88414146D01*
X147773316Y-88413812D01*
X147773756Y-88413694D01*
X147778666Y-88411508D01*
X147779012Y-88412285D01*
X147835315Y-88397200D01*
X149475500Y-88397200D01*
X149542539Y-88416885D01*
X149588294Y-88469689D01*
X149599500Y-88521200D01*
X149599500Y-89397870D01*
X149599501Y-89397876D01*
X149605908Y-89457481D01*
X149618659Y-89491669D01*
X149623642Y-89561361D01*
X149618659Y-89578331D01*
X149605908Y-89612518D01*
X149599996Y-89667516D01*
X149599500Y-89672127D01*
X149599500Y-90147500D01*
X149599501Y-90548800D01*
X149579817Y-90615839D01*
X149527013Y-90661594D01*
X149475501Y-90672800D01*
X147835315Y-90672800D01*
X147779012Y-90657714D01*
X147778666Y-90658492D01*
X147773756Y-90656305D01*
X147773316Y-90656188D01*
X147772725Y-90655846D01*
X147599807Y-90578857D01*
X147599802Y-90578855D01*
X147454001Y-90547865D01*
X147414646Y-90539500D01*
X147225354Y-90539500D01*
X147200212Y-90544844D01*
X147040197Y-90578855D01*
X147040192Y-90578857D01*
X146867270Y-90655848D01*
X146867265Y-90655851D01*
X146714129Y-90767111D01*
X146587466Y-90907785D01*
X146492821Y-91071715D01*
X146492818Y-91071722D01*
X146434327Y-91251740D01*
X146434326Y-91251744D01*
X146414540Y-91440000D01*
X146434326Y-91628256D01*
X146434327Y-91628259D01*
X146492818Y-91808277D01*
X146492821Y-91808284D01*
X146587467Y-91972216D01*
X146681317Y-92076447D01*
X146714129Y-92112888D01*
X146867265Y-92224148D01*
X146867270Y-92224151D01*
X147040192Y-92301142D01*
X147040197Y-92301144D01*
X147225354Y-92340500D01*
X147225355Y-92340500D01*
X147414644Y-92340500D01*
X147414646Y-92340500D01*
X147599803Y-92301144D01*
X147772730Y-92224151D01*
X147772735Y-92224146D01*
X147773316Y-92223812D01*
X147773756Y-92223694D01*
X147778666Y-92221508D01*
X147779012Y-92222285D01*
X147835315Y-92207200D01*
X149475500Y-92207200D01*
X149542539Y-92226885D01*
X149588294Y-92279689D01*
X149599500Y-92331200D01*
X149599500Y-93207870D01*
X149599501Y-93207876D01*
X149605908Y-93267481D01*
X149618659Y-93301669D01*
X149623642Y-93371361D01*
X149618659Y-93388331D01*
X149605908Y-93422518D01*
X149599501Y-93482116D01*
X149599501Y-93482123D01*
X149599500Y-93482135D01*
X149599500Y-94477870D01*
X149599501Y-94477876D01*
X149605908Y-94537481D01*
X149618659Y-94571669D01*
X149623642Y-94641361D01*
X149618659Y-94658331D01*
X149605908Y-94692518D01*
X149599725Y-94750034D01*
X149599501Y-94752123D01*
X149599500Y-94752135D01*
X149599500Y-95747870D01*
X149599501Y-95747876D01*
X149605908Y-95807481D01*
X149618659Y-95841669D01*
X149623642Y-95911361D01*
X149618659Y-95928331D01*
X149605908Y-95962518D01*
X149599501Y-96022116D01*
X149599501Y-96022123D01*
X149599500Y-96022135D01*
X149599500Y-97017870D01*
X149599501Y-97017876D01*
X149605908Y-97077481D01*
X149618659Y-97111669D01*
X149623642Y-97181361D01*
X149618659Y-97198331D01*
X149605908Y-97232518D01*
X149599800Y-97289334D01*
X149599500Y-97292127D01*
X149599500Y-97785073D01*
X149599501Y-98168800D01*
X149579817Y-98235839D01*
X149527013Y-98281594D01*
X149475501Y-98292800D01*
X147835315Y-98292800D01*
X147779012Y-98277714D01*
X147778666Y-98278492D01*
X147773756Y-98276305D01*
X147773316Y-98276188D01*
X147772725Y-98275846D01*
X147599807Y-98198857D01*
X147599802Y-98198855D01*
X147454001Y-98167865D01*
X147414646Y-98159500D01*
X147225354Y-98159500D01*
X147192897Y-98166398D01*
X147040197Y-98198855D01*
X147040192Y-98198857D01*
X146867270Y-98275848D01*
X146867265Y-98275851D01*
X146714129Y-98387111D01*
X146587466Y-98527785D01*
X146492821Y-98691715D01*
X146492818Y-98691722D01*
X146434327Y-98871740D01*
X146434326Y-98871744D01*
X146414540Y-99060000D01*
X146434326Y-99248256D01*
X146434327Y-99248259D01*
X146492818Y-99428277D01*
X146492821Y-99428284D01*
X146587467Y-99592216D01*
X146703750Y-99721361D01*
X146714129Y-99732888D01*
X146867265Y-99844148D01*
X146867270Y-99844151D01*
X147040192Y-99921142D01*
X147040197Y-99921144D01*
X147225354Y-99960500D01*
X147225355Y-99960500D01*
X147414644Y-99960500D01*
X147414646Y-99960500D01*
X147599803Y-99921144D01*
X147772730Y-99844151D01*
X147772735Y-99844146D01*
X147773316Y-99843812D01*
X147773756Y-99843694D01*
X147778666Y-99841508D01*
X147779012Y-99842285D01*
X147835315Y-99827200D01*
X149475500Y-99827200D01*
X149542539Y-99846885D01*
X149588294Y-99899689D01*
X149599500Y-99951200D01*
X149599500Y-100827870D01*
X149599501Y-100827876D01*
X149605908Y-100887481D01*
X149618659Y-100921669D01*
X149623642Y-100991361D01*
X149618659Y-101008331D01*
X149605908Y-101042518D01*
X149599501Y-101102116D01*
X149599501Y-101102123D01*
X149599500Y-101102135D01*
X149599500Y-102097870D01*
X149599501Y-102097876D01*
X149605908Y-102157483D01*
X149656202Y-102292328D01*
X149656206Y-102292335D01*
X149742452Y-102407544D01*
X149742455Y-102407547D01*
X149857664Y-102493793D01*
X149857671Y-102493797D01*
X149999785Y-102546802D01*
X149998810Y-102549415D01*
X150048003Y-102577405D01*
X150080409Y-102639305D01*
X150082800Y-102663538D01*
X150082800Y-103946449D01*
X150091671Y-103985314D01*
X150092837Y-103992173D01*
X150097300Y-104031792D01*
X150097302Y-104031798D01*
X150110471Y-104069436D01*
X150112394Y-104076112D01*
X150121267Y-104114984D01*
X150121268Y-104114988D01*
X150121270Y-104114994D01*
X150127293Y-104127500D01*
X150138567Y-104150911D01*
X150141229Y-104157339D01*
X150154400Y-104194979D01*
X150175621Y-104228753D01*
X150178985Y-104234841D01*
X150196283Y-104270758D01*
X150196283Y-104270759D01*
X150221137Y-104301924D01*
X150225163Y-104307598D01*
X150246383Y-104341368D01*
X151238981Y-105333966D01*
X151272466Y-105395289D01*
X151275300Y-105421647D01*
X151275300Y-105621970D01*
X151255615Y-105689009D01*
X151238981Y-105709651D01*
X151217681Y-105730951D01*
X151156358Y-105764436D01*
X151086666Y-105759452D01*
X151042319Y-105730951D01*
X150948657Y-105637289D01*
X150948656Y-105637288D01*
X150799334Y-105545186D01*
X150632797Y-105490001D01*
X150632795Y-105490000D01*
X150530010Y-105479500D01*
X149904998Y-105479500D01*
X149904980Y-105479501D01*
X149802203Y-105490000D01*
X149802200Y-105490001D01*
X149635668Y-105545185D01*
X149635663Y-105545187D01*
X149486342Y-105637289D01*
X149362289Y-105761342D01*
X149270187Y-105910663D01*
X149270185Y-105910668D01*
X149257317Y-105949501D01*
X149215001Y-106077203D01*
X149215001Y-106077204D01*
X149215000Y-106077204D01*
X149204500Y-106179983D01*
X149204500Y-107180001D01*
X149204501Y-107180019D01*
X149215000Y-107282796D01*
X149215001Y-107282799D01*
X149270185Y-107449331D01*
X149270187Y-107449336D01*
X149272271Y-107452714D01*
X149362287Y-107598655D01*
X149362289Y-107598657D01*
X149413981Y-107650349D01*
X149447466Y-107711672D01*
X149450300Y-107738030D01*
X149450300Y-107783949D01*
X149459171Y-107822814D01*
X149460337Y-107829673D01*
X149464800Y-107869292D01*
X149464802Y-107869299D01*
X149468721Y-107880498D01*
X149477971Y-107906936D01*
X149479894Y-107913612D01*
X149488767Y-107952484D01*
X149488768Y-107952488D01*
X149488770Y-107952494D01*
X149506067Y-107988411D01*
X149508729Y-107994839D01*
X149521900Y-108032479D01*
X149543121Y-108066253D01*
X149546485Y-108072341D01*
X149563783Y-108108258D01*
X149563783Y-108108259D01*
X149588637Y-108139424D01*
X149592663Y-108145098D01*
X149613883Y-108178868D01*
X150004331Y-108569316D01*
X150037816Y-108630639D01*
X150032832Y-108700329D01*
X150005909Y-108772514D01*
X150005908Y-108772516D01*
X149999501Y-108832116D01*
X149999501Y-108832123D01*
X149999500Y-108832135D01*
X149999500Y-108988800D01*
X149979815Y-109055839D01*
X149927011Y-109101594D01*
X149875500Y-109112800D01*
X149113551Y-109112800D01*
X149074687Y-109121671D01*
X149067830Y-109122836D01*
X149063051Y-109123375D01*
X149028203Y-109127301D01*
X149028202Y-109127301D01*
X148990557Y-109140473D01*
X148983882Y-109142395D01*
X148966450Y-109146375D01*
X148945008Y-109151269D01*
X148945001Y-109151272D01*
X148909081Y-109168570D01*
X148902653Y-109171233D01*
X148865018Y-109184401D01*
X148831247Y-109205620D01*
X148825160Y-109208984D01*
X148789241Y-109226282D01*
X148758058Y-109251149D01*
X148752391Y-109255169D01*
X148740765Y-109262474D01*
X148718632Y-109276382D01*
X148718629Y-109276384D01*
X148698194Y-109296820D01*
X148687976Y-109307039D01*
X147551587Y-110443428D01*
X147087681Y-110907334D01*
X147026358Y-110940819D01*
X146956666Y-110935835D01*
X146912319Y-110907334D01*
X144621368Y-108616383D01*
X144587598Y-108595163D01*
X144581924Y-108591137D01*
X144550759Y-108566283D01*
X144514841Y-108548985D01*
X144508753Y-108545621D01*
X144474979Y-108524400D01*
X144437339Y-108511229D01*
X144430911Y-108508567D01*
X144394994Y-108491270D01*
X144394988Y-108491268D01*
X144394984Y-108491267D01*
X144356112Y-108482394D01*
X144349436Y-108480471D01*
X144326497Y-108472445D01*
X144311799Y-108467302D01*
X144311792Y-108467300D01*
X144272173Y-108462837D01*
X144265314Y-108461671D01*
X144226449Y-108452800D01*
X144226443Y-108452800D01*
X144183089Y-108452800D01*
X138799147Y-108452800D01*
X138732108Y-108433115D01*
X138711466Y-108416481D01*
X138518519Y-108223534D01*
X138485034Y-108162211D01*
X138482200Y-108135853D01*
X138482200Y-107738030D01*
X138501885Y-107670991D01*
X138518519Y-107650349D01*
X138540173Y-107628695D01*
X138570212Y-107598656D01*
X138662314Y-107449334D01*
X138717499Y-107282797D01*
X138728000Y-107180009D01*
X138728000Y-106930000D01*
X139982501Y-106930000D01*
X139982501Y-107179986D01*
X139992994Y-107282697D01*
X140048141Y-107449119D01*
X140048143Y-107449124D01*
X140140184Y-107598345D01*
X140264154Y-107722315D01*
X140413375Y-107814356D01*
X140413380Y-107814358D01*
X140579802Y-107869505D01*
X140579809Y-107869506D01*
X140682519Y-107879999D01*
X140744999Y-107879998D01*
X140745000Y-107879998D01*
X140745000Y-106930000D01*
X139982501Y-106930000D01*
X138728000Y-106930000D01*
X138727999Y-106430000D01*
X139982500Y-106430000D01*
X140745000Y-106430000D01*
X140745000Y-105480000D01*
X140744999Y-105479999D01*
X140682528Y-105480000D01*
X140682511Y-105480001D01*
X140579802Y-105490494D01*
X140413380Y-105545641D01*
X140413375Y-105545643D01*
X140264154Y-105637684D01*
X140140184Y-105761654D01*
X140048143Y-105910875D01*
X140048141Y-105910880D01*
X139992994Y-106077302D01*
X139992993Y-106077309D01*
X139982500Y-106180013D01*
X139982500Y-106430000D01*
X138727999Y-106430000D01*
X138727999Y-106179992D01*
X138727402Y-106174152D01*
X138717499Y-106077203D01*
X138717498Y-106077200D01*
X138693972Y-106006204D01*
X138662314Y-105910666D01*
X138570212Y-105761344D01*
X138446156Y-105637288D01*
X138296834Y-105545186D01*
X138130297Y-105490001D01*
X138130295Y-105490000D01*
X138027510Y-105479500D01*
X137402498Y-105479500D01*
X137402480Y-105479501D01*
X137299703Y-105490000D01*
X137299700Y-105490001D01*
X137133168Y-105545185D01*
X137133163Y-105545187D01*
X136983842Y-105637289D01*
X136890181Y-105730951D01*
X136828858Y-105764436D01*
X136759166Y-105759452D01*
X136714819Y-105730951D01*
X136621157Y-105637289D01*
X136621156Y-105637288D01*
X136471834Y-105545186D01*
X136305297Y-105490001D01*
X136305295Y-105490000D01*
X136202510Y-105479500D01*
X135577498Y-105479500D01*
X135577480Y-105479501D01*
X135474703Y-105490000D01*
X135474700Y-105490001D01*
X135308168Y-105545185D01*
X135308163Y-105545187D01*
X135158842Y-105637289D01*
X135034789Y-105761342D01*
X135004420Y-105810579D01*
X134952472Y-105857303D01*
X134883509Y-105868526D01*
X134819427Y-105840682D01*
X134793343Y-105810579D01*
X134761528Y-105759000D01*
X134761525Y-105758996D01*
X134638503Y-105635974D01*
X134638499Y-105635971D01*
X134490433Y-105544642D01*
X134490427Y-105544639D01*
X134490425Y-105544638D01*
X134490422Y-105544637D01*
X134325276Y-105489913D01*
X134223355Y-105479500D01*
X134223348Y-105479500D01*
X133636652Y-105479500D01*
X133636644Y-105479500D01*
X133534723Y-105489913D01*
X133369577Y-105544637D01*
X133369566Y-105544642D01*
X133221500Y-105635971D01*
X133221496Y-105635974D01*
X133098474Y-105758996D01*
X133098467Y-105759005D01*
X133097734Y-105760194D01*
X133097019Y-105760836D01*
X133093993Y-105764664D01*
X133093338Y-105764146D01*
X133045780Y-105806911D01*
X132976816Y-105818123D01*
X132912738Y-105790271D01*
X132890738Y-105764877D01*
X132890612Y-105764977D01*
X132888385Y-105762161D01*
X132886663Y-105760173D01*
X132886130Y-105759309D01*
X132763191Y-105636370D01*
X132615214Y-105545096D01*
X132615209Y-105545094D01*
X132450173Y-105490407D01*
X132348315Y-105480000D01*
X132305000Y-105480000D01*
X132305000Y-107880000D01*
X132348303Y-107880000D01*
X132348315Y-107879999D01*
X132450173Y-107869592D01*
X132615209Y-107814905D01*
X132615214Y-107814903D01*
X132763191Y-107723629D01*
X132886128Y-107600692D01*
X132886659Y-107599832D01*
X132887180Y-107599363D01*
X132890612Y-107595023D01*
X132891353Y-107595608D01*
X132938601Y-107553102D01*
X133007563Y-107541872D01*
X133071648Y-107569708D01*
X133093913Y-107595398D01*
X133093993Y-107595336D01*
X133095390Y-107597103D01*
X133097738Y-107599812D01*
X133098468Y-107600995D01*
X133098474Y-107601003D01*
X133221496Y-107724025D01*
X133221500Y-107724028D01*
X133369566Y-107815357D01*
X133369569Y-107815358D01*
X133369575Y-107815362D01*
X133534725Y-107870087D01*
X133636652Y-107880500D01*
X133636657Y-107880500D01*
X134223343Y-107880500D01*
X134223348Y-107880500D01*
X134325275Y-107870087D01*
X134490425Y-107815362D01*
X134638503Y-107724026D01*
X134761526Y-107601003D01*
X134793344Y-107549418D01*
X134845290Y-107502696D01*
X134914253Y-107491473D01*
X134978335Y-107519317D01*
X135004420Y-107549421D01*
X135032813Y-107595455D01*
X135034788Y-107598656D01*
X135158844Y-107722712D01*
X135308166Y-107814814D01*
X135474703Y-107869999D01*
X135577491Y-107880500D01*
X136202508Y-107880499D01*
X136202516Y-107880498D01*
X136202519Y-107880498D01*
X136258802Y-107874748D01*
X136305297Y-107869999D01*
X136471834Y-107814814D01*
X136621156Y-107722712D01*
X136714819Y-107629049D01*
X136776142Y-107595564D01*
X136845834Y-107600548D01*
X136890181Y-107629049D01*
X136911481Y-107650349D01*
X136944966Y-107711672D01*
X136947800Y-107738030D01*
X136947800Y-108591449D01*
X136956671Y-108630314D01*
X136957837Y-108637173D01*
X136962300Y-108676792D01*
X136962302Y-108676798D01*
X136975471Y-108714436D01*
X136977394Y-108721112D01*
X136986267Y-108759984D01*
X136986268Y-108759988D01*
X136986270Y-108759994D01*
X137003567Y-108795911D01*
X137006229Y-108802339D01*
X137019400Y-108839979D01*
X137040621Y-108873753D01*
X137043985Y-108879841D01*
X137061283Y-108915758D01*
X137061283Y-108915759D01*
X137086137Y-108946924D01*
X137090163Y-108952598D01*
X137111383Y-108986368D01*
X137948632Y-109823617D01*
X137982395Y-109844832D01*
X137988066Y-109848856D01*
X138019242Y-109873718D01*
X138055169Y-109891019D01*
X138061255Y-109894383D01*
X138095011Y-109915594D01*
X138095014Y-109915595D01*
X138095018Y-109915598D01*
X138132658Y-109928768D01*
X138139078Y-109931427D01*
X138175006Y-109948730D01*
X138213883Y-109957603D01*
X138220554Y-109959524D01*
X138258202Y-109972698D01*
X138296808Y-109977047D01*
X138297826Y-109977162D01*
X138304687Y-109978327D01*
X138343557Y-109987200D01*
X138386911Y-109987200D01*
X143770853Y-109987200D01*
X143837892Y-110006885D01*
X143858534Y-110023519D01*
X145428334Y-111593319D01*
X145461819Y-111654642D01*
X145456835Y-111724334D01*
X145414963Y-111780267D01*
X145350801Y-111804198D01*
X145350000Y-111805000D01*
X145350000Y-113156000D01*
X145330315Y-113223039D01*
X145277511Y-113268794D01*
X145226000Y-113280000D01*
X144100001Y-113280000D01*
X144100001Y-113554986D01*
X144110494Y-113657697D01*
X144165641Y-113824119D01*
X144165643Y-113824124D01*
X144257684Y-113973345D01*
X144381654Y-114097315D01*
X144537025Y-114193149D01*
X144535759Y-114195199D01*
X144579590Y-114233799D01*
X144598737Y-114300994D01*
X144578516Y-114367873D01*
X144535808Y-114404879D01*
X144537025Y-114406851D01*
X144381654Y-114502684D01*
X144257684Y-114626654D01*
X144165643Y-114775875D01*
X144165641Y-114775880D01*
X144110494Y-114942302D01*
X144110493Y-114942309D01*
X144100000Y-115045013D01*
X144100000Y-115320000D01*
X145226000Y-115320000D01*
X145293039Y-115339685D01*
X145338794Y-115392489D01*
X145350000Y-115444000D01*
X145350000Y-116794999D01*
X145399972Y-116794999D01*
X145399986Y-116794998D01*
X145502697Y-116784505D01*
X145669119Y-116729358D01*
X145669124Y-116729356D01*
X145818345Y-116637315D01*
X145942318Y-116513342D01*
X145944165Y-116510348D01*
X145945969Y-116508724D01*
X145946798Y-116507677D01*
X145946976Y-116507818D01*
X145996110Y-116463621D01*
X146065073Y-116452396D01*
X146129156Y-116480236D01*
X146155243Y-116510341D01*
X146157288Y-116513656D01*
X146157289Y-116513657D01*
X146196481Y-116552849D01*
X146229966Y-116614172D01*
X146232800Y-116640530D01*
X146232800Y-117876449D01*
X146241671Y-117915314D01*
X146242837Y-117922173D01*
X146247300Y-117961792D01*
X146247302Y-117961798D01*
X146260471Y-117999436D01*
X146262394Y-118006112D01*
X146271267Y-118044984D01*
X146271268Y-118044988D01*
X146271270Y-118044994D01*
X146287853Y-118079428D01*
X146288567Y-118080911D01*
X146291229Y-118087339D01*
X146304400Y-118124979D01*
X146325621Y-118158753D01*
X146328985Y-118164841D01*
X146346283Y-118200758D01*
X146346283Y-118200759D01*
X146371137Y-118231924D01*
X146375163Y-118237598D01*
X146396383Y-118271368D01*
X146427039Y-118302024D01*
X147984040Y-119859024D01*
X147984050Y-119859035D01*
X147986382Y-119861367D01*
X147986383Y-119861368D01*
X148108632Y-119983617D01*
X148108634Y-119983618D01*
X148142393Y-120004831D01*
X148148069Y-120008858D01*
X148179238Y-120033716D01*
X148179241Y-120033717D01*
X148179242Y-120033718D01*
X148215169Y-120051019D01*
X148221255Y-120054383D01*
X148255011Y-120075594D01*
X148255014Y-120075595D01*
X148255018Y-120075598D01*
X148292658Y-120088768D01*
X148299078Y-120091427D01*
X148335006Y-120108730D01*
X148373898Y-120117606D01*
X148380546Y-120119521D01*
X148418202Y-120132698D01*
X148457831Y-120137162D01*
X148464659Y-120138322D01*
X148503557Y-120147201D01*
X148503560Y-120147201D01*
X148680183Y-120147201D01*
X148680199Y-120147200D01*
X153276439Y-120147200D01*
X153276443Y-120147200D01*
X153315318Y-120138326D01*
X153322170Y-120137162D01*
X153361798Y-120132698D01*
X153399454Y-120119521D01*
X153406090Y-120117609D01*
X153438853Y-120110131D01*
X153444991Y-120108731D01*
X153444991Y-120108730D01*
X153444994Y-120108730D01*
X153480933Y-120091421D01*
X153487317Y-120088776D01*
X153524982Y-120075598D01*
X153558754Y-120054376D01*
X153564830Y-120051018D01*
X153600758Y-120033717D01*
X153631947Y-120008843D01*
X153637594Y-120004837D01*
X153671368Y-119983617D01*
X153793617Y-119861368D01*
X155272961Y-118382024D01*
X155303617Y-118351368D01*
X155324835Y-118317597D01*
X155328853Y-118311935D01*
X155353717Y-118280759D01*
X155371019Y-118244827D01*
X155374377Y-118238753D01*
X155395598Y-118204982D01*
X155408770Y-118167335D01*
X155411424Y-118160928D01*
X155428730Y-118124994D01*
X155437609Y-118086090D01*
X155439521Y-118079454D01*
X155452698Y-118041798D01*
X155457162Y-118002170D01*
X155458326Y-117995318D01*
X155467200Y-117956443D01*
X155467200Y-117793538D01*
X155486885Y-117726499D01*
X155539689Y-117680744D01*
X155550326Y-117677099D01*
X155550215Y-117676802D01*
X155692328Y-117623797D01*
X155692327Y-117623797D01*
X155692331Y-117623796D01*
X155807546Y-117537546D01*
X155893796Y-117422331D01*
X155944091Y-117287483D01*
X155950500Y-117227873D01*
X155950499Y-116940111D01*
X155970183Y-116873073D01*
X156005419Y-116838194D01*
X156005312Y-116838060D01*
X156006566Y-116837059D01*
X156008529Y-116835117D01*
X156010751Y-116833720D01*
X156010758Y-116833717D01*
X156041947Y-116808843D01*
X156047594Y-116804837D01*
X156081368Y-116783617D01*
X156203617Y-116661368D01*
X156203617Y-116661367D01*
X157951158Y-114913824D01*
X157951163Y-114913821D01*
X157961366Y-114903617D01*
X157961368Y-114903617D01*
X158083617Y-114781368D01*
X158104841Y-114747589D01*
X158108844Y-114741946D01*
X158133717Y-114710759D01*
X158151019Y-114674827D01*
X158154377Y-114668753D01*
X158175598Y-114634982D01*
X158188770Y-114597335D01*
X158191424Y-114590928D01*
X158208730Y-114554994D01*
X158217609Y-114516090D01*
X158219521Y-114509454D01*
X158232698Y-114471798D01*
X158237162Y-114432170D01*
X158238326Y-114425318D01*
X158247200Y-114386443D01*
X158247200Y-114213557D01*
X158247200Y-113399147D01*
X158266885Y-113332108D01*
X158283519Y-113311466D01*
X158538319Y-113056666D01*
X158599642Y-113023181D01*
X158669334Y-113028165D01*
X158725267Y-113070037D01*
X158749684Y-113135501D01*
X158750000Y-113144347D01*
X158750000Y-120525500D01*
X158730315Y-120592539D01*
X158677511Y-120638294D01*
X158626000Y-120649500D01*
X120774000Y-120649500D01*
X120706961Y-120629815D01*
X120661206Y-120577011D01*
X120650000Y-120525500D01*
X120650000Y-115820000D01*
X144100001Y-115820000D01*
X144100001Y-116094986D01*
X144110494Y-116197697D01*
X144165641Y-116364119D01*
X144165643Y-116364124D01*
X144257684Y-116513345D01*
X144381654Y-116637315D01*
X144530875Y-116729356D01*
X144530880Y-116729358D01*
X144697302Y-116784505D01*
X144697309Y-116784506D01*
X144800019Y-116794999D01*
X144849999Y-116794998D01*
X144850000Y-116794998D01*
X144850000Y-115820000D01*
X144100001Y-115820000D01*
X120650000Y-115820000D01*
X120650000Y-113030000D01*
X113154500Y-113030000D01*
X113087461Y-113010315D01*
X113041706Y-112957511D01*
X113030500Y-112906000D01*
X113030500Y-112780000D01*
X144100000Y-112780000D01*
X144850000Y-112780000D01*
X144850000Y-111805000D01*
X144849999Y-111804999D01*
X144800029Y-111805000D01*
X144800011Y-111805001D01*
X144697302Y-111815494D01*
X144530880Y-111870641D01*
X144530875Y-111870643D01*
X144381654Y-111962684D01*
X144257684Y-112086654D01*
X144165643Y-112235875D01*
X144165641Y-112235880D01*
X144110494Y-112402302D01*
X144110493Y-112402309D01*
X144100000Y-112505013D01*
X144100000Y-112780000D01*
X113030500Y-112780000D01*
X113030500Y-106930000D01*
X131067500Y-106930000D01*
X131067500Y-107185815D01*
X131077907Y-107287673D01*
X131132594Y-107452709D01*
X131132596Y-107452714D01*
X131223870Y-107600691D01*
X131346808Y-107723629D01*
X131494785Y-107814903D01*
X131494790Y-107814905D01*
X131659826Y-107869592D01*
X131761684Y-107879999D01*
X131761697Y-107880000D01*
X131805000Y-107880000D01*
X131805000Y-106930000D01*
X131067500Y-106930000D01*
X113030500Y-106930000D01*
X113030500Y-105420000D01*
X117184341Y-105420000D01*
X117204936Y-105655403D01*
X117204938Y-105655413D01*
X117266094Y-105883655D01*
X117266096Y-105883659D01*
X117266097Y-105883663D01*
X117299786Y-105955909D01*
X117365965Y-106097830D01*
X117365967Y-106097834D01*
X117474281Y-106252521D01*
X117501505Y-106291401D01*
X117668599Y-106458495D01*
X117765384Y-106526265D01*
X117862165Y-106594032D01*
X117862167Y-106594033D01*
X117862170Y-106594035D01*
X118076337Y-106693903D01*
X118304592Y-106755063D01*
X118492918Y-106771539D01*
X118539999Y-106775659D01*
X118540000Y-106775659D01*
X118540001Y-106775659D01*
X118579234Y-106772226D01*
X118775408Y-106755063D01*
X119003663Y-106693903D01*
X119217830Y-106594035D01*
X119411401Y-106458495D01*
X119578495Y-106291401D01*
X119714035Y-106097830D01*
X119813903Y-105883663D01*
X119875063Y-105655408D01*
X119895659Y-105420000D01*
X119875063Y-105184592D01*
X119828124Y-105009411D01*
X119813905Y-104956344D01*
X119813904Y-104956343D01*
X119813903Y-104956337D01*
X119714035Y-104742171D01*
X119668867Y-104677663D01*
X119578494Y-104548597D01*
X119411402Y-104381506D01*
X119411396Y-104381501D01*
X119225842Y-104251575D01*
X119182217Y-104196998D01*
X119175023Y-104127500D01*
X119206546Y-104065145D01*
X119225842Y-104048425D01*
X119311122Y-103988711D01*
X119411401Y-103918495D01*
X119578495Y-103751401D01*
X119714035Y-103557830D01*
X119813903Y-103343663D01*
X119875063Y-103115408D01*
X119895659Y-102880000D01*
X119875063Y-102644592D01*
X119813903Y-102416337D01*
X119714035Y-102202171D01*
X119702864Y-102186216D01*
X119578494Y-102008597D01*
X119411402Y-101841506D01*
X119411401Y-101841505D01*
X119225405Y-101711269D01*
X119181781Y-101656692D01*
X119174588Y-101587193D01*
X119206110Y-101524839D01*
X119225405Y-101508119D01*
X119411082Y-101378105D01*
X119578105Y-101211082D01*
X119713600Y-101017578D01*
X119813429Y-100803492D01*
X119813432Y-100803486D01*
X119870636Y-100590000D01*
X118973686Y-100590000D01*
X118999493Y-100549844D01*
X119040000Y-100411889D01*
X119040000Y-100268111D01*
X118999493Y-100130156D01*
X118973686Y-100090000D01*
X119870636Y-100090000D01*
X119870635Y-100089999D01*
X119813432Y-99876513D01*
X119813429Y-99876507D01*
X119713600Y-99662422D01*
X119713599Y-99662420D01*
X119578113Y-99468926D01*
X119578108Y-99468920D01*
X119456053Y-99346865D01*
X119422568Y-99285542D01*
X119427552Y-99215850D01*
X119469424Y-99159917D01*
X119500400Y-99143002D01*
X119632331Y-99093796D01*
X119747546Y-99007546D01*
X119833796Y-98892331D01*
X119884091Y-98757483D01*
X119890500Y-98697873D01*
X119890500Y-98691200D01*
X119910185Y-98624161D01*
X119962989Y-98578406D01*
X120014500Y-98567200D01*
X121715501Y-98567200D01*
X121782540Y-98586885D01*
X121828295Y-98639689D01*
X121839501Y-98691200D01*
X121839501Y-98697876D01*
X121845908Y-98757483D01*
X121896202Y-98892328D01*
X121896206Y-98892335D01*
X121982452Y-99007544D01*
X121982455Y-99007547D01*
X122097664Y-99093793D01*
X122097671Y-99093797D01*
X122097674Y-99093798D01*
X122229598Y-99143002D01*
X122285531Y-99184873D01*
X122309949Y-99250337D01*
X122295098Y-99318610D01*
X122273947Y-99346865D01*
X122151886Y-99468926D01*
X122016400Y-99662420D01*
X122016399Y-99662422D01*
X121916570Y-99876507D01*
X121916567Y-99876513D01*
X121859364Y-100089999D01*
X121859364Y-100090000D01*
X122756314Y-100090000D01*
X122730507Y-100130156D01*
X122690000Y-100268111D01*
X122690000Y-100411889D01*
X122730507Y-100549844D01*
X122756314Y-100590000D01*
X121859364Y-100590000D01*
X121916567Y-100803486D01*
X121916570Y-100803492D01*
X122016399Y-101017578D01*
X122151894Y-101211082D01*
X122318917Y-101378105D01*
X122504595Y-101508119D01*
X122548219Y-101562696D01*
X122555412Y-101632195D01*
X122523890Y-101694549D01*
X122504595Y-101711269D01*
X122318594Y-101841508D01*
X122151505Y-102008597D01*
X122015965Y-102202169D01*
X122015964Y-102202171D01*
X121916098Y-102416335D01*
X121916094Y-102416344D01*
X121854938Y-102644586D01*
X121854936Y-102644596D01*
X121834341Y-102879999D01*
X121834341Y-102880000D01*
X121854936Y-103115403D01*
X121854938Y-103115413D01*
X121916094Y-103343655D01*
X121916096Y-103343659D01*
X121916097Y-103343663D01*
X121968554Y-103456157D01*
X122015965Y-103557830D01*
X122015967Y-103557834D01*
X122151501Y-103751395D01*
X122151506Y-103751402D01*
X122318597Y-103918493D01*
X122318603Y-103918498D01*
X122504158Y-104048425D01*
X122547783Y-104103002D01*
X122554977Y-104172500D01*
X122523454Y-104234855D01*
X122504158Y-104251575D01*
X122318597Y-104381505D01*
X122151505Y-104548597D01*
X122015965Y-104742169D01*
X122015964Y-104742171D01*
X121916098Y-104956335D01*
X121916094Y-104956344D01*
X121854938Y-105184586D01*
X121854936Y-105184596D01*
X121834341Y-105419999D01*
X121834341Y-105420000D01*
X121854936Y-105655403D01*
X121854938Y-105655413D01*
X121916094Y-105883655D01*
X121916096Y-105883659D01*
X121916097Y-105883663D01*
X121949786Y-105955909D01*
X122015965Y-106097830D01*
X122015967Y-106097834D01*
X122124281Y-106252521D01*
X122151505Y-106291401D01*
X122318599Y-106458495D01*
X122415384Y-106526265D01*
X122512165Y-106594032D01*
X122512167Y-106594033D01*
X122512170Y-106594035D01*
X122726337Y-106693903D01*
X122954592Y-106755063D01*
X123142918Y-106771539D01*
X123189999Y-106775659D01*
X123190000Y-106775659D01*
X123190001Y-106775659D01*
X123229234Y-106772226D01*
X123425408Y-106755063D01*
X123653663Y-106693903D01*
X123867830Y-106594035D01*
X124061401Y-106458495D01*
X124089896Y-106430000D01*
X131067500Y-106430000D01*
X131805000Y-106430000D01*
X131805000Y-105480000D01*
X131761684Y-105480000D01*
X131659826Y-105490407D01*
X131494790Y-105545094D01*
X131494785Y-105545096D01*
X131346808Y-105636370D01*
X131223870Y-105759308D01*
X131132596Y-105907285D01*
X131132594Y-105907290D01*
X131077907Y-106072326D01*
X131067500Y-106174184D01*
X131067500Y-106430000D01*
X124089896Y-106430000D01*
X124228495Y-106291401D01*
X124364035Y-106097830D01*
X124463903Y-105883663D01*
X124525063Y-105655408D01*
X124545659Y-105420000D01*
X124525063Y-105184592D01*
X124478124Y-105009411D01*
X124463905Y-104956344D01*
X124463904Y-104956343D01*
X124463903Y-104956337D01*
X124364035Y-104742171D01*
X124318867Y-104677663D01*
X124228494Y-104548597D01*
X124061402Y-104381506D01*
X124061396Y-104381501D01*
X123875842Y-104251575D01*
X123832217Y-104196998D01*
X123825023Y-104127500D01*
X123856546Y-104065145D01*
X123875842Y-104048425D01*
X123961122Y-103988711D01*
X124061401Y-103918495D01*
X124228495Y-103751401D01*
X124364035Y-103557830D01*
X124463903Y-103343663D01*
X124525063Y-103115408D01*
X124526411Y-103100000D01*
X135440000Y-103100000D01*
X135440000Y-103647844D01*
X135446401Y-103707372D01*
X135446403Y-103707379D01*
X135496645Y-103842086D01*
X135496649Y-103842093D01*
X135582809Y-103957187D01*
X135582812Y-103957190D01*
X135697906Y-104043350D01*
X135697913Y-104043354D01*
X135832620Y-104093596D01*
X135832627Y-104093598D01*
X135892155Y-104099999D01*
X135892172Y-104100000D01*
X136140000Y-104100000D01*
X136640000Y-104100000D01*
X136887828Y-104100000D01*
X136887844Y-104099999D01*
X136947372Y-104093598D01*
X136947375Y-104093597D01*
X136980949Y-104081075D01*
X137050640Y-104076089D01*
X137067619Y-104081075D01*
X137102511Y-104094089D01*
X137102512Y-104094089D01*
X137102517Y-104094091D01*
X137162127Y-104100500D01*
X138157872Y-104100499D01*
X138217483Y-104094091D01*
X138251667Y-104081340D01*
X138321358Y-104076357D01*
X138338327Y-104081338D01*
X138372517Y-104094091D01*
X138432127Y-104100500D01*
X139427872Y-104100499D01*
X139487483Y-104094091D01*
X139521667Y-104081340D01*
X139591358Y-104076357D01*
X139608327Y-104081338D01*
X139642517Y-104094091D01*
X139702127Y-104100500D01*
X140697872Y-104100499D01*
X140757483Y-104094091D01*
X140791667Y-104081340D01*
X140861358Y-104076357D01*
X140878327Y-104081338D01*
X140912517Y-104094091D01*
X140972127Y-104100500D01*
X141967872Y-104100499D01*
X142027483Y-104094091D01*
X142061667Y-104081340D01*
X142131358Y-104076357D01*
X142148327Y-104081338D01*
X142182517Y-104094091D01*
X142242127Y-104100500D01*
X143237872Y-104100499D01*
X143297483Y-104094091D01*
X143331667Y-104081340D01*
X143401358Y-104076357D01*
X143418327Y-104081338D01*
X143452517Y-104094091D01*
X143512127Y-104100500D01*
X144507872Y-104100499D01*
X144567483Y-104094091D01*
X144601667Y-104081340D01*
X144671358Y-104076357D01*
X144688327Y-104081338D01*
X144722517Y-104094091D01*
X144782127Y-104100500D01*
X145777872Y-104100499D01*
X145837483Y-104094091D01*
X145871667Y-104081340D01*
X145941358Y-104076357D01*
X145958327Y-104081338D01*
X145992517Y-104094091D01*
X146052127Y-104100500D01*
X147033800Y-104100499D01*
X147100839Y-104120183D01*
X147146594Y-104172987D01*
X147157800Y-104224499D01*
X147157800Y-105643309D01*
X147138115Y-105710348D01*
X147121481Y-105730990D01*
X147093474Y-105758996D01*
X147093471Y-105759000D01*
X147093038Y-105759703D01*
X147092614Y-105760083D01*
X147088993Y-105764664D01*
X147088210Y-105764045D01*
X147041090Y-105806428D01*
X146972128Y-105817649D01*
X146908046Y-105789806D01*
X146886157Y-105764544D01*
X146886007Y-105764664D01*
X146883359Y-105761315D01*
X146881962Y-105759703D01*
X146881528Y-105759000D01*
X146881525Y-105758996D01*
X146758503Y-105635974D01*
X146758499Y-105635971D01*
X146610433Y-105544642D01*
X146610427Y-105544639D01*
X146610425Y-105544638D01*
X146610422Y-105544637D01*
X146445276Y-105489913D01*
X146343355Y-105479500D01*
X146343348Y-105479500D01*
X145756652Y-105479500D01*
X145756644Y-105479500D01*
X145654723Y-105489913D01*
X145489577Y-105544637D01*
X145489566Y-105544642D01*
X145341500Y-105635971D01*
X145341496Y-105635974D01*
X145218474Y-105758996D01*
X145218471Y-105759000D01*
X145159938Y-105853897D01*
X145107990Y-105900622D01*
X145054400Y-105912800D01*
X143837837Y-105912800D01*
X143770798Y-105893115D01*
X143732298Y-105853896D01*
X143675212Y-105761344D01*
X143551157Y-105637289D01*
X143551156Y-105637288D01*
X143401834Y-105545186D01*
X143235297Y-105490001D01*
X143235295Y-105490000D01*
X143132510Y-105479500D01*
X142507498Y-105479500D01*
X142507480Y-105479501D01*
X142404703Y-105490000D01*
X142404700Y-105490001D01*
X142238168Y-105545185D01*
X142238163Y-105545187D01*
X142088845Y-105637287D01*
X141994827Y-105731305D01*
X141933503Y-105764789D01*
X141863812Y-105759805D01*
X141819465Y-105731304D01*
X141725845Y-105637684D01*
X141576624Y-105545643D01*
X141576619Y-105545641D01*
X141410197Y-105490494D01*
X141410190Y-105490493D01*
X141307486Y-105480000D01*
X141245000Y-105480000D01*
X141245000Y-107879999D01*
X141307472Y-107879999D01*
X141307486Y-107879998D01*
X141410197Y-107869505D01*
X141576619Y-107814358D01*
X141576624Y-107814356D01*
X141725842Y-107722317D01*
X141819464Y-107628695D01*
X141880787Y-107595210D01*
X141950479Y-107600194D01*
X141994827Y-107628695D01*
X142088844Y-107722712D01*
X142238166Y-107814814D01*
X142404703Y-107869999D01*
X142507491Y-107880500D01*
X143132508Y-107880499D01*
X143132516Y-107880498D01*
X143132519Y-107880498D01*
X143188802Y-107874748D01*
X143235297Y-107869999D01*
X143401834Y-107814814D01*
X143551156Y-107722712D01*
X143675212Y-107598656D01*
X143732298Y-107506103D01*
X143784246Y-107459379D01*
X143837837Y-107447200D01*
X145054400Y-107447200D01*
X145121439Y-107466885D01*
X145159938Y-107506103D01*
X145218471Y-107600999D01*
X145218474Y-107601003D01*
X145341496Y-107724025D01*
X145341500Y-107724028D01*
X145489566Y-107815357D01*
X145489569Y-107815358D01*
X145489575Y-107815362D01*
X145654725Y-107870087D01*
X145756652Y-107880500D01*
X145756657Y-107880500D01*
X146343343Y-107880500D01*
X146343348Y-107880500D01*
X146445275Y-107870087D01*
X146610425Y-107815362D01*
X146758503Y-107724026D01*
X146881526Y-107601003D01*
X146881958Y-107600301D01*
X146882381Y-107599921D01*
X146886007Y-107595336D01*
X146886790Y-107595955D01*
X146933902Y-107553575D01*
X147002864Y-107542349D01*
X147066948Y-107570188D01*
X147088842Y-107595455D01*
X147088993Y-107595336D01*
X147091643Y-107598687D01*
X147093040Y-107600299D01*
X147093469Y-107600995D01*
X147093475Y-107601004D01*
X147216496Y-107724025D01*
X147216500Y-107724028D01*
X147364566Y-107815357D01*
X147364569Y-107815358D01*
X147364575Y-107815362D01*
X147529725Y-107870087D01*
X147631652Y-107880500D01*
X147631657Y-107880500D01*
X148218343Y-107880500D01*
X148218348Y-107880500D01*
X148320275Y-107870087D01*
X148485425Y-107815362D01*
X148633503Y-107724026D01*
X148756526Y-107601003D01*
X148847862Y-107452925D01*
X148902587Y-107287775D01*
X148913000Y-107185848D01*
X148913000Y-106174152D01*
X148902587Y-106072225D01*
X148847862Y-105907075D01*
X148847858Y-105907069D01*
X148847857Y-105907066D01*
X148756528Y-105759000D01*
X148756525Y-105758996D01*
X148728519Y-105730990D01*
X148695034Y-105669667D01*
X148692200Y-105643309D01*
X148692200Y-103912451D01*
X148710372Y-103850562D01*
X148709547Y-103850112D01*
X148711619Y-103846317D01*
X148711885Y-103845412D01*
X148712956Y-103843867D01*
X148713797Y-103842329D01*
X148747710Y-103751402D01*
X148764091Y-103707483D01*
X148770500Y-103647873D01*
X148770499Y-102052128D01*
X148764091Y-101992517D01*
X148713884Y-101857906D01*
X148713797Y-101857671D01*
X148713793Y-101857664D01*
X148627547Y-101742455D01*
X148627544Y-101742452D01*
X148512335Y-101656206D01*
X148512328Y-101656202D01*
X148377482Y-101605908D01*
X148377483Y-101605908D01*
X148317883Y-101599501D01*
X148317881Y-101599500D01*
X148317873Y-101599500D01*
X148317864Y-101599500D01*
X147322129Y-101599500D01*
X147322123Y-101599501D01*
X147262518Y-101605908D01*
X147228331Y-101618659D01*
X147158639Y-101623642D01*
X147141669Y-101618659D01*
X147124140Y-101612121D01*
X147107483Y-101605909D01*
X147107482Y-101605908D01*
X147047883Y-101599501D01*
X147047881Y-101599500D01*
X147047873Y-101599500D01*
X147047864Y-101599500D01*
X146052129Y-101599500D01*
X146052123Y-101599501D01*
X145992518Y-101605908D01*
X145958331Y-101618659D01*
X145888639Y-101623642D01*
X145871669Y-101618659D01*
X145854140Y-101612121D01*
X145837483Y-101605909D01*
X145837482Y-101605908D01*
X145777883Y-101599501D01*
X145777881Y-101599500D01*
X145777873Y-101599500D01*
X145777864Y-101599500D01*
X144782129Y-101599500D01*
X144782123Y-101599501D01*
X144722518Y-101605908D01*
X144688331Y-101618659D01*
X144618639Y-101623642D01*
X144601669Y-101618659D01*
X144584140Y-101612121D01*
X144567483Y-101605909D01*
X144567482Y-101605908D01*
X144507883Y-101599501D01*
X144507881Y-101599500D01*
X144507873Y-101599500D01*
X144507864Y-101599500D01*
X143512129Y-101599500D01*
X143512123Y-101599501D01*
X143452518Y-101605908D01*
X143418331Y-101618659D01*
X143348639Y-101623642D01*
X143331669Y-101618659D01*
X143314140Y-101612121D01*
X143297483Y-101605909D01*
X143297482Y-101605908D01*
X143237883Y-101599501D01*
X143237881Y-101599500D01*
X143237873Y-101599500D01*
X143237864Y-101599500D01*
X142242129Y-101599500D01*
X142242123Y-101599501D01*
X142182518Y-101605908D01*
X142148331Y-101618659D01*
X142078639Y-101623642D01*
X142061669Y-101618659D01*
X142044140Y-101612121D01*
X142027483Y-101605909D01*
X142027482Y-101605908D01*
X141967883Y-101599501D01*
X141967881Y-101599500D01*
X141967873Y-101599500D01*
X141967864Y-101599500D01*
X140972129Y-101599500D01*
X140972123Y-101599501D01*
X140912518Y-101605908D01*
X140878331Y-101618659D01*
X140808639Y-101623642D01*
X140791669Y-101618659D01*
X140774140Y-101612121D01*
X140757483Y-101605909D01*
X140757482Y-101605908D01*
X140697883Y-101599501D01*
X140697881Y-101599500D01*
X140697873Y-101599500D01*
X140697864Y-101599500D01*
X139702129Y-101599500D01*
X139702123Y-101599501D01*
X139642518Y-101605908D01*
X139608331Y-101618659D01*
X139538639Y-101623642D01*
X139521669Y-101618659D01*
X139504140Y-101612121D01*
X139487483Y-101605909D01*
X139487482Y-101605908D01*
X139427883Y-101599501D01*
X139427881Y-101599500D01*
X139427873Y-101599500D01*
X139427865Y-101599500D01*
X139218309Y-101599500D01*
X139151270Y-101579815D01*
X139105515Y-101527011D01*
X139095571Y-101457853D01*
X139113318Y-101409524D01*
X139125598Y-101389982D01*
X139138770Y-101352335D01*
X139141424Y-101345928D01*
X139158730Y-101309994D01*
X139167609Y-101271090D01*
X139169521Y-101264454D01*
X139182698Y-101226798D01*
X139187162Y-101187170D01*
X139188326Y-101180318D01*
X139197200Y-101141443D01*
X139197200Y-100968557D01*
X139197200Y-100835395D01*
X139213813Y-100773395D01*
X139232656Y-100740758D01*
X139257179Y-100698284D01*
X139315674Y-100518256D01*
X139335460Y-100330000D01*
X139315674Y-100141744D01*
X139259053Y-99967483D01*
X139257181Y-99961722D01*
X139257180Y-99961721D01*
X139257179Y-99961716D01*
X139162533Y-99797784D01*
X139035871Y-99657112D01*
X139035870Y-99657111D01*
X138882734Y-99545851D01*
X138882729Y-99545848D01*
X138709807Y-99468857D01*
X138709802Y-99468855D01*
X138564001Y-99437865D01*
X138524646Y-99429500D01*
X138335354Y-99429500D01*
X138302897Y-99436398D01*
X138150197Y-99468855D01*
X138150192Y-99468857D01*
X137977270Y-99545848D01*
X137977265Y-99545851D01*
X137824129Y-99657111D01*
X137697466Y-99797785D01*
X137602821Y-99961715D01*
X137602818Y-99961722D01*
X137557209Y-100102093D01*
X137544326Y-100141744D01*
X137524540Y-100330000D01*
X137544326Y-100518256D01*
X137544327Y-100518259D01*
X137603595Y-100700669D01*
X137605590Y-100770510D01*
X137573345Y-100826668D01*
X137178632Y-101221383D01*
X137056385Y-101343629D01*
X137056382Y-101343633D01*
X137035166Y-101377397D01*
X137031141Y-101383070D01*
X137006281Y-101414244D01*
X136988982Y-101450163D01*
X136985619Y-101456250D01*
X136964402Y-101490017D01*
X136954976Y-101516956D01*
X136914254Y-101573731D01*
X136849301Y-101599478D01*
X136837935Y-101600000D01*
X136640000Y-101600000D01*
X136640000Y-104100000D01*
X136140000Y-104100000D01*
X136140000Y-103100000D01*
X135440000Y-103100000D01*
X124526411Y-103100000D01*
X124545659Y-102880000D01*
X124525063Y-102644592D01*
X124513115Y-102600000D01*
X135440000Y-102600000D01*
X136140000Y-102600000D01*
X136140000Y-101600000D01*
X135892155Y-101600000D01*
X135832627Y-101606401D01*
X135832620Y-101606403D01*
X135697913Y-101656645D01*
X135697906Y-101656649D01*
X135582812Y-101742809D01*
X135582809Y-101742812D01*
X135496649Y-101857906D01*
X135496645Y-101857913D01*
X135446403Y-101992620D01*
X135446401Y-101992627D01*
X135440000Y-102052155D01*
X135440000Y-102600000D01*
X124513115Y-102600000D01*
X124463903Y-102416337D01*
X124364035Y-102202171D01*
X124352864Y-102186216D01*
X124228494Y-102008597D01*
X124061402Y-101841506D01*
X124061401Y-101841505D01*
X123875405Y-101711269D01*
X123831781Y-101656692D01*
X123824588Y-101587193D01*
X123856110Y-101524839D01*
X123875405Y-101508119D01*
X124061082Y-101378105D01*
X124228105Y-101211082D01*
X124363600Y-101017578D01*
X124463429Y-100803492D01*
X124463432Y-100803486D01*
X124520636Y-100590000D01*
X123623686Y-100590000D01*
X123649493Y-100549844D01*
X123690000Y-100411889D01*
X123690000Y-100268111D01*
X123649493Y-100130156D01*
X123623686Y-100090000D01*
X124520636Y-100090000D01*
X124520635Y-100089999D01*
X124463432Y-99876513D01*
X124463429Y-99876507D01*
X124363600Y-99662422D01*
X124363599Y-99662420D01*
X124228113Y-99468926D01*
X124228108Y-99468920D01*
X124106053Y-99346865D01*
X124085923Y-99310000D01*
X127390000Y-99310000D01*
X127390000Y-99907844D01*
X127396401Y-99967372D01*
X127396403Y-99967379D01*
X127446645Y-100102086D01*
X127446649Y-100102093D01*
X127532809Y-100217187D01*
X127532812Y-100217190D01*
X127647906Y-100303350D01*
X127647913Y-100303354D01*
X127782620Y-100353596D01*
X127782627Y-100353598D01*
X127842155Y-100359999D01*
X127842172Y-100360000D01*
X128020000Y-100360000D01*
X128020000Y-99310000D01*
X128520000Y-99310000D01*
X128520000Y-100360000D01*
X128697828Y-100360000D01*
X128697844Y-100359999D01*
X128757372Y-100353598D01*
X128757379Y-100353596D01*
X128892086Y-100303354D01*
X128892093Y-100303350D01*
X129007187Y-100217190D01*
X129007190Y-100217187D01*
X129093350Y-100102093D01*
X129093354Y-100102086D01*
X129143596Y-99967379D01*
X129143598Y-99967372D01*
X129149999Y-99907844D01*
X129150000Y-99907827D01*
X129150000Y-99310000D01*
X128520000Y-99310000D01*
X128020000Y-99310000D01*
X127390000Y-99310000D01*
X124085923Y-99310000D01*
X124072568Y-99285542D01*
X124077552Y-99215850D01*
X124119424Y-99159917D01*
X124150400Y-99143002D01*
X124282331Y-99093796D01*
X124397546Y-99007546D01*
X124483796Y-98892331D01*
X124514503Y-98810000D01*
X127390000Y-98810000D01*
X128020000Y-98810000D01*
X128020000Y-97760000D01*
X128520000Y-97760000D01*
X128520000Y-98810000D01*
X129150000Y-98810000D01*
X129150000Y-98212172D01*
X129149999Y-98212155D01*
X129143598Y-98152627D01*
X129143596Y-98152620D01*
X129093354Y-98017913D01*
X129093350Y-98017906D01*
X129007190Y-97902812D01*
X129007187Y-97902809D01*
X128892093Y-97816649D01*
X128892086Y-97816645D01*
X128757379Y-97766403D01*
X128757372Y-97766401D01*
X128697844Y-97760000D01*
X128520000Y-97760000D01*
X128020000Y-97760000D01*
X127842155Y-97760000D01*
X127782627Y-97766401D01*
X127782620Y-97766403D01*
X127647913Y-97816645D01*
X127647906Y-97816649D01*
X127532812Y-97902809D01*
X127532809Y-97902812D01*
X127446649Y-98017906D01*
X127446645Y-98017913D01*
X127396403Y-98152620D01*
X127396401Y-98152627D01*
X127390000Y-98212155D01*
X127390000Y-98810000D01*
X124514503Y-98810000D01*
X124534091Y-98757483D01*
X124540500Y-98697873D01*
X124540499Y-96902128D01*
X124534091Y-96842517D01*
X124483796Y-96707669D01*
X124483795Y-96707668D01*
X124483793Y-96707664D01*
X124397547Y-96592455D01*
X124397544Y-96592452D01*
X124282335Y-96506206D01*
X124282328Y-96506202D01*
X124147482Y-96455908D01*
X124147483Y-96455908D01*
X124087883Y-96449501D01*
X124087881Y-96449500D01*
X124087873Y-96449500D01*
X124087864Y-96449500D01*
X122292129Y-96449500D01*
X122292123Y-96449501D01*
X122232516Y-96455908D01*
X122097671Y-96506202D01*
X122097664Y-96506206D01*
X121982455Y-96592452D01*
X121982452Y-96592455D01*
X121896206Y-96707664D01*
X121896202Y-96707671D01*
X121845908Y-96842517D01*
X121839501Y-96902116D01*
X121839501Y-96902123D01*
X121839500Y-96902135D01*
X121839500Y-96908800D01*
X121819815Y-96975839D01*
X121767011Y-97021594D01*
X121715500Y-97032800D01*
X120014499Y-97032800D01*
X119947460Y-97013115D01*
X119901705Y-96960311D01*
X119890499Y-96908800D01*
X119890499Y-96902129D01*
X119890498Y-96902123D01*
X119890497Y-96902116D01*
X119884091Y-96842517D01*
X119833796Y-96707669D01*
X119833795Y-96707668D01*
X119833793Y-96707664D01*
X119747547Y-96592455D01*
X119747544Y-96592452D01*
X119632335Y-96506206D01*
X119632328Y-96506202D01*
X119497482Y-96455908D01*
X119497483Y-96455908D01*
X119437883Y-96449501D01*
X119437881Y-96449500D01*
X119437873Y-96449500D01*
X119437864Y-96449500D01*
X117642129Y-96449500D01*
X117642123Y-96449501D01*
X117582516Y-96455908D01*
X117447671Y-96506202D01*
X117447664Y-96506206D01*
X117332455Y-96592452D01*
X117332452Y-96592455D01*
X117246206Y-96707664D01*
X117246202Y-96707671D01*
X117195908Y-96842517D01*
X117189501Y-96902116D01*
X117189501Y-96902123D01*
X117189500Y-96902135D01*
X117189500Y-98697870D01*
X117189501Y-98697876D01*
X117195908Y-98757483D01*
X117246202Y-98892328D01*
X117246206Y-98892335D01*
X117332452Y-99007544D01*
X117332455Y-99007547D01*
X117447664Y-99093793D01*
X117447671Y-99093797D01*
X117447674Y-99093798D01*
X117579598Y-99143002D01*
X117635531Y-99184873D01*
X117659949Y-99250337D01*
X117645098Y-99318610D01*
X117623947Y-99346865D01*
X117501886Y-99468926D01*
X117366400Y-99662420D01*
X117366399Y-99662422D01*
X117266570Y-99876507D01*
X117266567Y-99876513D01*
X117209364Y-100089999D01*
X117209364Y-100090000D01*
X118106314Y-100090000D01*
X118080507Y-100130156D01*
X118040000Y-100268111D01*
X118040000Y-100411889D01*
X118080507Y-100549844D01*
X118106314Y-100590000D01*
X117209364Y-100590000D01*
X117266567Y-100803486D01*
X117266570Y-100803492D01*
X117366399Y-101017578D01*
X117501894Y-101211082D01*
X117668917Y-101378105D01*
X117854595Y-101508119D01*
X117898219Y-101562696D01*
X117905412Y-101632195D01*
X117873890Y-101694549D01*
X117854595Y-101711269D01*
X117668594Y-101841508D01*
X117501505Y-102008597D01*
X117365965Y-102202169D01*
X117365964Y-102202171D01*
X117266098Y-102416335D01*
X117266094Y-102416344D01*
X117204938Y-102644586D01*
X117204936Y-102644596D01*
X117184341Y-102879999D01*
X117184341Y-102880000D01*
X117204936Y-103115403D01*
X117204938Y-103115413D01*
X117266094Y-103343655D01*
X117266096Y-103343659D01*
X117266097Y-103343663D01*
X117318554Y-103456157D01*
X117365965Y-103557830D01*
X117365967Y-103557834D01*
X117501501Y-103751395D01*
X117501506Y-103751402D01*
X117668597Y-103918493D01*
X117668603Y-103918498D01*
X117854158Y-104048425D01*
X117897783Y-104103002D01*
X117904977Y-104172500D01*
X117873454Y-104234855D01*
X117854158Y-104251575D01*
X117668597Y-104381505D01*
X117501505Y-104548597D01*
X117365965Y-104742169D01*
X117365964Y-104742171D01*
X117266098Y-104956335D01*
X117266094Y-104956344D01*
X117204938Y-105184586D01*
X117204936Y-105184596D01*
X117184341Y-105419999D01*
X117184341Y-105420000D01*
X113030500Y-105420000D01*
X113030500Y-92725000D01*
X117184341Y-92725000D01*
X117204936Y-92960403D01*
X117204938Y-92960413D01*
X117266094Y-93188655D01*
X117266096Y-93188659D01*
X117266097Y-93188663D01*
X117330598Y-93326986D01*
X117365965Y-93402830D01*
X117365967Y-93402834D01*
X117421495Y-93482135D01*
X117501505Y-93596401D01*
X117668599Y-93763495D01*
X117765384Y-93831265D01*
X117862165Y-93899032D01*
X117862167Y-93899033D01*
X117862170Y-93899035D01*
X118076337Y-93998903D01*
X118304592Y-94060063D01*
X118492918Y-94076539D01*
X118539999Y-94080659D01*
X118540000Y-94080659D01*
X118540001Y-94080659D01*
X118573958Y-94077688D01*
X118731296Y-94063922D01*
X118799795Y-94077688D01*
X118829784Y-94099769D01*
X120461383Y-95731368D01*
X120583632Y-95853617D01*
X120608822Y-95869444D01*
X120617388Y-95874827D01*
X120623058Y-95878849D01*
X120630771Y-95885000D01*
X120654236Y-95903714D01*
X120654239Y-95903715D01*
X120654241Y-95903717D01*
X120690180Y-95921024D01*
X120696231Y-95924368D01*
X120730018Y-95945598D01*
X120767642Y-95958763D01*
X120767654Y-95958767D01*
X120774074Y-95961426D01*
X120810006Y-95978730D01*
X120810007Y-95978730D01*
X120810009Y-95978731D01*
X120817623Y-95980468D01*
X120848895Y-95987606D01*
X120855554Y-95989524D01*
X120893202Y-96002698D01*
X120931664Y-96007031D01*
X120932826Y-96007162D01*
X120939687Y-96008327D01*
X120978557Y-96017200D01*
X129626439Y-96017200D01*
X129626443Y-96017200D01*
X129665318Y-96008326D01*
X129672170Y-96007162D01*
X129711798Y-96002698D01*
X129749454Y-95989521D01*
X129756090Y-95987609D01*
X129788853Y-95980131D01*
X129794991Y-95978731D01*
X129794991Y-95978730D01*
X129794994Y-95978730D01*
X129830933Y-95961421D01*
X129837317Y-95958776D01*
X129874982Y-95945598D01*
X129908754Y-95924376D01*
X129914830Y-95921018D01*
X129950758Y-95903717D01*
X129981947Y-95878843D01*
X129987594Y-95874837D01*
X130021368Y-95853617D01*
X130143617Y-95731368D01*
X131091466Y-94783519D01*
X131152789Y-94750034D01*
X131179147Y-94747200D01*
X131975500Y-94747200D01*
X132042539Y-94766885D01*
X132088294Y-94819689D01*
X132099500Y-94871200D01*
X132099500Y-95747870D01*
X132099501Y-95747876D01*
X132105908Y-95807481D01*
X132118659Y-95841669D01*
X132123642Y-95911361D01*
X132118659Y-95928331D01*
X132105908Y-95962518D01*
X132099501Y-96022116D01*
X132099501Y-96022123D01*
X132099500Y-96022135D01*
X132099500Y-97017870D01*
X132099501Y-97017876D01*
X132105908Y-97077481D01*
X132118659Y-97111669D01*
X132123642Y-97181361D01*
X132118659Y-97198331D01*
X132105908Y-97232518D01*
X132099800Y-97289334D01*
X132099501Y-97292123D01*
X132099500Y-97292135D01*
X132099500Y-98287870D01*
X132099501Y-98287876D01*
X132105908Y-98347481D01*
X132118659Y-98381669D01*
X132123642Y-98451361D01*
X132118659Y-98468331D01*
X132105908Y-98502518D01*
X132103192Y-98527784D01*
X132099501Y-98562123D01*
X132099500Y-98562135D01*
X132099500Y-99557870D01*
X132099501Y-99557876D01*
X132105908Y-99617481D01*
X132118659Y-99651669D01*
X132123642Y-99721361D01*
X132118659Y-99738331D01*
X132105908Y-99772518D01*
X132099501Y-99832116D01*
X132099501Y-99832123D01*
X132099500Y-99832135D01*
X132099500Y-100827870D01*
X132099501Y-100827876D01*
X132105908Y-100887481D01*
X132118659Y-100921669D01*
X132123642Y-100991361D01*
X132118659Y-101008331D01*
X132105908Y-101042518D01*
X132099501Y-101102116D01*
X132099501Y-101102123D01*
X132099500Y-101102135D01*
X132099500Y-102097870D01*
X132099501Y-102097876D01*
X132105908Y-102157483D01*
X132156202Y-102292328D01*
X132156206Y-102292335D01*
X132242452Y-102407544D01*
X132242455Y-102407547D01*
X132357664Y-102493793D01*
X132357671Y-102493797D01*
X132492517Y-102544091D01*
X132492516Y-102544091D01*
X132499444Y-102544835D01*
X132552127Y-102550500D01*
X134147872Y-102550499D01*
X134207483Y-102544091D01*
X134342331Y-102493796D01*
X134457546Y-102407546D01*
X134543796Y-102292331D01*
X134594091Y-102157483D01*
X134600500Y-102097873D01*
X134600499Y-101102128D01*
X134594091Y-101042517D01*
X134581340Y-101008332D01*
X134576357Y-100938642D01*
X134581340Y-100921669D01*
X134594091Y-100887483D01*
X134600500Y-100827873D01*
X134600499Y-99832128D01*
X134594091Y-99772517D01*
X134581340Y-99738332D01*
X134576357Y-99668642D01*
X134581340Y-99651669D01*
X134594091Y-99617483D01*
X134600500Y-99557873D01*
X134600499Y-98562128D01*
X134594091Y-98502517D01*
X134581340Y-98468332D01*
X134576357Y-98398642D01*
X134581340Y-98381669D01*
X134594091Y-98347483D01*
X134600500Y-98287873D01*
X134600499Y-97292128D01*
X134594091Y-97232517D01*
X134581340Y-97198332D01*
X134576357Y-97128642D01*
X134581340Y-97111669D01*
X134594091Y-97077483D01*
X134600500Y-97017873D01*
X134600499Y-96022128D01*
X134594091Y-95962517D01*
X134581340Y-95928332D01*
X134576357Y-95858642D01*
X134581340Y-95841669D01*
X134594091Y-95807483D01*
X134600500Y-95747873D01*
X134600499Y-94752128D01*
X134594091Y-94692517D01*
X134581340Y-94658332D01*
X134576357Y-94588642D01*
X134581340Y-94571669D01*
X134594091Y-94537483D01*
X134600500Y-94477873D01*
X134600499Y-93482128D01*
X134594091Y-93422517D01*
X134581340Y-93388332D01*
X134576357Y-93318642D01*
X134581340Y-93301669D01*
X134594091Y-93267483D01*
X134600500Y-93207873D01*
X134600499Y-92680000D01*
X138820000Y-92680000D01*
X138820000Y-94577844D01*
X138826401Y-94637372D01*
X138826403Y-94637379D01*
X138876645Y-94772086D01*
X138876649Y-94772093D01*
X138962809Y-94887187D01*
X138962812Y-94887190D01*
X139077906Y-94973350D01*
X139077913Y-94973354D01*
X139212620Y-95023596D01*
X139212627Y-95023598D01*
X139272155Y-95029999D01*
X139272172Y-95030000D01*
X141170000Y-95030000D01*
X141670000Y-95030000D01*
X143567828Y-95030000D01*
X143567844Y-95029999D01*
X143627372Y-95023598D01*
X143627379Y-95023596D01*
X143762086Y-94973354D01*
X143762093Y-94973350D01*
X143877187Y-94887190D01*
X143877190Y-94887187D01*
X143963350Y-94772093D01*
X143963354Y-94772086D01*
X144013596Y-94637379D01*
X144013598Y-94637372D01*
X144019999Y-94577844D01*
X144020000Y-94577827D01*
X144020000Y-92680000D01*
X143195000Y-92680000D01*
X143195000Y-93088947D01*
X143210872Y-93104819D01*
X143244357Y-93166142D01*
X143239373Y-93235834D01*
X143210872Y-93280181D01*
X143195000Y-93296052D01*
X143195000Y-94081000D01*
X143175315Y-94148039D01*
X143122511Y-94193794D01*
X143071000Y-94205000D01*
X142286052Y-94205000D01*
X142270181Y-94220872D01*
X142208858Y-94254357D01*
X142139166Y-94249373D01*
X142094819Y-94220872D01*
X142078947Y-94205000D01*
X141670000Y-94205000D01*
X141670000Y-95030000D01*
X141170000Y-95030000D01*
X141170000Y-94205000D01*
X140761052Y-94205000D01*
X140745181Y-94220872D01*
X140683858Y-94254357D01*
X140614166Y-94249373D01*
X140569819Y-94220872D01*
X140553947Y-94205000D01*
X139769000Y-94205000D01*
X139701961Y-94185315D01*
X139656206Y-94132511D01*
X139645000Y-94081000D01*
X139645000Y-93955000D01*
X140502209Y-93955000D01*
X140523014Y-94032645D01*
X140579855Y-94089486D01*
X140637754Y-94105000D01*
X140677246Y-94105000D01*
X140735145Y-94089486D01*
X140791986Y-94032646D01*
X140812791Y-93955000D01*
X142027209Y-93955000D01*
X142048014Y-94032645D01*
X142104855Y-94089486D01*
X142162754Y-94105000D01*
X142202246Y-94105000D01*
X142260145Y-94089486D01*
X142316986Y-94032646D01*
X142337791Y-93955000D01*
X142316986Y-93877355D01*
X142260145Y-93820514D01*
X142202246Y-93805000D01*
X142162754Y-93805000D01*
X142104855Y-93820514D01*
X142048014Y-93877354D01*
X142027209Y-93955000D01*
X140812791Y-93955000D01*
X140791986Y-93877355D01*
X140735145Y-93820514D01*
X140677246Y-93805000D01*
X140637754Y-93805000D01*
X140579855Y-93820514D01*
X140523014Y-93877354D01*
X140502209Y-93955000D01*
X139645000Y-93955000D01*
X139645000Y-93296053D01*
X139629128Y-93280181D01*
X139595643Y-93218858D01*
X139597528Y-93192500D01*
X139739709Y-93192500D01*
X139760514Y-93270145D01*
X139817355Y-93326986D01*
X139875254Y-93342500D01*
X139914746Y-93342500D01*
X139972645Y-93326986D01*
X140029486Y-93270146D01*
X140050291Y-93192500D01*
X140248553Y-93192500D01*
X140657500Y-93601447D01*
X141066447Y-93192500D01*
X141264709Y-93192500D01*
X141285514Y-93270145D01*
X141342355Y-93326986D01*
X141400254Y-93342500D01*
X141439746Y-93342500D01*
X141497645Y-93326986D01*
X141554486Y-93270146D01*
X141575291Y-93192500D01*
X141773553Y-93192500D01*
X142182500Y-93601447D01*
X142591447Y-93192500D01*
X142789709Y-93192500D01*
X142810514Y-93270145D01*
X142867355Y-93326986D01*
X142925254Y-93342500D01*
X142964746Y-93342500D01*
X143022645Y-93326986D01*
X143079486Y-93270146D01*
X143100291Y-93192500D01*
X143079486Y-93114855D01*
X143022645Y-93058014D01*
X142964746Y-93042500D01*
X142925254Y-93042500D01*
X142867355Y-93058014D01*
X142810514Y-93114854D01*
X142789709Y-93192500D01*
X142591447Y-93192500D01*
X142182500Y-92783553D01*
X141773553Y-93192500D01*
X141575291Y-93192500D01*
X141554486Y-93114855D01*
X141497645Y-93058014D01*
X141439746Y-93042500D01*
X141400254Y-93042500D01*
X141342355Y-93058014D01*
X141285514Y-93114854D01*
X141264709Y-93192500D01*
X141066447Y-93192500D01*
X140657500Y-92783553D01*
X140248553Y-93192500D01*
X140050291Y-93192500D01*
X140029486Y-93114855D01*
X139972645Y-93058014D01*
X139914746Y-93042500D01*
X139875254Y-93042500D01*
X139817355Y-93058014D01*
X139760514Y-93114854D01*
X139739709Y-93192500D01*
X139597528Y-93192500D01*
X139600627Y-93149166D01*
X139629128Y-93104819D01*
X139644999Y-93088947D01*
X139645000Y-93088946D01*
X139645000Y-92680000D01*
X138820000Y-92680000D01*
X134600499Y-92680000D01*
X134600499Y-92430000D01*
X140502209Y-92430000D01*
X140523014Y-92507645D01*
X140579855Y-92564486D01*
X140637754Y-92580000D01*
X140677246Y-92580000D01*
X140735145Y-92564486D01*
X140791986Y-92507646D01*
X140812791Y-92430000D01*
X142027209Y-92430000D01*
X142048014Y-92507645D01*
X142104855Y-92564486D01*
X142162754Y-92580000D01*
X142202246Y-92580000D01*
X142260145Y-92564486D01*
X142316986Y-92507646D01*
X142337791Y-92430000D01*
X142316986Y-92352355D01*
X142260145Y-92295514D01*
X142202246Y-92280000D01*
X142162754Y-92280000D01*
X142104855Y-92295514D01*
X142048014Y-92352354D01*
X142027209Y-92430000D01*
X140812791Y-92430000D01*
X140791986Y-92352355D01*
X140735145Y-92295514D01*
X140677246Y-92280000D01*
X140637754Y-92280000D01*
X140579855Y-92295514D01*
X140523014Y-92352354D01*
X140502209Y-92430000D01*
X134600499Y-92430000D01*
X134600499Y-92212128D01*
X134597045Y-92180000D01*
X138820000Y-92180000D01*
X139645000Y-92180000D01*
X139645000Y-91771053D01*
X139629128Y-91755181D01*
X139595643Y-91693858D01*
X139597528Y-91667500D01*
X139739709Y-91667500D01*
X139760514Y-91745145D01*
X139817355Y-91801986D01*
X139875254Y-91817500D01*
X139914746Y-91817500D01*
X139972645Y-91801986D01*
X140029486Y-91745146D01*
X140050291Y-91667500D01*
X140248553Y-91667500D01*
X140657500Y-92076447D01*
X141066447Y-91667500D01*
X141264709Y-91667500D01*
X141285514Y-91745145D01*
X141342355Y-91801986D01*
X141400254Y-91817500D01*
X141439746Y-91817500D01*
X141497645Y-91801986D01*
X141554486Y-91745146D01*
X141575291Y-91667500D01*
X141773553Y-91667500D01*
X142182500Y-92076447D01*
X142591447Y-91667500D01*
X142789709Y-91667500D01*
X142810514Y-91745145D01*
X142867355Y-91801986D01*
X142925254Y-91817500D01*
X142964746Y-91817500D01*
X143022645Y-91801986D01*
X143079486Y-91745146D01*
X143100291Y-91667500D01*
X143079486Y-91589855D01*
X143022645Y-91533014D01*
X142964746Y-91517500D01*
X142925254Y-91517500D01*
X142867355Y-91533014D01*
X142810514Y-91589854D01*
X142789709Y-91667500D01*
X142591447Y-91667500D01*
X142182500Y-91258553D01*
X141773553Y-91667500D01*
X141575291Y-91667500D01*
X141554486Y-91589855D01*
X141497645Y-91533014D01*
X141439746Y-91517500D01*
X141400254Y-91517500D01*
X141342355Y-91533014D01*
X141285514Y-91589854D01*
X141264709Y-91667500D01*
X141066447Y-91667500D01*
X140657500Y-91258553D01*
X140248553Y-91667500D01*
X140050291Y-91667500D01*
X140029486Y-91589855D01*
X139972645Y-91533014D01*
X139914746Y-91517500D01*
X139875254Y-91517500D01*
X139817355Y-91533014D01*
X139760514Y-91589854D01*
X139739709Y-91667500D01*
X139597528Y-91667500D01*
X139600627Y-91624166D01*
X139629128Y-91579819D01*
X139644999Y-91563947D01*
X139645000Y-91563946D01*
X139645000Y-90905000D01*
X140502209Y-90905000D01*
X140523014Y-90982645D01*
X140579855Y-91039486D01*
X140637754Y-91055000D01*
X140677246Y-91055000D01*
X140735145Y-91039486D01*
X140791986Y-90982646D01*
X140812791Y-90905000D01*
X142027209Y-90905000D01*
X142048014Y-90982645D01*
X142104855Y-91039486D01*
X142162754Y-91055000D01*
X142202246Y-91055000D01*
X142260145Y-91039486D01*
X142316986Y-90982646D01*
X142337791Y-90905000D01*
X142316986Y-90827355D01*
X142260145Y-90770514D01*
X142202246Y-90755000D01*
X142162754Y-90755000D01*
X142104855Y-90770514D01*
X142048014Y-90827354D01*
X142027209Y-90905000D01*
X140812791Y-90905000D01*
X140791986Y-90827355D01*
X140735145Y-90770514D01*
X140677246Y-90755000D01*
X140637754Y-90755000D01*
X140579855Y-90770514D01*
X140523014Y-90827354D01*
X140502209Y-90905000D01*
X139645000Y-90905000D01*
X139645000Y-90779000D01*
X139664685Y-90711961D01*
X139717489Y-90666206D01*
X139769000Y-90655000D01*
X140553947Y-90655000D01*
X140553947Y-90654999D01*
X140569819Y-90639128D01*
X140631142Y-90605643D01*
X140700834Y-90610627D01*
X140745181Y-90639128D01*
X140761053Y-90655000D01*
X141170000Y-90655000D01*
X141170000Y-89830000D01*
X141670000Y-89830000D01*
X141670000Y-90655000D01*
X142078947Y-90655000D01*
X142078947Y-90654999D01*
X142094819Y-90639128D01*
X142156142Y-90605643D01*
X142225834Y-90610627D01*
X142270181Y-90639128D01*
X142286053Y-90655000D01*
X143071000Y-90655000D01*
X143138039Y-90674685D01*
X143183794Y-90727489D01*
X143195000Y-90779000D01*
X143195000Y-91563947D01*
X143210872Y-91579819D01*
X143244357Y-91641142D01*
X143239373Y-91710834D01*
X143210872Y-91755181D01*
X143195000Y-91771052D01*
X143195000Y-92180000D01*
X144020000Y-92180000D01*
X144020000Y-90282172D01*
X144019999Y-90282155D01*
X144013598Y-90222627D01*
X144013596Y-90222620D01*
X143963354Y-90087913D01*
X143963350Y-90087906D01*
X143877190Y-89972812D01*
X143877187Y-89972809D01*
X143762093Y-89886649D01*
X143762086Y-89886645D01*
X143627379Y-89836403D01*
X143627372Y-89836401D01*
X143567844Y-89830000D01*
X141670000Y-89830000D01*
X141170000Y-89830000D01*
X139272155Y-89830000D01*
X139212627Y-89836401D01*
X139212620Y-89836403D01*
X139077913Y-89886645D01*
X139077906Y-89886649D01*
X138962812Y-89972809D01*
X138962809Y-89972812D01*
X138876649Y-90087906D01*
X138876645Y-90087913D01*
X138826403Y-90222620D01*
X138826401Y-90222627D01*
X138820000Y-90282155D01*
X138820000Y-92180000D01*
X134597045Y-92180000D01*
X134594091Y-92152517D01*
X134581340Y-92118332D01*
X134576357Y-92048642D01*
X134581338Y-92031672D01*
X134594091Y-91997483D01*
X134600500Y-91937873D01*
X134600499Y-90942128D01*
X134594091Y-90882517D01*
X134581340Y-90848332D01*
X134576357Y-90778642D01*
X134581338Y-90761672D01*
X134594091Y-90727483D01*
X134600500Y-90667873D01*
X134600499Y-89672128D01*
X134594091Y-89612517D01*
X134581340Y-89578332D01*
X134576357Y-89508642D01*
X134581340Y-89491669D01*
X134594091Y-89457483D01*
X134600500Y-89397873D01*
X134600499Y-88402128D01*
X134594091Y-88342517D01*
X134581340Y-88308332D01*
X134576357Y-88238642D01*
X134581338Y-88221672D01*
X134594091Y-88187483D01*
X134600500Y-88127873D01*
X134600499Y-87132128D01*
X134594091Y-87072517D01*
X134581340Y-87038332D01*
X134576357Y-86968642D01*
X134581338Y-86951672D01*
X134594091Y-86917483D01*
X134600500Y-86857873D01*
X134600499Y-85862128D01*
X134594091Y-85802517D01*
X134581073Y-85767616D01*
X134576090Y-85697926D01*
X134581075Y-85680949D01*
X134593597Y-85647375D01*
X134593598Y-85647372D01*
X134599999Y-85587844D01*
X134600000Y-85587827D01*
X134600000Y-85340000D01*
X132100000Y-85340000D01*
X132100000Y-85468800D01*
X132080315Y-85535839D01*
X132027511Y-85581594D01*
X131976000Y-85592800D01*
X129811051Y-85592800D01*
X129772187Y-85601671D01*
X129765330Y-85602836D01*
X129760551Y-85603375D01*
X129725703Y-85607301D01*
X129725702Y-85607301D01*
X129688057Y-85620473D01*
X129681382Y-85622395D01*
X129642506Y-85631270D01*
X129642502Y-85631271D01*
X129606579Y-85648569D01*
X129600155Y-85651231D01*
X129562522Y-85664400D01*
X129562511Y-85664405D01*
X129528750Y-85685618D01*
X129522669Y-85688979D01*
X129515955Y-85692213D01*
X129462139Y-85704500D01*
X129039998Y-85704500D01*
X129039980Y-85704501D01*
X128937203Y-85715000D01*
X128937200Y-85715001D01*
X128813397Y-85756026D01*
X128770666Y-85770186D01*
X128770664Y-85770186D01*
X128770661Y-85770188D01*
X128750532Y-85782603D01*
X128683139Y-85801042D01*
X128669710Y-85800061D01*
X127598791Y-85663121D01*
X127541634Y-85640441D01*
X127452734Y-85575851D01*
X127452729Y-85575848D01*
X127279807Y-85498857D01*
X127279802Y-85498855D01*
X127126186Y-85466204D01*
X127094646Y-85459500D01*
X126905354Y-85459500D01*
X126873814Y-85466204D01*
X126720197Y-85498855D01*
X126720192Y-85498857D01*
X126547271Y-85575848D01*
X126418898Y-85669116D01*
X126378402Y-85687183D01*
X126378630Y-85687871D01*
X126205668Y-85745185D01*
X126205663Y-85745187D01*
X126056342Y-85837289D01*
X125932289Y-85961342D01*
X125840187Y-86110663D01*
X125840186Y-86110666D01*
X125785001Y-86277203D01*
X125785001Y-86277204D01*
X125785000Y-86277204D01*
X125774500Y-86379983D01*
X125774500Y-86980001D01*
X125774501Y-86980019D01*
X125785000Y-87082796D01*
X125785001Y-87082799D01*
X125840185Y-87249331D01*
X125840187Y-87249336D01*
X125847823Y-87261716D01*
X125932288Y-87398656D01*
X126056344Y-87522712D01*
X126059628Y-87524737D01*
X126059653Y-87524753D01*
X126061445Y-87526746D01*
X126062011Y-87527193D01*
X126061934Y-87527289D01*
X126106379Y-87576699D01*
X126117603Y-87645661D01*
X126089761Y-87709744D01*
X126059665Y-87735826D01*
X126056660Y-87737679D01*
X126056655Y-87737683D01*
X125932684Y-87861654D01*
X125840643Y-88010875D01*
X125840641Y-88010880D01*
X125785494Y-88177302D01*
X125785493Y-88177309D01*
X125775000Y-88280013D01*
X125775000Y-88330000D01*
X127126000Y-88330000D01*
X127193039Y-88349685D01*
X127238794Y-88402489D01*
X127250000Y-88454000D01*
X127250000Y-89579999D01*
X127524972Y-89579999D01*
X127524986Y-89579998D01*
X127627697Y-89569505D01*
X127794119Y-89514358D01*
X127794124Y-89514356D01*
X127943345Y-89422315D01*
X128067315Y-89298345D01*
X128159356Y-89149124D01*
X128159358Y-89149118D01*
X128168671Y-89121013D01*
X128208441Y-89063567D01*
X128272956Y-89036742D01*
X128341733Y-89049054D01*
X128392934Y-89096595D01*
X128404082Y-89121002D01*
X128405185Y-89124330D01*
X128405187Y-89124336D01*
X128497289Y-89273657D01*
X128621344Y-89397712D01*
X128713896Y-89454798D01*
X128760621Y-89506746D01*
X128772800Y-89560337D01*
X128772800Y-89800852D01*
X128753115Y-89867891D01*
X128736481Y-89888533D01*
X128521833Y-90103181D01*
X128460510Y-90136666D01*
X128434152Y-90139500D01*
X127842129Y-90139500D01*
X127842123Y-90139501D01*
X127782516Y-90145908D01*
X127647671Y-90196202D01*
X127647664Y-90196206D01*
X127532455Y-90282452D01*
X127532452Y-90282455D01*
X127446206Y-90397664D01*
X127446202Y-90397671D01*
X127395908Y-90532517D01*
X127389501Y-90592116D01*
X127389500Y-90592135D01*
X127389500Y-92287870D01*
X127389501Y-92287876D01*
X127395908Y-92347483D01*
X127446202Y-92482328D01*
X127446206Y-92482335D01*
X127532452Y-92597544D01*
X127532455Y-92597547D01*
X127647664Y-92683793D01*
X127647671Y-92683797D01*
X127782517Y-92734091D01*
X127782516Y-92734091D01*
X127789444Y-92734835D01*
X127842127Y-92740500D01*
X128697872Y-92740499D01*
X128757483Y-92734091D01*
X128892331Y-92683796D01*
X129007546Y-92597546D01*
X129093796Y-92482331D01*
X129144091Y-92347483D01*
X129150500Y-92287873D01*
X129150499Y-91695845D01*
X129170183Y-91628807D01*
X129186813Y-91608170D01*
X130112961Y-90682024D01*
X130143617Y-90651368D01*
X130164837Y-90617594D01*
X130168843Y-90611947D01*
X130193717Y-90580758D01*
X130211018Y-90544830D01*
X130214378Y-90538752D01*
X130218296Y-90532517D01*
X130235598Y-90504982D01*
X130248776Y-90467317D01*
X130251421Y-90460933D01*
X130268730Y-90424994D01*
X130277609Y-90386090D01*
X130279521Y-90379454D01*
X130292698Y-90341798D01*
X130297162Y-90302170D01*
X130298326Y-90295318D01*
X130307200Y-90256443D01*
X130307200Y-90083557D01*
X130307200Y-89560337D01*
X130326885Y-89493298D01*
X130366104Y-89454798D01*
X130458656Y-89397712D01*
X130582712Y-89273656D01*
X130674814Y-89124334D01*
X130729999Y-88957797D01*
X130740500Y-88855009D01*
X130740499Y-88521199D01*
X130760183Y-88454161D01*
X130812987Y-88408406D01*
X130864499Y-88397200D01*
X131975500Y-88397200D01*
X132042539Y-88416885D01*
X132088294Y-88469689D01*
X132099500Y-88521200D01*
X132099500Y-89397870D01*
X132099501Y-89397876D01*
X132105908Y-89457481D01*
X132118659Y-89491669D01*
X132123642Y-89561361D01*
X132118659Y-89578331D01*
X132105908Y-89612518D01*
X132099996Y-89667516D01*
X132099501Y-89672123D01*
X132099500Y-89672135D01*
X132099500Y-90550049D01*
X132079815Y-90617088D01*
X132027011Y-90662843D01*
X132000129Y-90670295D01*
X132000347Y-90671250D01*
X131954687Y-90681671D01*
X131947830Y-90682836D01*
X131943051Y-90683375D01*
X131908203Y-90687301D01*
X131908202Y-90687301D01*
X131870557Y-90700473D01*
X131863882Y-90702395D01*
X131825006Y-90711270D01*
X131825002Y-90711271D01*
X131789079Y-90728569D01*
X131782655Y-90731231D01*
X131745022Y-90744400D01*
X131745011Y-90744405D01*
X131711245Y-90765621D01*
X131705158Y-90768985D01*
X131669240Y-90786283D01*
X131669239Y-90786283D01*
X131638063Y-90811146D01*
X131632390Y-90815171D01*
X131598630Y-90836384D01*
X131598629Y-90836385D01*
X129258534Y-93176481D01*
X129197211Y-93209966D01*
X129170853Y-93212800D01*
X124814147Y-93212800D01*
X124747108Y-93193115D01*
X124726466Y-93176481D01*
X124564769Y-93014784D01*
X124531284Y-92953461D01*
X124528922Y-92916295D01*
X124531427Y-92887671D01*
X124545659Y-92725000D01*
X124525063Y-92489592D01*
X124463903Y-92261337D01*
X124364035Y-92047171D01*
X124361548Y-92043618D01*
X124228494Y-91853597D01*
X124061402Y-91686506D01*
X124061396Y-91686501D01*
X123875842Y-91556575D01*
X123832217Y-91501998D01*
X123825023Y-91432500D01*
X123856546Y-91370145D01*
X123875842Y-91353425D01*
X124021057Y-91251744D01*
X124061401Y-91223495D01*
X124228495Y-91056401D01*
X124364035Y-90862830D01*
X124463903Y-90648663D01*
X124525063Y-90420408D01*
X124545659Y-90185000D01*
X124525063Y-89949592D01*
X124463903Y-89721337D01*
X124364035Y-89507171D01*
X124363737Y-89506746D01*
X124228496Y-89313600D01*
X124188552Y-89273656D01*
X124106179Y-89191283D01*
X124072696Y-89129963D01*
X124077680Y-89060271D01*
X124119551Y-89004337D01*
X124150529Y-88987422D01*
X124282086Y-88938354D01*
X124282093Y-88938350D01*
X124397187Y-88852190D01*
X124397190Y-88852187D01*
X124413799Y-88830000D01*
X125775001Y-88830000D01*
X125775001Y-88879986D01*
X125785494Y-88982697D01*
X125840641Y-89149119D01*
X125840643Y-89149124D01*
X125932684Y-89298345D01*
X126056654Y-89422315D01*
X126205875Y-89514356D01*
X126205880Y-89514358D01*
X126372302Y-89569505D01*
X126372309Y-89569506D01*
X126475019Y-89579999D01*
X126749999Y-89579999D01*
X126750000Y-89579998D01*
X126750000Y-88830000D01*
X125775001Y-88830000D01*
X124413799Y-88830000D01*
X124483350Y-88737093D01*
X124483354Y-88737086D01*
X124533596Y-88602379D01*
X124533598Y-88602372D01*
X124539999Y-88542844D01*
X124540000Y-88542827D01*
X124540000Y-87895000D01*
X123623686Y-87895000D01*
X123649493Y-87854844D01*
X123690000Y-87716889D01*
X123690000Y-87573111D01*
X123649493Y-87435156D01*
X123623686Y-87395000D01*
X124540000Y-87395000D01*
X124540000Y-86747172D01*
X124539999Y-86747155D01*
X124533598Y-86687627D01*
X124533596Y-86687620D01*
X124483354Y-86552913D01*
X124483350Y-86552906D01*
X124397190Y-86437812D01*
X124397187Y-86437809D01*
X124282093Y-86351649D01*
X124282086Y-86351645D01*
X124147379Y-86301403D01*
X124147372Y-86301401D01*
X124087844Y-86295000D01*
X123440000Y-86295000D01*
X123440000Y-87209498D01*
X123332315Y-87160320D01*
X123225763Y-87145000D01*
X123154237Y-87145000D01*
X123047685Y-87160320D01*
X122940000Y-87209498D01*
X122940000Y-86295000D01*
X122292155Y-86295000D01*
X122232627Y-86301401D01*
X122232620Y-86301403D01*
X122097913Y-86351645D01*
X122097906Y-86351649D01*
X121982812Y-86437809D01*
X121982809Y-86437812D01*
X121896649Y-86552906D01*
X121896645Y-86552913D01*
X121846403Y-86687620D01*
X121846401Y-86687627D01*
X121840000Y-86747155D01*
X121840000Y-87395000D01*
X122756314Y-87395000D01*
X122730507Y-87435156D01*
X122690000Y-87573111D01*
X122690000Y-87716889D01*
X122730507Y-87854844D01*
X122756314Y-87895000D01*
X121840000Y-87895000D01*
X121840000Y-88542844D01*
X121846401Y-88602372D01*
X121846403Y-88602379D01*
X121896645Y-88737086D01*
X121896649Y-88737093D01*
X121982809Y-88852187D01*
X121982812Y-88852190D01*
X122097906Y-88938350D01*
X122097913Y-88938354D01*
X122229470Y-88987421D01*
X122285403Y-89029292D01*
X122309821Y-89094756D01*
X122294970Y-89163029D01*
X122273819Y-89191284D01*
X122151504Y-89313599D01*
X122128918Y-89345855D01*
X122115567Y-89364923D01*
X122060992Y-89408548D01*
X122013993Y-89417800D01*
X119716007Y-89417800D01*
X119648968Y-89398115D01*
X119614432Y-89364923D01*
X119578495Y-89313599D01*
X119456179Y-89191283D01*
X119422696Y-89129963D01*
X119427680Y-89060271D01*
X119469551Y-89004337D01*
X119500529Y-88987422D01*
X119632086Y-88938354D01*
X119632093Y-88938350D01*
X119747187Y-88852190D01*
X119747190Y-88852187D01*
X119833350Y-88737093D01*
X119833354Y-88737086D01*
X119883596Y-88602379D01*
X119883598Y-88602372D01*
X119889999Y-88542844D01*
X119890000Y-88542827D01*
X119890000Y-87895000D01*
X118973686Y-87895000D01*
X118999493Y-87854844D01*
X119040000Y-87716889D01*
X119040000Y-87573111D01*
X118999493Y-87435156D01*
X118973686Y-87395000D01*
X119890000Y-87395000D01*
X119890000Y-86747172D01*
X119889999Y-86747155D01*
X119883598Y-86687627D01*
X119883596Y-86687620D01*
X119833354Y-86552913D01*
X119833350Y-86552906D01*
X119747190Y-86437812D01*
X119747187Y-86437809D01*
X119632093Y-86351649D01*
X119632086Y-86351645D01*
X119497379Y-86301403D01*
X119497372Y-86301401D01*
X119437844Y-86295000D01*
X118790000Y-86295000D01*
X118790000Y-87209498D01*
X118682315Y-87160320D01*
X118575763Y-87145000D01*
X118504237Y-87145000D01*
X118397685Y-87160320D01*
X118290000Y-87209498D01*
X118290000Y-86295000D01*
X117642155Y-86295000D01*
X117582627Y-86301401D01*
X117582620Y-86301403D01*
X117447913Y-86351645D01*
X117447906Y-86351649D01*
X117332812Y-86437809D01*
X117332809Y-86437812D01*
X117246649Y-86552906D01*
X117246645Y-86552913D01*
X117196403Y-86687620D01*
X117196401Y-86687627D01*
X117190000Y-86747155D01*
X117190000Y-87395000D01*
X118106314Y-87395000D01*
X118080507Y-87435156D01*
X118040000Y-87573111D01*
X118040000Y-87716889D01*
X118080507Y-87854844D01*
X118106314Y-87895000D01*
X117190000Y-87895000D01*
X117190000Y-88542844D01*
X117196401Y-88602372D01*
X117196403Y-88602379D01*
X117246645Y-88737086D01*
X117246649Y-88737093D01*
X117332809Y-88852187D01*
X117332812Y-88852190D01*
X117447906Y-88938350D01*
X117447913Y-88938354D01*
X117579470Y-88987421D01*
X117635403Y-89029292D01*
X117659821Y-89094756D01*
X117644970Y-89163029D01*
X117623819Y-89191284D01*
X117501503Y-89313600D01*
X117365965Y-89507169D01*
X117365964Y-89507171D01*
X117266098Y-89721335D01*
X117266094Y-89721344D01*
X117204938Y-89949586D01*
X117204936Y-89949596D01*
X117184341Y-90184999D01*
X117184341Y-90185000D01*
X117204936Y-90420403D01*
X117204938Y-90420413D01*
X117266094Y-90648655D01*
X117266096Y-90648659D01*
X117266097Y-90648663D01*
X117359205Y-90848334D01*
X117365965Y-90862830D01*
X117365967Y-90862834D01*
X117501501Y-91056395D01*
X117501506Y-91056402D01*
X117668597Y-91223493D01*
X117668603Y-91223498D01*
X117854158Y-91353425D01*
X117897783Y-91408002D01*
X117904977Y-91477500D01*
X117873454Y-91539855D01*
X117854158Y-91556575D01*
X117668597Y-91686505D01*
X117501505Y-91853597D01*
X117365965Y-92047169D01*
X117365964Y-92047171D01*
X117266098Y-92261335D01*
X117266094Y-92261344D01*
X117204938Y-92489586D01*
X117204936Y-92489596D01*
X117184341Y-92724999D01*
X117184341Y-92725000D01*
X113030500Y-92725000D01*
X113030500Y-85214000D01*
X113050185Y-85146961D01*
X113102989Y-85101206D01*
X113154500Y-85090000D01*
X120650000Y-85090000D01*
X120650000Y-84840000D01*
X132100000Y-84840000D01*
X133100000Y-84840000D01*
X133100000Y-84140000D01*
X133600000Y-84140000D01*
X133600000Y-84840000D01*
X134600000Y-84840000D01*
X149600000Y-84840000D01*
X150600000Y-84840000D01*
X150600000Y-84140000D01*
X151100000Y-84140000D01*
X151100000Y-84840000D01*
X152100000Y-84840000D01*
X152100000Y-84592172D01*
X152099999Y-84592155D01*
X152093598Y-84532627D01*
X152093596Y-84532620D01*
X152043354Y-84397913D01*
X152043350Y-84397906D01*
X151957190Y-84282812D01*
X151957187Y-84282809D01*
X151842093Y-84196649D01*
X151842086Y-84196645D01*
X151707379Y-84146403D01*
X151707372Y-84146401D01*
X151647844Y-84140000D01*
X151100000Y-84140000D01*
X150600000Y-84140000D01*
X150052155Y-84140000D01*
X149992627Y-84146401D01*
X149992620Y-84146403D01*
X149857913Y-84196645D01*
X149857906Y-84196649D01*
X149742812Y-84282809D01*
X149742809Y-84282812D01*
X149656649Y-84397906D01*
X149656645Y-84397913D01*
X149606403Y-84532620D01*
X149606401Y-84532627D01*
X149600000Y-84592155D01*
X149600000Y-84840000D01*
X134600000Y-84840000D01*
X134600000Y-84592172D01*
X134599999Y-84592155D01*
X134593598Y-84532627D01*
X134593596Y-84532620D01*
X134543354Y-84397913D01*
X134543350Y-84397906D01*
X134457190Y-84282812D01*
X134457187Y-84282809D01*
X134342093Y-84196649D01*
X134342086Y-84196645D01*
X134207379Y-84146403D01*
X134207372Y-84146401D01*
X134147844Y-84140000D01*
X133600000Y-84140000D01*
X133100000Y-84140000D01*
X132552155Y-84140000D01*
X132492627Y-84146401D01*
X132492620Y-84146403D01*
X132357913Y-84196645D01*
X132357906Y-84196649D01*
X132242812Y-84282809D01*
X132242809Y-84282812D01*
X132156649Y-84397906D01*
X132156645Y-84397913D01*
X132106403Y-84532620D01*
X132106401Y-84532627D01*
X132100000Y-84592155D01*
X132100000Y-84840000D01*
X120650000Y-84840000D01*
X120650000Y-83664000D01*
X120669685Y-83596961D01*
X120722489Y-83551206D01*
X120774000Y-83540000D01*
X158626000Y-83540000D01*
X158693039Y-83559685D01*
G37*
%TD.AperFunction*%
%TA.AperFunction,Conductor*%
G36*
X149942540Y-110666885D02*
G01*
X149988295Y-110719689D01*
X149999501Y-110771200D01*
X149999501Y-110927876D01*
X150005908Y-110987483D01*
X150056202Y-111122328D01*
X150056206Y-111122335D01*
X150142452Y-111237544D01*
X150142455Y-111237547D01*
X150257664Y-111323793D01*
X150257671Y-111323797D01*
X150392517Y-111374091D01*
X150392516Y-111374091D01*
X150399444Y-111374835D01*
X150452127Y-111380500D01*
X151508800Y-111380499D01*
X151575839Y-111400183D01*
X151621594Y-111452987D01*
X151632800Y-111504499D01*
X151632800Y-114566461D01*
X151613115Y-114633500D01*
X151560311Y-114679255D01*
X151549674Y-114682901D01*
X151549785Y-114683198D01*
X151407671Y-114736202D01*
X151407669Y-114736204D01*
X151323894Y-114798918D01*
X151258430Y-114823335D01*
X151190157Y-114808484D01*
X151175272Y-114798918D01*
X151092088Y-114736646D01*
X151092086Y-114736645D01*
X150957379Y-114686403D01*
X150957372Y-114686401D01*
X150897844Y-114680000D01*
X150350000Y-114680000D01*
X150350000Y-117680000D01*
X150897828Y-117680000D01*
X150897844Y-117679999D01*
X150957372Y-117673598D01*
X150957379Y-117673596D01*
X151092086Y-117623354D01*
X151092089Y-117623352D01*
X151175271Y-117561082D01*
X151240735Y-117536664D01*
X151309008Y-117551515D01*
X151323887Y-117561077D01*
X151407076Y-117623352D01*
X151407668Y-117623795D01*
X151407671Y-117623797D01*
X151542517Y-117674091D01*
X151542516Y-117674091D01*
X151549444Y-117674835D01*
X151602127Y-117680500D01*
X153197872Y-117680499D01*
X153257483Y-117674091D01*
X153392331Y-117623796D01*
X153475689Y-117561393D01*
X153541153Y-117536977D01*
X153609426Y-117551828D01*
X153624311Y-117561394D01*
X153680922Y-117603773D01*
X153722793Y-117659707D01*
X153727777Y-117729399D01*
X153694292Y-117790721D01*
X152908534Y-118576481D01*
X152847211Y-118609966D01*
X152820853Y-118612800D01*
X148959146Y-118612800D01*
X148892107Y-118593115D01*
X148871465Y-118576481D01*
X147803519Y-117508534D01*
X147770034Y-117447211D01*
X147767200Y-117420853D01*
X147767200Y-116640530D01*
X147786885Y-116573491D01*
X147803519Y-116552849D01*
X147842712Y-116513656D01*
X147894311Y-116430000D01*
X148850000Y-116430000D01*
X148850000Y-117227844D01*
X148856401Y-117287372D01*
X148856403Y-117287379D01*
X148906645Y-117422086D01*
X148906649Y-117422093D01*
X148992809Y-117537187D01*
X148992812Y-117537190D01*
X149107906Y-117623350D01*
X149107913Y-117623354D01*
X149242620Y-117673596D01*
X149242627Y-117673598D01*
X149302155Y-117679999D01*
X149302172Y-117680000D01*
X149850000Y-117680000D01*
X149850000Y-116430000D01*
X148850000Y-116430000D01*
X147894311Y-116430000D01*
X147934814Y-116364334D01*
X147989999Y-116197797D01*
X148000500Y-116095009D01*
X148000500Y-115930000D01*
X148850000Y-115930000D01*
X149850000Y-115930000D01*
X149850000Y-114680000D01*
X149302155Y-114680000D01*
X149242627Y-114686401D01*
X149242620Y-114686403D01*
X149107913Y-114736645D01*
X149107906Y-114736649D01*
X148992812Y-114822809D01*
X148992809Y-114822812D01*
X148906649Y-114937906D01*
X148906645Y-114937913D01*
X148856403Y-115072620D01*
X148856401Y-115072627D01*
X148850000Y-115132155D01*
X148850000Y-115930000D01*
X148000500Y-115930000D01*
X148000499Y-115044992D01*
X147989999Y-114942203D01*
X147934814Y-114775666D01*
X147842712Y-114626344D01*
X147718656Y-114502288D01*
X147569334Y-114410186D01*
X147569332Y-114410185D01*
X147563187Y-114406395D01*
X147564615Y-114404079D01*
X147521608Y-114366216D01*
X147502452Y-114299024D01*
X147522663Y-114232142D01*
X147564562Y-114195835D01*
X147563187Y-114193605D01*
X147569332Y-114189814D01*
X147569334Y-114189814D01*
X147718656Y-114097712D01*
X147842712Y-113973656D01*
X147934814Y-113824334D01*
X147989999Y-113657797D01*
X148000500Y-113555009D01*
X148000499Y-112504992D01*
X147989999Y-112402203D01*
X147989997Y-112402195D01*
X147957504Y-112304141D01*
X147955101Y-112234313D01*
X147987526Y-112177457D01*
X149481466Y-110683519D01*
X149542789Y-110650034D01*
X149569147Y-110647200D01*
X149875501Y-110647200D01*
X149942540Y-110666885D01*
G37*
%TD.AperFunction*%
%TA.AperFunction,Conductor*%
G36*
X166312539Y-85109685D02*
G01*
X166358294Y-85162489D01*
X166369500Y-85214000D01*
X166369500Y-112906000D01*
X166349815Y-112973039D01*
X166297011Y-113018794D01*
X166245500Y-113030000D01*
X158864347Y-113030000D01*
X158797308Y-113010315D01*
X158751553Y-112957511D01*
X158741609Y-112888353D01*
X158770634Y-112824797D01*
X158776666Y-112818319D01*
X160301466Y-111293519D01*
X160362789Y-111260034D01*
X160389147Y-111257200D01*
X161243428Y-111257200D01*
X161250368Y-111257589D01*
X161276045Y-111260482D01*
X161289998Y-111262055D01*
X161290000Y-111262055D01*
X161290004Y-111262055D01*
X161388170Y-111250993D01*
X161461798Y-111242698D01*
X161624982Y-111185598D01*
X161771368Y-111093617D01*
X161893617Y-110971368D01*
X161985598Y-110824982D01*
X162042698Y-110661798D01*
X162057200Y-110533089D01*
X162062055Y-110490000D01*
X162057589Y-110450366D01*
X162057200Y-110443428D01*
X162057200Y-110074499D01*
X162076885Y-110007460D01*
X162129689Y-109961705D01*
X162181200Y-109950499D01*
X162837871Y-109950499D01*
X162837872Y-109950499D01*
X162897483Y-109944091D01*
X163032331Y-109893796D01*
X163147546Y-109807546D01*
X163233796Y-109692331D01*
X163284091Y-109557483D01*
X163290500Y-109497873D01*
X163290499Y-106402128D01*
X163284091Y-106342517D01*
X163265026Y-106291402D01*
X163233797Y-106207671D01*
X163233793Y-106207664D01*
X163147547Y-106092455D01*
X163147544Y-106092452D01*
X163032335Y-106006206D01*
X163032328Y-106006202D01*
X162897482Y-105955908D01*
X162897483Y-105955908D01*
X162837883Y-105949501D01*
X162837881Y-105949500D01*
X162837873Y-105949500D01*
X162837864Y-105949500D01*
X159742129Y-105949500D01*
X159742123Y-105949501D01*
X159682516Y-105955908D01*
X159547671Y-106006202D01*
X159547664Y-106006206D01*
X159432455Y-106092452D01*
X159432452Y-106092455D01*
X159346206Y-106207664D01*
X159346202Y-106207671D01*
X159295908Y-106342517D01*
X159289501Y-106402116D01*
X159289501Y-106402123D01*
X159289500Y-106402135D01*
X159289500Y-109497870D01*
X159289501Y-109497876D01*
X159295908Y-109557483D01*
X159346202Y-109692328D01*
X159346206Y-109692335D01*
X159432452Y-109807544D01*
X159437280Y-109812372D01*
X159470765Y-109873695D01*
X159465781Y-109943387D01*
X159437280Y-109987734D01*
X156998632Y-112426383D01*
X156876385Y-112548629D01*
X156876382Y-112548633D01*
X156855166Y-112582397D01*
X156851141Y-112588070D01*
X156826281Y-112619244D01*
X156808982Y-112655163D01*
X156805619Y-112661250D01*
X156784401Y-112695018D01*
X156771229Y-112732659D01*
X156768568Y-112739084D01*
X156751271Y-112775004D01*
X156751269Y-112775008D01*
X156742398Y-112813875D01*
X156740473Y-112820557D01*
X156727301Y-112858202D01*
X156727301Y-112858203D01*
X156722837Y-112897828D01*
X156721671Y-112904687D01*
X156712800Y-112943551D01*
X156712800Y-113930853D01*
X156693115Y-113997892D01*
X156676481Y-114018534D01*
X155920703Y-114774311D01*
X155859380Y-114807796D01*
X155789688Y-114802812D01*
X155758713Y-114785897D01*
X155692331Y-114736204D01*
X155692328Y-114736202D01*
X155557482Y-114685908D01*
X155557483Y-114685908D01*
X155497883Y-114679501D01*
X155497881Y-114679500D01*
X155497873Y-114679500D01*
X155497864Y-114679500D01*
X153902129Y-114679500D01*
X153902123Y-114679501D01*
X153842516Y-114685908D01*
X153707671Y-114736202D01*
X153707669Y-114736203D01*
X153624311Y-114798606D01*
X153558847Y-114823023D01*
X153490574Y-114808172D01*
X153475689Y-114798606D01*
X153392330Y-114736203D01*
X153392328Y-114736202D01*
X153250215Y-114683198D01*
X153251186Y-114680592D01*
X153201962Y-114652558D01*
X153169581Y-114590645D01*
X153167200Y-114566461D01*
X153167200Y-111504499D01*
X153186885Y-111437460D01*
X153239689Y-111391705D01*
X153291200Y-111380499D01*
X154347871Y-111380499D01*
X154347872Y-111380499D01*
X154407483Y-111374091D01*
X154542331Y-111323796D01*
X154657546Y-111237546D01*
X154743796Y-111122331D01*
X154794091Y-110987483D01*
X154800500Y-110927873D01*
X154800499Y-108832128D01*
X154794091Y-108772517D01*
X154789420Y-108759994D01*
X154743797Y-108637671D01*
X154743793Y-108637664D01*
X154657547Y-108522455D01*
X154657544Y-108522452D01*
X154542335Y-108436206D01*
X154542328Y-108436202D01*
X154407482Y-108385908D01*
X154407483Y-108385908D01*
X154347883Y-108379501D01*
X154347881Y-108379500D01*
X154347873Y-108379500D01*
X154347865Y-108379500D01*
X154022526Y-108379500D01*
X153972088Y-108368778D01*
X153949806Y-108358857D01*
X153949802Y-108358855D01*
X153804001Y-108327865D01*
X153764646Y-108319500D01*
X153575354Y-108319500D01*
X153535999Y-108327865D01*
X153390198Y-108358855D01*
X153390193Y-108358857D01*
X153367906Y-108368780D01*
X153317472Y-108379500D01*
X152035847Y-108379500D01*
X151968808Y-108359815D01*
X151948166Y-108343181D01*
X151697165Y-108092180D01*
X151663680Y-108030857D01*
X151668664Y-107961165D01*
X151710536Y-107905232D01*
X151776000Y-107880815D01*
X151784820Y-107880499D01*
X152355008Y-107880499D01*
X152355016Y-107880498D01*
X152355019Y-107880498D01*
X152411302Y-107874748D01*
X152457797Y-107869999D01*
X152624334Y-107814814D01*
X152773656Y-107722712D01*
X152897712Y-107598656D01*
X152989814Y-107449334D01*
X153044999Y-107282797D01*
X153055500Y-107180009D01*
X153055500Y-106930000D01*
X154060000Y-106930000D01*
X154060000Y-107527844D01*
X154066401Y-107587372D01*
X154066403Y-107587379D01*
X154116645Y-107722086D01*
X154116649Y-107722093D01*
X154202809Y-107837187D01*
X154202812Y-107837190D01*
X154317906Y-107923350D01*
X154317913Y-107923354D01*
X154452620Y-107973596D01*
X154452627Y-107973598D01*
X154512155Y-107979999D01*
X154512172Y-107980000D01*
X154690000Y-107980000D01*
X154690000Y-106930000D01*
X155190000Y-106930000D01*
X155190000Y-107980000D01*
X155367828Y-107980000D01*
X155367844Y-107979999D01*
X155427372Y-107973598D01*
X155427379Y-107973596D01*
X155562086Y-107923354D01*
X155562093Y-107923350D01*
X155677187Y-107837190D01*
X155677190Y-107837187D01*
X155763350Y-107722093D01*
X155763354Y-107722086D01*
X155813596Y-107587379D01*
X155813598Y-107587372D01*
X155819999Y-107527844D01*
X155820000Y-107527827D01*
X155820000Y-106930000D01*
X155190000Y-106930000D01*
X154690000Y-106930000D01*
X154060000Y-106930000D01*
X153055500Y-106930000D01*
X153055499Y-106430000D01*
X154060000Y-106430000D01*
X154690000Y-106430000D01*
X154690000Y-105380000D01*
X155190000Y-105380000D01*
X155190000Y-106430000D01*
X155820000Y-106430000D01*
X155820000Y-105832172D01*
X155819999Y-105832155D01*
X155813598Y-105772627D01*
X155813596Y-105772620D01*
X155763354Y-105637913D01*
X155763350Y-105637906D01*
X155677190Y-105522812D01*
X155677187Y-105522809D01*
X155562093Y-105436649D01*
X155562086Y-105436645D01*
X155427379Y-105386403D01*
X155427372Y-105386401D01*
X155367844Y-105380000D01*
X155190000Y-105380000D01*
X154690000Y-105380000D01*
X154512155Y-105380000D01*
X154452627Y-105386401D01*
X154452620Y-105386403D01*
X154317913Y-105436645D01*
X154317906Y-105436649D01*
X154202812Y-105522809D01*
X154202809Y-105522812D01*
X154116649Y-105637906D01*
X154116645Y-105637913D01*
X154066403Y-105772620D01*
X154066401Y-105772627D01*
X154060000Y-105832155D01*
X154060000Y-106430000D01*
X153055499Y-106430000D01*
X153055499Y-106179992D01*
X153054902Y-106174152D01*
X153044999Y-106077203D01*
X153044998Y-106077200D01*
X153021472Y-106006204D01*
X152989814Y-105910666D01*
X152897712Y-105761344D01*
X152846019Y-105709651D01*
X152812534Y-105648328D01*
X152809700Y-105621970D01*
X152809700Y-104966057D01*
X152800828Y-104927188D01*
X152799662Y-104920326D01*
X152799547Y-104919308D01*
X152795198Y-104880702D01*
X152782024Y-104843054D01*
X152780103Y-104836383D01*
X152771230Y-104797506D01*
X152753927Y-104761578D01*
X152751268Y-104755158D01*
X152738098Y-104717518D01*
X152716882Y-104683754D01*
X152713516Y-104677663D01*
X152696218Y-104641742D01*
X152696217Y-104641741D01*
X152671359Y-104610570D01*
X152667332Y-104604895D01*
X152646117Y-104571132D01*
X151653519Y-103578534D01*
X151620034Y-103517211D01*
X151617200Y-103490853D01*
X151617200Y-102870001D01*
X159284891Y-102870001D01*
X159305300Y-103155362D01*
X159366109Y-103434895D01*
X159466091Y-103702958D01*
X159603191Y-103954038D01*
X159603196Y-103954046D01*
X159709882Y-104096561D01*
X159709883Y-104096562D01*
X160605195Y-103201250D01*
X160627340Y-103252587D01*
X160733433Y-103395094D01*
X160869530Y-103509294D01*
X160959216Y-103554335D01*
X160063436Y-104450115D01*
X160205960Y-104556807D01*
X160205961Y-104556808D01*
X160457042Y-104693908D01*
X160457041Y-104693908D01*
X160725104Y-104793890D01*
X161004637Y-104854699D01*
X161289999Y-104875109D01*
X161290001Y-104875109D01*
X161575362Y-104854699D01*
X161854895Y-104793890D01*
X162122958Y-104693908D01*
X162374047Y-104556803D01*
X162516561Y-104450116D01*
X162516562Y-104450115D01*
X161623748Y-103557300D01*
X161633409Y-103553784D01*
X161781844Y-103456157D01*
X161903764Y-103326930D01*
X161975768Y-103202215D01*
X162870115Y-104096562D01*
X162870116Y-104096561D01*
X162976803Y-103954047D01*
X163113908Y-103702958D01*
X163213890Y-103434895D01*
X163274699Y-103155362D01*
X163295109Y-102870001D01*
X163295109Y-102869998D01*
X163274699Y-102584637D01*
X163213890Y-102305104D01*
X163113908Y-102037041D01*
X162976808Y-101785961D01*
X162976807Y-101785960D01*
X162870115Y-101643436D01*
X161974803Y-102538747D01*
X161952660Y-102487413D01*
X161846567Y-102344906D01*
X161710470Y-102230706D01*
X161620782Y-102185663D01*
X162516562Y-101289883D01*
X162516561Y-101289882D01*
X162374046Y-101183196D01*
X162374038Y-101183191D01*
X162122957Y-101046091D01*
X162122958Y-101046091D01*
X161854895Y-100946109D01*
X161575362Y-100885300D01*
X161290001Y-100864891D01*
X161289999Y-100864891D01*
X161004637Y-100885300D01*
X160725104Y-100946109D01*
X160457041Y-101046091D01*
X160205961Y-101183191D01*
X160205953Y-101183196D01*
X160063437Y-101289882D01*
X160063436Y-101289883D01*
X160956252Y-102182699D01*
X160946591Y-102186216D01*
X160798156Y-102283843D01*
X160676236Y-102413070D01*
X160604231Y-102537784D01*
X159709883Y-101643436D01*
X159709882Y-101643437D01*
X159603196Y-101785953D01*
X159603191Y-101785961D01*
X159466091Y-102037041D01*
X159366109Y-102305104D01*
X159305300Y-102584637D01*
X159284891Y-102869998D01*
X159284891Y-102870001D01*
X151617200Y-102870001D01*
X151617200Y-102663538D01*
X151636885Y-102596499D01*
X151689689Y-102550744D01*
X151700326Y-102547099D01*
X151700215Y-102546802D01*
X151842328Y-102493797D01*
X151842327Y-102493797D01*
X151842331Y-102493796D01*
X151957546Y-102407546D01*
X151957548Y-102407542D01*
X151961573Y-102403519D01*
X152022896Y-102370034D01*
X152049254Y-102367200D01*
X153756439Y-102367200D01*
X153756443Y-102367200D01*
X153795318Y-102358326D01*
X153802170Y-102357162D01*
X153841798Y-102352698D01*
X153879454Y-102339521D01*
X153886090Y-102337609D01*
X153918853Y-102330131D01*
X153924991Y-102328731D01*
X153924991Y-102328730D01*
X153924994Y-102328730D01*
X153960933Y-102311421D01*
X153967317Y-102308776D01*
X154004982Y-102295598D01*
X154038754Y-102274376D01*
X154044830Y-102271018D01*
X154080758Y-102253717D01*
X154111947Y-102228843D01*
X154117594Y-102224837D01*
X154151368Y-102203617D01*
X154273617Y-102081368D01*
X155512961Y-100842024D01*
X155543617Y-100811368D01*
X155564837Y-100777594D01*
X155568843Y-100771947D01*
X155593717Y-100740758D01*
X155611018Y-100704830D01*
X155614378Y-100698752D01*
X155614672Y-100698284D01*
X155635598Y-100664982D01*
X155648776Y-100627317D01*
X155651421Y-100620933D01*
X155668730Y-100584994D01*
X155677609Y-100546090D01*
X155679521Y-100539454D01*
X155692698Y-100501798D01*
X155697162Y-100462170D01*
X155698326Y-100455318D01*
X155707200Y-100416443D01*
X155707200Y-100243557D01*
X155707200Y-100219204D01*
X155726885Y-100152165D01*
X155731925Y-100144903D01*
X155763796Y-100102331D01*
X155814091Y-99967483D01*
X155820500Y-99907873D01*
X155820499Y-98212128D01*
X155814091Y-98152517D01*
X155763884Y-98017906D01*
X155763797Y-98017671D01*
X155763795Y-98017668D01*
X155689789Y-97918808D01*
X155665372Y-97853347D01*
X155680223Y-97785073D01*
X155729628Y-97735668D01*
X155789053Y-97720499D01*
X156165008Y-97720499D01*
X156165016Y-97720498D01*
X156165019Y-97720498D01*
X156221302Y-97714748D01*
X156267797Y-97709999D01*
X156434334Y-97654814D01*
X156583656Y-97562712D01*
X156707712Y-97438656D01*
X156764798Y-97346103D01*
X156816746Y-97299379D01*
X156870337Y-97287200D01*
X162646439Y-97287200D01*
X162646443Y-97287200D01*
X162685318Y-97278326D01*
X162692170Y-97277162D01*
X162731798Y-97272698D01*
X162769454Y-97259521D01*
X162776090Y-97257609D01*
X162808853Y-97250131D01*
X162814991Y-97248731D01*
X162814991Y-97248730D01*
X162814994Y-97248730D01*
X162850933Y-97231421D01*
X162857317Y-97228776D01*
X162894982Y-97215598D01*
X162928754Y-97194376D01*
X162934830Y-97191018D01*
X162970758Y-97173717D01*
X163001947Y-97148843D01*
X163007594Y-97144837D01*
X163041368Y-97123617D01*
X163163617Y-97001368D01*
X164402961Y-95762024D01*
X164433617Y-95731368D01*
X164454837Y-95697594D01*
X164458843Y-95691947D01*
X164483717Y-95660758D01*
X164501018Y-95624830D01*
X164504378Y-95618752D01*
X164525598Y-95584982D01*
X164538776Y-95547317D01*
X164541421Y-95540933D01*
X164558730Y-95504994D01*
X164567609Y-95466090D01*
X164569521Y-95459454D01*
X164582698Y-95421798D01*
X164582698Y-95421797D01*
X164585000Y-95415220D01*
X164587571Y-95416120D01*
X164615618Y-95365950D01*
X164677271Y-95333077D01*
X164702423Y-95330499D01*
X164727871Y-95330499D01*
X164727872Y-95330499D01*
X164787483Y-95324091D01*
X164922331Y-95273796D01*
X165037546Y-95187546D01*
X165123796Y-95072331D01*
X165174091Y-94937483D01*
X165180500Y-94877873D01*
X165180499Y-93082128D01*
X165174091Y-93022517D01*
X165168526Y-93007597D01*
X165123797Y-92887671D01*
X165123793Y-92887664D01*
X165037547Y-92772455D01*
X165037544Y-92772452D01*
X164922335Y-92686206D01*
X164922328Y-92686202D01*
X164790917Y-92637189D01*
X164734983Y-92595318D01*
X164710566Y-92529853D01*
X164725418Y-92461580D01*
X164746563Y-92433332D01*
X164868495Y-92311401D01*
X165004035Y-92117830D01*
X165103903Y-91903663D01*
X165165063Y-91675408D01*
X165185659Y-91440000D01*
X165182859Y-91408002D01*
X165166717Y-91223495D01*
X165165063Y-91204592D01*
X165108679Y-90994161D01*
X165103905Y-90976344D01*
X165103904Y-90976343D01*
X165103903Y-90976337D01*
X165004035Y-90762171D01*
X165003682Y-90761666D01*
X164868494Y-90568597D01*
X164701402Y-90401506D01*
X164701396Y-90401501D01*
X164515842Y-90271575D01*
X164472217Y-90216998D01*
X164465023Y-90147500D01*
X164496546Y-90085145D01*
X164515842Y-90068425D01*
X164652391Y-89972812D01*
X164701401Y-89938495D01*
X164868495Y-89771401D01*
X165004035Y-89577830D01*
X165103903Y-89363663D01*
X165165063Y-89135408D01*
X165185659Y-88900000D01*
X165165063Y-88664592D01*
X165103903Y-88436337D01*
X165004035Y-88222171D01*
X165003682Y-88221666D01*
X164868494Y-88028597D01*
X164701402Y-87861506D01*
X164701401Y-87861505D01*
X164519335Y-87734021D01*
X164515405Y-87731269D01*
X164471781Y-87676692D01*
X164464588Y-87607193D01*
X164496110Y-87544839D01*
X164515405Y-87528119D01*
X164701082Y-87398105D01*
X164868105Y-87231082D01*
X165003600Y-87037578D01*
X165103429Y-86823492D01*
X165103432Y-86823486D01*
X165160636Y-86610000D01*
X164263686Y-86610000D01*
X164289493Y-86569844D01*
X164330000Y-86431889D01*
X164330000Y-86288111D01*
X164289493Y-86150156D01*
X164263686Y-86110000D01*
X165160636Y-86110000D01*
X165160635Y-86109999D01*
X165103432Y-85896513D01*
X165103429Y-85896507D01*
X165003600Y-85682422D01*
X165003599Y-85682420D01*
X164868113Y-85488926D01*
X164868108Y-85488920D01*
X164701079Y-85321891D01*
X164692056Y-85315573D01*
X164648433Y-85260996D01*
X164641241Y-85191497D01*
X164672765Y-85129143D01*
X164732995Y-85093730D01*
X164763182Y-85090000D01*
X166245500Y-85090000D01*
X166312539Y-85109685D01*
G37*
%TD.AperFunction*%
%TA.AperFunction,Conductor*%
G36*
X153076702Y-97306885D02*
G01*
X153115202Y-97346104D01*
X153170380Y-97435564D01*
X153172288Y-97438656D01*
X153296344Y-97562712D01*
X153445666Y-97654814D01*
X153612203Y-97709999D01*
X153714991Y-97720500D01*
X154090944Y-97720499D01*
X154157982Y-97740183D01*
X154203737Y-97792987D01*
X154213681Y-97862146D01*
X154190210Y-97918810D01*
X154116203Y-98017669D01*
X154116202Y-98017671D01*
X154065908Y-98152517D01*
X154059501Y-98212116D01*
X154059501Y-98212123D01*
X154059500Y-98212135D01*
X154059500Y-99907870D01*
X154059501Y-99907876D01*
X154065909Y-99967484D01*
X154079249Y-100003252D01*
X154084233Y-100072944D01*
X154050748Y-100134265D01*
X153388534Y-100796481D01*
X153327211Y-100829966D01*
X153300853Y-100832800D01*
X152224500Y-100832800D01*
X152157461Y-100813115D01*
X152111706Y-100760311D01*
X152100500Y-100708800D01*
X152100499Y-99832129D01*
X152100498Y-99832123D01*
X152100497Y-99832116D01*
X152094091Y-99772517D01*
X152081340Y-99738332D01*
X152076357Y-99668642D01*
X152081340Y-99651669D01*
X152094091Y-99617483D01*
X152100500Y-99557873D01*
X152100499Y-98562128D01*
X152094091Y-98502517D01*
X152081340Y-98468332D01*
X152076357Y-98398642D01*
X152081340Y-98381669D01*
X152094091Y-98347483D01*
X152100500Y-98287873D01*
X152100499Y-97411199D01*
X152120183Y-97344161D01*
X152172987Y-97298406D01*
X152224499Y-97287200D01*
X153009663Y-97287200D01*
X153076702Y-97306885D01*
G37*
%TD.AperFunction*%
%TA.AperFunction,Conductor*%
G36*
X155907892Y-90956885D02*
G01*
X155928534Y-90973519D01*
X156876383Y-91921368D01*
X156998632Y-92043617D01*
X157023164Y-92059031D01*
X157032391Y-92064829D01*
X157038066Y-92068855D01*
X157069242Y-92093717D01*
X157105165Y-92111016D01*
X157111251Y-92114381D01*
X157145013Y-92135595D01*
X157145018Y-92135598D01*
X157182664Y-92148770D01*
X157189077Y-92151427D01*
X157225006Y-92168730D01*
X157263883Y-92177603D01*
X157270554Y-92179524D01*
X157308202Y-92192698D01*
X157346808Y-92197047D01*
X157347826Y-92197162D01*
X157354687Y-92198327D01*
X157393557Y-92207200D01*
X157436911Y-92207200D01*
X162653993Y-92207200D01*
X162721032Y-92226885D01*
X162755567Y-92260076D01*
X162775030Y-92287872D01*
X162791500Y-92311395D01*
X162791505Y-92311401D01*
X162913431Y-92433327D01*
X162946915Y-92494648D01*
X162941931Y-92564340D01*
X162900060Y-92620274D01*
X162869083Y-92637189D01*
X162737669Y-92686203D01*
X162737664Y-92686206D01*
X162622455Y-92772452D01*
X162622452Y-92772455D01*
X162536206Y-92887664D01*
X162536202Y-92887671D01*
X162485908Y-93022517D01*
X162480680Y-93071153D01*
X162479501Y-93082123D01*
X162479500Y-93082135D01*
X162479500Y-94877870D01*
X162479501Y-94877876D01*
X162485908Y-94937483D01*
X162536202Y-95072328D01*
X162536206Y-95072335D01*
X162622452Y-95187544D01*
X162627280Y-95192372D01*
X162660765Y-95253695D01*
X162655781Y-95323387D01*
X162627280Y-95367734D01*
X162278534Y-95716481D01*
X162217211Y-95749966D01*
X162190853Y-95752800D01*
X156870337Y-95752800D01*
X156803298Y-95733115D01*
X156764798Y-95693896D01*
X156707712Y-95601344D01*
X156583657Y-95477289D01*
X156583656Y-95477288D01*
X156434334Y-95385186D01*
X156267797Y-95330001D01*
X156267795Y-95330000D01*
X156165010Y-95319500D01*
X155539998Y-95319500D01*
X155539980Y-95319501D01*
X155437203Y-95330000D01*
X155437200Y-95330001D01*
X155270668Y-95385185D01*
X155270663Y-95385187D01*
X155121342Y-95477289D01*
X155027681Y-95570951D01*
X154966358Y-95604436D01*
X154896666Y-95599452D01*
X154852319Y-95570951D01*
X154758657Y-95477289D01*
X154758656Y-95477288D01*
X154609334Y-95385186D01*
X154442797Y-95330001D01*
X154442795Y-95330000D01*
X154340010Y-95319500D01*
X153714998Y-95319500D01*
X153714980Y-95319501D01*
X153612203Y-95330000D01*
X153612200Y-95330001D01*
X153445668Y-95385185D01*
X153445663Y-95385187D01*
X153296342Y-95477289D01*
X153172287Y-95601344D01*
X153115202Y-95693896D01*
X153063254Y-95740621D01*
X153009663Y-95752800D01*
X152224500Y-95752800D01*
X152157461Y-95733115D01*
X152111706Y-95680311D01*
X152100500Y-95628800D01*
X152100499Y-94752129D01*
X152100498Y-94752123D01*
X152100497Y-94752116D01*
X152094091Y-94692517D01*
X152081340Y-94658332D01*
X152076357Y-94588642D01*
X152081340Y-94571669D01*
X152094091Y-94537483D01*
X152100500Y-94477873D01*
X152100499Y-93482128D01*
X152094091Y-93422517D01*
X152081340Y-93388332D01*
X152076357Y-93318642D01*
X152081340Y-93301669D01*
X152094091Y-93267483D01*
X152100500Y-93207873D01*
X152100499Y-92212128D01*
X152094091Y-92152517D01*
X152081340Y-92118332D01*
X152076357Y-92048642D01*
X152081338Y-92031672D01*
X152094091Y-91997483D01*
X152100500Y-91937873D01*
X152100499Y-91061199D01*
X152120183Y-90994161D01*
X152172987Y-90948406D01*
X152224499Y-90937200D01*
X155840853Y-90937200D01*
X155907892Y-90956885D01*
G37*
%TD.AperFunction*%
%TA.AperFunction,Conductor*%
G36*
X162721032Y-89686885D02*
G01*
X162755567Y-89720076D01*
X162756455Y-89721344D01*
X162791507Y-89771404D01*
X162958597Y-89938493D01*
X162958603Y-89938498D01*
X163144158Y-90068425D01*
X163187783Y-90123002D01*
X163194977Y-90192500D01*
X163163454Y-90254855D01*
X163144158Y-90271575D01*
X162958597Y-90401505D01*
X162791507Y-90568595D01*
X162775025Y-90592135D01*
X162755567Y-90619923D01*
X162700992Y-90663548D01*
X162653993Y-90672800D01*
X157849147Y-90672800D01*
X157782108Y-90653115D01*
X157761466Y-90636481D01*
X157003866Y-89878881D01*
X156970381Y-89817558D01*
X156975365Y-89747866D01*
X157017237Y-89691933D01*
X157082701Y-89667516D01*
X157091547Y-89667200D01*
X162653993Y-89667200D01*
X162721032Y-89686885D01*
G37*
%TD.AperFunction*%
%TD*%
M02*
