%TF.GenerationSoftware,KiCad,Pcbnew,7.0.9*%
%TF.CreationDate,2024-03-19T08:45:44+01:00*%
%TF.ProjectId,soil_moister_air,736f696c-5f6d-46f6-9973-7465725f6169,rev?*%
%TF.SameCoordinates,Original*%
%TF.FileFunction,Soldermask,Top*%
%TF.FilePolarity,Negative*%
%FSLAX46Y46*%
G04 Gerber Fmt 4.6, Leading zero omitted, Abs format (unit mm)*
G04 Created by KiCad (PCBNEW 7.0.9) date 2024-03-19 08:45:44*
%MOMM*%
%LPD*%
G01*
G04 APERTURE LIST*
G04 Aperture macros list*
%AMRoundRect*
0 Rectangle with rounded corners*
0 $1 Rounding radius*
0 $2 $3 $4 $5 $6 $7 $8 $9 X,Y pos of 4 corners*
0 Add a 4 corners polygon primitive as box body*
4,1,4,$2,$3,$4,$5,$6,$7,$8,$9,$2,$3,0*
0 Add four circle primitives for the rounded corners*
1,1,$1+$1,$2,$3*
1,1,$1+$1,$4,$5*
1,1,$1+$1,$6,$7*
1,1,$1+$1,$8,$9*
0 Add four rect primitives between the rounded corners*
20,1,$1+$1,$2,$3,$4,$5,0*
20,1,$1+$1,$4,$5,$6,$7,0*
20,1,$1+$1,$6,$7,$8,$9,0*
20,1,$1+$1,$8,$9,$2,$3,0*%
G04 Aperture macros list end*
%ADD10RoundRect,0.250000X0.262500X0.450000X-0.262500X0.450000X-0.262500X-0.450000X0.262500X-0.450000X0*%
%ADD11R,1.500000X2.000000*%
%ADD12R,3.800000X2.000000*%
%ADD13R,0.760000X1.600000*%
%ADD14RoundRect,0.243750X-0.243750X-0.456250X0.243750X-0.456250X0.243750X0.456250X-0.243750X0.456250X0*%
%ADD15RoundRect,0.250000X0.250000X0.475000X-0.250000X0.475000X-0.250000X-0.475000X0.250000X-0.475000X0*%
%ADD16RoundRect,0.250000X0.450000X-0.262500X0.450000X0.262500X-0.450000X0.262500X-0.450000X-0.262500X0*%
%ADD17R,1.700000X1.700000*%
%ADD18O,1.700000X1.700000*%
%ADD19R,3.000000X3.000000*%
%ADD20C,3.000000*%
%ADD21C,2.200000*%
%ADD22RoundRect,0.250000X-0.450000X0.262500X-0.450000X-0.262500X0.450000X-0.262500X0.450000X0.262500X0*%
%ADD23RoundRect,0.250000X-0.262500X-0.450000X0.262500X-0.450000X0.262500X0.450000X-0.262500X0.450000X0*%
%ADD24R,1.500000X0.900000*%
%ADD25R,0.900000X1.500000*%
%ADD26C,0.600000*%
%ADD27R,1.050000X1.050000*%
%ADD28R,4.200000X4.200000*%
%ADD29RoundRect,0.250000X0.475000X-0.250000X0.475000X0.250000X-0.475000X0.250000X-0.475000X-0.250000X0*%
G04 APERTURE END LIST*
D10*
%TO.C,R1*%
X152042500Y-106680000D03*
X150217500Y-106680000D03*
%TD*%
D11*
%TO.C,U2*%
X150100000Y-116180000D03*
X152400000Y-116180000D03*
D12*
X152400000Y-109880000D03*
D11*
X154700000Y-116180000D03*
%TD*%
D13*
%TO.C,SW1*%
X128270000Y-91440000D03*
X128270000Y-99060000D03*
%TD*%
D14*
%TO.C,D1*%
X132055000Y-106680000D03*
X133930000Y-106680000D03*
%TD*%
D15*
%TO.C,C2*%
X147000000Y-115570000D03*
X145100000Y-115570000D03*
%TD*%
D16*
%TO.C,R3*%
X154940000Y-88542500D03*
X154940000Y-86717500D03*
%TD*%
D17*
%TO.C,J4*%
X123190000Y-87645000D03*
D18*
X123190000Y-90185000D03*
X123190000Y-92725000D03*
%TD*%
D19*
%TO.C,J5*%
X161290000Y-107950000D03*
D20*
X161290000Y-102870000D03*
%TD*%
D13*
%TO.C,SW2*%
X154940000Y-99060000D03*
X154940000Y-106680000D03*
%TD*%
D15*
%TO.C,C3*%
X147000000Y-113030000D03*
X145100000Y-113030000D03*
%TD*%
D21*
%TO.C,REF\u002A\u002A*%
X162560000Y-116840000D03*
%TD*%
D22*
%TO.C,R2*%
X129540000Y-86717500D03*
X129540000Y-88542500D03*
%TD*%
D21*
%TO.C,REF\u002A\u002A*%
X116840000Y-116840000D03*
%TD*%
D23*
%TO.C,R4*%
X154027500Y-96520000D03*
X155852500Y-96520000D03*
%TD*%
D24*
%TO.C,U1*%
X133350000Y-85090000D03*
X133350000Y-86360000D03*
X133350000Y-87630000D03*
X133350000Y-88900000D03*
X133350000Y-90170000D03*
X133350000Y-91440000D03*
X133350000Y-92710000D03*
X133350000Y-93980000D03*
X133350000Y-95250000D03*
X133350000Y-96520000D03*
X133350000Y-97790000D03*
X133350000Y-99060000D03*
X133350000Y-100330000D03*
X133350000Y-101600000D03*
D25*
X136390000Y-102850000D03*
X137660000Y-102850000D03*
X138930000Y-102850000D03*
X140200000Y-102850000D03*
X141470000Y-102850000D03*
X142740000Y-102850000D03*
X144010000Y-102850000D03*
X145280000Y-102850000D03*
X146550000Y-102850000D03*
X147820000Y-102850000D03*
D24*
X150850000Y-101600000D03*
X150850000Y-100330000D03*
X150850000Y-99060000D03*
X150850000Y-97790000D03*
X150850000Y-96520000D03*
X150850000Y-95250000D03*
X150850000Y-93980000D03*
X150850000Y-92710000D03*
X150850000Y-91440000D03*
X150850000Y-90170000D03*
X150850000Y-88900000D03*
X150850000Y-87630000D03*
X150850000Y-86360000D03*
X150850000Y-85090000D03*
D26*
X139895000Y-91667500D03*
X139895000Y-93192500D03*
X140657500Y-90905000D03*
X140657500Y-92430000D03*
X140657500Y-93955000D03*
D27*
X141420000Y-90905000D03*
D26*
X141420000Y-91667500D03*
D28*
X141420000Y-92430000D03*
D26*
X141420000Y-93192500D03*
X142182500Y-90905000D03*
X142182500Y-92430000D03*
X142182500Y-93955000D03*
X142945000Y-91667500D03*
X142945000Y-93192500D03*
%TD*%
D14*
%TO.C,D2*%
X146050000Y-106680000D03*
X147925000Y-106680000D03*
%TD*%
D21*
%TO.C,REF\u002A\u002A*%
X162560000Y-81280000D03*
%TD*%
D17*
%TO.C,J1*%
X118540000Y-97800000D03*
D18*
X118540000Y-100340000D03*
X118540000Y-102880000D03*
X118540000Y-105420000D03*
%TD*%
D23*
%TO.C,R5*%
X140995000Y-106680000D03*
X142820000Y-106680000D03*
%TD*%
D17*
%TO.C,J2*%
X123190000Y-97800000D03*
D18*
X123190000Y-100340000D03*
X123190000Y-102880000D03*
X123190000Y-105420000D03*
%TD*%
D23*
%TO.C,R6*%
X135890000Y-106680000D03*
X137715000Y-106680000D03*
%TD*%
D17*
%TO.C,J6*%
X163830000Y-93980000D03*
D18*
X163830000Y-91440000D03*
X163830000Y-88900000D03*
X163830000Y-86360000D03*
%TD*%
D29*
%TO.C,C1*%
X127000000Y-88580000D03*
X127000000Y-86680000D03*
%TD*%
D21*
%TO.C,REF\u002A\u002A*%
X116840000Y-81280000D03*
%TD*%
D17*
%TO.C,J3*%
X118540000Y-87645000D03*
D18*
X118540000Y-90185000D03*
X118540000Y-92725000D03*
%TD*%
M02*
