%TF.GenerationSoftware,KiCad,Pcbnew,7.0.9*%
%TF.CreationDate,2024-03-19T08:45:44+01:00*%
%TF.ProjectId,soil_moister_air,736f696c-5f6d-46f6-9973-7465725f6169,rev?*%
%TF.SameCoordinates,Original*%
%TF.FileFunction,Copper,L2,Bot*%
%TF.FilePolarity,Positive*%
%FSLAX46Y46*%
G04 Gerber Fmt 4.6, Leading zero omitted, Abs format (unit mm)*
G04 Created by KiCad (PCBNEW 7.0.9) date 2024-03-19 08:45:44*
%MOMM*%
%LPD*%
G01*
G04 APERTURE LIST*
%TA.AperFunction,ComponentPad*%
%ADD10R,1.700000X1.700000*%
%TD*%
%TA.AperFunction,ComponentPad*%
%ADD11O,1.700000X1.700000*%
%TD*%
%TA.AperFunction,ComponentPad*%
%ADD12R,3.000000X3.000000*%
%TD*%
%TA.AperFunction,ComponentPad*%
%ADD13C,3.000000*%
%TD*%
%TA.AperFunction,HeatsinkPad*%
%ADD14C,0.600000*%
%TD*%
%TA.AperFunction,ViaPad*%
%ADD15C,0.800000*%
%TD*%
%TA.AperFunction,Conductor*%
%ADD16C,0.533400*%
%TD*%
G04 APERTURE END LIST*
D10*
%TO.P,J4,1,Pin_1*%
%TO.N,GND*%
X123190000Y-87645000D03*
D11*
%TO.P,J4,2,Pin_2*%
%TO.N,+3V3*%
X123190000Y-90185000D03*
%TO.P,J4,3,Pin_3*%
%TO.N,GPIO34*%
X123190000Y-92725000D03*
%TD*%
D12*
%TO.P,J5,1,Pin_1*%
%TO.N,+5V*%
X161290000Y-107950000D03*
D13*
%TO.P,J5,2,Pin_2*%
%TO.N,GND*%
X161290000Y-102870000D03*
%TD*%
D14*
%TO.P,U1,39,GND*%
%TO.N,GND*%
X139895000Y-91667500D03*
X139895000Y-93192500D03*
X140657500Y-90905000D03*
X140657500Y-92430000D03*
X140657500Y-93955000D03*
X141420000Y-91667500D03*
X141420000Y-93192500D03*
X142182500Y-90905000D03*
X142182500Y-92430000D03*
X142182500Y-93955000D03*
X142945000Y-91667500D03*
X142945000Y-93192500D03*
%TD*%
D10*
%TO.P,J1,1,Pin_1*%
%TO.N,+3V3*%
X118540000Y-97800000D03*
D11*
%TO.P,J1,2,Pin_2*%
%TO.N,GND*%
X118540000Y-100340000D03*
%TO.P,J1,3,Pin_3*%
%TO.N,SCL2*%
X118540000Y-102880000D03*
%TO.P,J1,4,Pin_4*%
%TO.N,SDA2*%
X118540000Y-105420000D03*
%TD*%
D10*
%TO.P,J2,1,Pin_1*%
%TO.N,+3V3*%
X123190000Y-97800000D03*
D11*
%TO.P,J2,2,Pin_2*%
%TO.N,GND*%
X123190000Y-100340000D03*
%TO.P,J2,3,Pin_3*%
%TO.N,SCL1*%
X123190000Y-102880000D03*
%TO.P,J2,4,Pin_4*%
%TO.N,SDA1*%
X123190000Y-105420000D03*
%TD*%
D10*
%TO.P,J6,1,Pin_1*%
%TO.N,+3V3*%
X163830000Y-93980000D03*
D11*
%TO.P,J6,2,Pin_2*%
%TO.N,RX0*%
X163830000Y-91440000D03*
%TO.P,J6,3,Pin_3*%
%TO.N,TX0*%
X163830000Y-88900000D03*
%TO.P,J6,4,Pin_4*%
%TO.N,GND*%
X163830000Y-86360000D03*
%TD*%
D10*
%TO.P,J3,1,Pin_1*%
%TO.N,GND*%
X118540000Y-87645000D03*
D11*
%TO.P,J3,2,Pin_2*%
%TO.N,+3V3*%
X118540000Y-90185000D03*
%TO.P,J3,3,Pin_3*%
%TO.N,GPIO32*%
X118540000Y-92725000D03*
%TD*%
D15*
%TO.N,GND*%
X149860000Y-113030000D03*
X125730000Y-85090000D03*
X130810000Y-118110000D03*
X161290000Y-111760000D03*
X157480000Y-118110000D03*
%TO.N,+3V3*%
X153670000Y-109220000D03*
X127000000Y-86360000D03*
X154940000Y-86360000D03*
X156210000Y-96520000D03*
%TO.N,SCL2*%
X147320000Y-99060000D03*
%TO.N,SDA2*%
X138430000Y-100330000D03*
%TO.N,GND*%
X142240000Y-100330000D03*
X123190000Y-115570000D03*
X137160000Y-95250000D03*
X120650000Y-92710000D03*
X137160000Y-90170000D03*
X160020000Y-99060000D03*
X140970000Y-113030000D03*
X115570000Y-95250000D03*
X144780000Y-90170000D03*
X138430000Y-116840000D03*
X152400000Y-99060000D03*
X157480000Y-85090000D03*
X116840000Y-111760000D03*
X158750000Y-93980000D03*
X129540000Y-102870000D03*
X153670000Y-93980000D03*
X152400000Y-104140000D03*
X148590000Y-95250000D03*
X144780000Y-99060000D03*
X158750000Y-90170000D03*
%TO.N,SCL1*%
X147320000Y-87630000D03*
%TO.N,SDA1*%
X147320000Y-91440000D03*
%TD*%
D16*
%TO.N,+3V3*%
X124445000Y-90185000D02*
X123190000Y-90185000D01*
X124450000Y-97800000D02*
X123190000Y-97800000D01*
X127000000Y-87630000D02*
X124445000Y-90185000D01*
X153670000Y-91440000D02*
X153670000Y-87630000D01*
X127725000Y-85635000D02*
X154215000Y-85635000D01*
X127000000Y-86360000D02*
X127000000Y-87630000D01*
X153670000Y-87630000D02*
X154940000Y-86360000D01*
X125730000Y-96520000D02*
X125730000Y-92725000D01*
X127000000Y-86360000D02*
X127725000Y-85635000D01*
X125730000Y-92725000D02*
X123190000Y-90185000D01*
X125730000Y-96520000D02*
X124450000Y-97800000D01*
X154215000Y-85635000D02*
X154940000Y-86360000D01*
X153670000Y-109220000D02*
X156210000Y-106680000D01*
X156210000Y-93980000D02*
X153670000Y-91440000D01*
X156210000Y-96520000D02*
X156210000Y-93980000D01*
X156210000Y-106680000D02*
X156210000Y-96520000D01*
%TO.N,SCL2*%
X115570000Y-106680000D02*
X119380000Y-110490000D01*
X115570000Y-102870000D02*
X115570000Y-106680000D01*
X147320000Y-104140000D02*
X147320000Y-99060000D01*
X115580000Y-102880000D02*
X115570000Y-102870000D01*
X118540000Y-102880000D02*
X115580000Y-102880000D01*
X119380000Y-110490000D02*
X140970000Y-110490000D01*
X140970000Y-110490000D02*
X147320000Y-104140000D01*
%TO.N,SDA2*%
X119380000Y-107950000D02*
X134620000Y-107950000D01*
X134620000Y-107950000D02*
X137160000Y-105410000D01*
X118540000Y-105420000D02*
X118540000Y-107110000D01*
X137160000Y-101600000D02*
X138430000Y-100330000D01*
X137160000Y-105410000D02*
X137160000Y-101600000D01*
X118540000Y-107110000D02*
X119380000Y-107950000D01*
%TO.N,SCL1*%
X135255000Y-88265000D02*
X135255000Y-93345000D01*
X123190000Y-102880000D02*
X125720000Y-102880000D01*
X147320000Y-87630000D02*
X135890000Y-87630000D01*
X125720000Y-102880000D02*
X135255000Y-93345000D01*
X135890000Y-87630000D02*
X135255000Y-88265000D01*
%TO.N,SDA1*%
X129530000Y-105420000D02*
X137160000Y-97790000D01*
X147320000Y-92710000D02*
X147320000Y-91440000D01*
X123190000Y-105420000D02*
X129530000Y-105420000D01*
X137160000Y-97790000D02*
X142240000Y-97790000D01*
X142240000Y-97790000D02*
X147320000Y-92710000D01*
%TD*%
%TA.AperFunction,Conductor*%
%TO.N,GND*%
G36*
X158693039Y-83559685D02*
G01*
X158738794Y-83612489D01*
X158750000Y-83664000D01*
X158750000Y-85090000D01*
X162896817Y-85090000D01*
X162963856Y-85109685D01*
X163009611Y-85162489D01*
X163019555Y-85231647D01*
X162990530Y-85295203D01*
X162967941Y-85315574D01*
X162958929Y-85321884D01*
X162958920Y-85321891D01*
X162791891Y-85488920D01*
X162791886Y-85488926D01*
X162656400Y-85682420D01*
X162656399Y-85682422D01*
X162556570Y-85896507D01*
X162556567Y-85896513D01*
X162499364Y-86109999D01*
X162499364Y-86110000D01*
X163396314Y-86110000D01*
X163370507Y-86150156D01*
X163330000Y-86288111D01*
X163330000Y-86431889D01*
X163370507Y-86569844D01*
X163396314Y-86610000D01*
X162499364Y-86610000D01*
X162556567Y-86823486D01*
X162556570Y-86823492D01*
X162656399Y-87037578D01*
X162791894Y-87231082D01*
X162958917Y-87398105D01*
X163144595Y-87528119D01*
X163188219Y-87582696D01*
X163195412Y-87652195D01*
X163163890Y-87714549D01*
X163144595Y-87731269D01*
X162958594Y-87861508D01*
X162791505Y-88028597D01*
X162655965Y-88222169D01*
X162655964Y-88222171D01*
X162556098Y-88436335D01*
X162556094Y-88436344D01*
X162494938Y-88664586D01*
X162494936Y-88664596D01*
X162474341Y-88899999D01*
X162474341Y-88900000D01*
X162494936Y-89135403D01*
X162494938Y-89135413D01*
X162556094Y-89363655D01*
X162556096Y-89363659D01*
X162556097Y-89363663D01*
X162623015Y-89507169D01*
X162655965Y-89577830D01*
X162655967Y-89577834D01*
X162791501Y-89771395D01*
X162791506Y-89771402D01*
X162958597Y-89938493D01*
X162958603Y-89938498D01*
X163144158Y-90068425D01*
X163187783Y-90123002D01*
X163194977Y-90192500D01*
X163163454Y-90254855D01*
X163144158Y-90271575D01*
X162958597Y-90401505D01*
X162791505Y-90568597D01*
X162655965Y-90762169D01*
X162655964Y-90762171D01*
X162556098Y-90976335D01*
X162556094Y-90976344D01*
X162494938Y-91204586D01*
X162494936Y-91204596D01*
X162474341Y-91439999D01*
X162474341Y-91440000D01*
X162494936Y-91675403D01*
X162494938Y-91675413D01*
X162556094Y-91903655D01*
X162556096Y-91903659D01*
X162556097Y-91903663D01*
X162608853Y-92016798D01*
X162655965Y-92117830D01*
X162655967Y-92117834D01*
X162744054Y-92243634D01*
X162791501Y-92311396D01*
X162791506Y-92311402D01*
X162913430Y-92433326D01*
X162946915Y-92494649D01*
X162941931Y-92564341D01*
X162900059Y-92620274D01*
X162869083Y-92637189D01*
X162737669Y-92686203D01*
X162737664Y-92686206D01*
X162622455Y-92772452D01*
X162622452Y-92772455D01*
X162536206Y-92887664D01*
X162536202Y-92887671D01*
X162485908Y-93022517D01*
X162479863Y-93078752D01*
X162479501Y-93082123D01*
X162479500Y-93082135D01*
X162479500Y-94877870D01*
X162479501Y-94877876D01*
X162485908Y-94937483D01*
X162536202Y-95072328D01*
X162536206Y-95072335D01*
X162622452Y-95187544D01*
X162622455Y-95187547D01*
X162737664Y-95273793D01*
X162737671Y-95273797D01*
X162872517Y-95324091D01*
X162872516Y-95324091D01*
X162879444Y-95324835D01*
X162932127Y-95330500D01*
X164727872Y-95330499D01*
X164787483Y-95324091D01*
X164922331Y-95273796D01*
X165037546Y-95187546D01*
X165123796Y-95072331D01*
X165174091Y-94937483D01*
X165180500Y-94877873D01*
X165180499Y-93082128D01*
X165174091Y-93022517D01*
X165168104Y-93006466D01*
X165123797Y-92887671D01*
X165123793Y-92887664D01*
X165037547Y-92772455D01*
X165037544Y-92772452D01*
X164922335Y-92686206D01*
X164922328Y-92686202D01*
X164790917Y-92637189D01*
X164734983Y-92595318D01*
X164710566Y-92529853D01*
X164725418Y-92461580D01*
X164746563Y-92433332D01*
X164868495Y-92311401D01*
X165004035Y-92117830D01*
X165103903Y-91903663D01*
X165165063Y-91675408D01*
X165185659Y-91440000D01*
X165182859Y-91408002D01*
X165175002Y-91318196D01*
X165165063Y-91204592D01*
X165118626Y-91031285D01*
X165103905Y-90976344D01*
X165103904Y-90976343D01*
X165103903Y-90976337D01*
X165004035Y-90762171D01*
X164978610Y-90725859D01*
X164868494Y-90568597D01*
X164701402Y-90401506D01*
X164701396Y-90401501D01*
X164515842Y-90271575D01*
X164472217Y-90216998D01*
X164465023Y-90147500D01*
X164496546Y-90085145D01*
X164515842Y-90068425D01*
X164538026Y-90052891D01*
X164701401Y-89938495D01*
X164868495Y-89771401D01*
X165004035Y-89577830D01*
X165103903Y-89363663D01*
X165165063Y-89135408D01*
X165185659Y-88900000D01*
X165165063Y-88664592D01*
X165103903Y-88436337D01*
X165004035Y-88222171D01*
X164973497Y-88178557D01*
X164868494Y-88028597D01*
X164701402Y-87861506D01*
X164701401Y-87861505D01*
X164515405Y-87731269D01*
X164471781Y-87676692D01*
X164464588Y-87607193D01*
X164496110Y-87544839D01*
X164515405Y-87528119D01*
X164701082Y-87398105D01*
X164868105Y-87231082D01*
X165003600Y-87037578D01*
X165103429Y-86823492D01*
X165103432Y-86823486D01*
X165160636Y-86610000D01*
X164263686Y-86610000D01*
X164289493Y-86569844D01*
X164330000Y-86431889D01*
X164330000Y-86288111D01*
X164289493Y-86150156D01*
X164263686Y-86110000D01*
X165160636Y-86110000D01*
X165160635Y-86109999D01*
X165103432Y-85896513D01*
X165103429Y-85896507D01*
X165003600Y-85682422D01*
X165003599Y-85682420D01*
X164868113Y-85488926D01*
X164868108Y-85488920D01*
X164701079Y-85321891D01*
X164692056Y-85315573D01*
X164648433Y-85260996D01*
X164641241Y-85191497D01*
X164672765Y-85129143D01*
X164732995Y-85093730D01*
X164763182Y-85090000D01*
X166245500Y-85090000D01*
X166312539Y-85109685D01*
X166358294Y-85162489D01*
X166369500Y-85214000D01*
X166369500Y-112906000D01*
X166349815Y-112973039D01*
X166297011Y-113018794D01*
X166245500Y-113030000D01*
X158750000Y-113030000D01*
X158750000Y-120525500D01*
X158730315Y-120592539D01*
X158677511Y-120638294D01*
X158626000Y-120649500D01*
X120774000Y-120649500D01*
X120706961Y-120629815D01*
X120661206Y-120577011D01*
X120650000Y-120525500D01*
X120650000Y-113030000D01*
X113154500Y-113030000D01*
X113087461Y-113010315D01*
X113041706Y-112957511D01*
X113030500Y-112906000D01*
X113030500Y-106766449D01*
X114802800Y-106766449D01*
X114811671Y-106805314D01*
X114812837Y-106812173D01*
X114817300Y-106851792D01*
X114817302Y-106851798D01*
X114830471Y-106889436D01*
X114832394Y-106896112D01*
X114841267Y-106934984D01*
X114841268Y-106934988D01*
X114841270Y-106934994D01*
X114858567Y-106970911D01*
X114861229Y-106977339D01*
X114874400Y-107014979D01*
X114895621Y-107048753D01*
X114898985Y-107054841D01*
X114916283Y-107090758D01*
X114916283Y-107090759D01*
X114941137Y-107121924D01*
X114945163Y-107127598D01*
X114966383Y-107161368D01*
X118898632Y-111093617D01*
X118932395Y-111114832D01*
X118938066Y-111118856D01*
X118969242Y-111143718D01*
X119005169Y-111161019D01*
X119011255Y-111164383D01*
X119045011Y-111185594D01*
X119045014Y-111185595D01*
X119045018Y-111185598D01*
X119082658Y-111198768D01*
X119089078Y-111201427D01*
X119125006Y-111218730D01*
X119163883Y-111227603D01*
X119170554Y-111229524D01*
X119208202Y-111242698D01*
X119246808Y-111247047D01*
X119247826Y-111247162D01*
X119254687Y-111248327D01*
X119293557Y-111257200D01*
X141056439Y-111257200D01*
X141056443Y-111257200D01*
X141095318Y-111248326D01*
X141102170Y-111247162D01*
X141141798Y-111242698D01*
X141179454Y-111229521D01*
X141186090Y-111227609D01*
X141218853Y-111220131D01*
X141224991Y-111218731D01*
X141224991Y-111218730D01*
X141224994Y-111218730D01*
X141260933Y-111201421D01*
X141267317Y-111198776D01*
X141304982Y-111185598D01*
X141338754Y-111164376D01*
X141344830Y-111161018D01*
X141380758Y-111143717D01*
X141411947Y-111118843D01*
X141417594Y-111114837D01*
X141451368Y-111093617D01*
X141573617Y-110971368D01*
X147892961Y-104652024D01*
X147923617Y-104621368D01*
X147944837Y-104587594D01*
X147948843Y-104581947D01*
X147973717Y-104550758D01*
X147991018Y-104514830D01*
X147994378Y-104508752D01*
X148015598Y-104474982D01*
X148028776Y-104437317D01*
X148031421Y-104430933D01*
X148048730Y-104394994D01*
X148057609Y-104356090D01*
X148059521Y-104349454D01*
X148072698Y-104311798D01*
X148077162Y-104272170D01*
X148078326Y-104265318D01*
X148087200Y-104226443D01*
X148087200Y-104053557D01*
X148087200Y-99565395D01*
X148103813Y-99503395D01*
X148123714Y-99468926D01*
X148147179Y-99428284D01*
X148205674Y-99248256D01*
X148225460Y-99060000D01*
X148205674Y-98871744D01*
X148147179Y-98691716D01*
X148052533Y-98527784D01*
X147925871Y-98387112D01*
X147925870Y-98387111D01*
X147772734Y-98275851D01*
X147772729Y-98275848D01*
X147599807Y-98198857D01*
X147599802Y-98198855D01*
X147454001Y-98167865D01*
X147414646Y-98159500D01*
X147225354Y-98159500D01*
X147192897Y-98166398D01*
X147040197Y-98198855D01*
X147040192Y-98198857D01*
X146867270Y-98275848D01*
X146867265Y-98275851D01*
X146714129Y-98387111D01*
X146587466Y-98527785D01*
X146492821Y-98691715D01*
X146492818Y-98691722D01*
X146434327Y-98871740D01*
X146434326Y-98871744D01*
X146414540Y-99060000D01*
X146434326Y-99248256D01*
X146434327Y-99248259D01*
X146492818Y-99428277D01*
X146492821Y-99428284D01*
X146516282Y-99468920D01*
X146536187Y-99503395D01*
X146552800Y-99565395D01*
X146552800Y-103770853D01*
X146533115Y-103837892D01*
X146516481Y-103858534D01*
X140688534Y-109686481D01*
X140627211Y-109719966D01*
X140600853Y-109722800D01*
X119749147Y-109722800D01*
X119682108Y-109703115D01*
X119661466Y-109686481D01*
X116373519Y-106398534D01*
X116340034Y-106337211D01*
X116337200Y-106310853D01*
X116337200Y-103771200D01*
X116356885Y-103704161D01*
X116409689Y-103658406D01*
X116461200Y-103647200D01*
X117363993Y-103647200D01*
X117431032Y-103666885D01*
X117465567Y-103700076D01*
X117496279Y-103743938D01*
X117501507Y-103751404D01*
X117668597Y-103918493D01*
X117668603Y-103918498D01*
X117854158Y-104048425D01*
X117897783Y-104103002D01*
X117904977Y-104172500D01*
X117873454Y-104234855D01*
X117854158Y-104251575D01*
X117668597Y-104381505D01*
X117501505Y-104548597D01*
X117365965Y-104742169D01*
X117365964Y-104742171D01*
X117266098Y-104956335D01*
X117266094Y-104956344D01*
X117204938Y-105184586D01*
X117204936Y-105184596D01*
X117184341Y-105419999D01*
X117184341Y-105420000D01*
X117204936Y-105655403D01*
X117204938Y-105655413D01*
X117266094Y-105883655D01*
X117266096Y-105883659D01*
X117266097Y-105883663D01*
X117299786Y-105955909D01*
X117365965Y-106097830D01*
X117365967Y-106097834D01*
X117501501Y-106291395D01*
X117501506Y-106291402D01*
X117668595Y-106458492D01*
X117668598Y-106458494D01*
X117668599Y-106458495D01*
X117719923Y-106494432D01*
X117763548Y-106549008D01*
X117772800Y-106596007D01*
X117772800Y-107196449D01*
X117781671Y-107235314D01*
X117782837Y-107242173D01*
X117787300Y-107281792D01*
X117787302Y-107281798D01*
X117800471Y-107319436D01*
X117802394Y-107326112D01*
X117811267Y-107364984D01*
X117811268Y-107364988D01*
X117811270Y-107364994D01*
X117828567Y-107400911D01*
X117831229Y-107407339D01*
X117844400Y-107444979D01*
X117865621Y-107478753D01*
X117868985Y-107484841D01*
X117886283Y-107520758D01*
X117886283Y-107520759D01*
X117911137Y-107551924D01*
X117915163Y-107557598D01*
X117936383Y-107591368D01*
X118898631Y-108553616D01*
X118898634Y-108553618D01*
X118932388Y-108574827D01*
X118938058Y-108578849D01*
X118949295Y-108587811D01*
X118969236Y-108603714D01*
X118969239Y-108603715D01*
X118969241Y-108603717D01*
X119005180Y-108621024D01*
X119011231Y-108624368D01*
X119045018Y-108645598D01*
X119082642Y-108658763D01*
X119082654Y-108658767D01*
X119089074Y-108661426D01*
X119125006Y-108678730D01*
X119125007Y-108678730D01*
X119125009Y-108678731D01*
X119132623Y-108680468D01*
X119163895Y-108687606D01*
X119170554Y-108689524D01*
X119208202Y-108702698D01*
X119246664Y-108707031D01*
X119247826Y-108707162D01*
X119254687Y-108708327D01*
X119293557Y-108717200D01*
X134706439Y-108717200D01*
X134706443Y-108717200D01*
X134745318Y-108708326D01*
X134752170Y-108707162D01*
X134791798Y-108702698D01*
X134829454Y-108689521D01*
X134836090Y-108687609D01*
X134868853Y-108680131D01*
X134874991Y-108678731D01*
X134874991Y-108678730D01*
X134874994Y-108678730D01*
X134910933Y-108661421D01*
X134917317Y-108658776D01*
X134954982Y-108645598D01*
X134988754Y-108624376D01*
X134994830Y-108621018D01*
X135030758Y-108603717D01*
X135061947Y-108578843D01*
X135067594Y-108574837D01*
X135101368Y-108553617D01*
X135223617Y-108431368D01*
X137732961Y-105922024D01*
X137763617Y-105891368D01*
X137784835Y-105857597D01*
X137788853Y-105851935D01*
X137813717Y-105820759D01*
X137831019Y-105784827D01*
X137834377Y-105778753D01*
X137855598Y-105744982D01*
X137868770Y-105707335D01*
X137871424Y-105700928D01*
X137888730Y-105664994D01*
X137897609Y-105626090D01*
X137899521Y-105619454D01*
X137912698Y-105581798D01*
X137917162Y-105542170D01*
X137918326Y-105535318D01*
X137927200Y-105496443D01*
X137927200Y-105323557D01*
X137927200Y-101969146D01*
X137946885Y-101902107D01*
X137963515Y-101881469D01*
X138612763Y-101232220D01*
X138674084Y-101198737D01*
X138674436Y-101198660D01*
X138709803Y-101191144D01*
X138709807Y-101191142D01*
X138709808Y-101191142D01*
X138768058Y-101165206D01*
X138882730Y-101114151D01*
X139035871Y-101002888D01*
X139162533Y-100862216D01*
X139257179Y-100698284D01*
X139315674Y-100518256D01*
X139335460Y-100330000D01*
X139315674Y-100141744D01*
X139257179Y-99961716D01*
X139162533Y-99797784D01*
X139035871Y-99657112D01*
X139035870Y-99657111D01*
X138882734Y-99545851D01*
X138882729Y-99545848D01*
X138709807Y-99468857D01*
X138709802Y-99468855D01*
X138564001Y-99437865D01*
X138524646Y-99429500D01*
X138335354Y-99429500D01*
X138302897Y-99436398D01*
X138150197Y-99468855D01*
X138150192Y-99468857D01*
X137977270Y-99545848D01*
X137977265Y-99545851D01*
X137824129Y-99657111D01*
X137697466Y-99797785D01*
X137602821Y-99961715D01*
X137602819Y-99961719D01*
X137558845Y-100097057D01*
X137528595Y-100146419D01*
X136678632Y-100996383D01*
X136556385Y-101118629D01*
X136556382Y-101118633D01*
X136535166Y-101152397D01*
X136531141Y-101158070D01*
X136506281Y-101189244D01*
X136488982Y-101225163D01*
X136485619Y-101231250D01*
X136464401Y-101265018D01*
X136451229Y-101302659D01*
X136448568Y-101309084D01*
X136431271Y-101345004D01*
X136431269Y-101345008D01*
X136422398Y-101383875D01*
X136420473Y-101390557D01*
X136407301Y-101428202D01*
X136407301Y-101428203D01*
X136402837Y-101467828D01*
X136401671Y-101474687D01*
X136392800Y-101513551D01*
X136392800Y-105040853D01*
X136373115Y-105107892D01*
X136356481Y-105128534D01*
X134338534Y-107146481D01*
X134277211Y-107179966D01*
X134250853Y-107182800D01*
X119749147Y-107182800D01*
X119682108Y-107163115D01*
X119661466Y-107146481D01*
X119343519Y-106828534D01*
X119310034Y-106767211D01*
X119307200Y-106740853D01*
X119307200Y-106596007D01*
X119326885Y-106528968D01*
X119360076Y-106494432D01*
X119411401Y-106458495D01*
X119578495Y-106291401D01*
X119714035Y-106097830D01*
X119813903Y-105883663D01*
X119875063Y-105655408D01*
X119895659Y-105420000D01*
X121834341Y-105420000D01*
X121854936Y-105655403D01*
X121854938Y-105655413D01*
X121916094Y-105883655D01*
X121916096Y-105883659D01*
X121916097Y-105883663D01*
X121949786Y-105955909D01*
X122015965Y-106097830D01*
X122015967Y-106097834D01*
X122115568Y-106240078D01*
X122151505Y-106291401D01*
X122318599Y-106458495D01*
X122369921Y-106494431D01*
X122512165Y-106594032D01*
X122512167Y-106594033D01*
X122512170Y-106594035D01*
X122726337Y-106693903D01*
X122954592Y-106755063D01*
X123142918Y-106771539D01*
X123189999Y-106775659D01*
X123190000Y-106775659D01*
X123190001Y-106775659D01*
X123229234Y-106772226D01*
X123425408Y-106755063D01*
X123653663Y-106693903D01*
X123867830Y-106594035D01*
X124061401Y-106458495D01*
X124228495Y-106291401D01*
X124264432Y-106240076D01*
X124319008Y-106196452D01*
X124366007Y-106187200D01*
X129616439Y-106187200D01*
X129616443Y-106187200D01*
X129655318Y-106178326D01*
X129662170Y-106177162D01*
X129701798Y-106172698D01*
X129739454Y-106159521D01*
X129746090Y-106157609D01*
X129778853Y-106150131D01*
X129784991Y-106148731D01*
X129784991Y-106148730D01*
X129784994Y-106148730D01*
X129820933Y-106131421D01*
X129827317Y-106128776D01*
X129864982Y-106115598D01*
X129898754Y-106094376D01*
X129904830Y-106091018D01*
X129940758Y-106073717D01*
X129971947Y-106048843D01*
X129977594Y-106044837D01*
X130011368Y-106023617D01*
X130133617Y-105901368D01*
X137441466Y-98593519D01*
X137502789Y-98560034D01*
X137529147Y-98557200D01*
X142326439Y-98557200D01*
X142326443Y-98557200D01*
X142365318Y-98548326D01*
X142372170Y-98547162D01*
X142411798Y-98542698D01*
X142449454Y-98529521D01*
X142456090Y-98527609D01*
X142488853Y-98520131D01*
X142494991Y-98518731D01*
X142494991Y-98518730D01*
X142494994Y-98518730D01*
X142530933Y-98501421D01*
X142537317Y-98498776D01*
X142574982Y-98485598D01*
X142608754Y-98464376D01*
X142614830Y-98461018D01*
X142650758Y-98443717D01*
X142681947Y-98418843D01*
X142687594Y-98414837D01*
X142721368Y-98393617D01*
X142843617Y-98271368D01*
X147892961Y-93222024D01*
X147923617Y-93191368D01*
X147944837Y-93157594D01*
X147948843Y-93151947D01*
X147973717Y-93120758D01*
X147991018Y-93084830D01*
X147994378Y-93078752D01*
X148015598Y-93044982D01*
X148028776Y-93007317D01*
X148031421Y-93000933D01*
X148048730Y-92964994D01*
X148057609Y-92926090D01*
X148059521Y-92919454D01*
X148072698Y-92881798D01*
X148077162Y-92842170D01*
X148078326Y-92835318D01*
X148087200Y-92796443D01*
X148087200Y-92623557D01*
X148087200Y-91945395D01*
X148103813Y-91883395D01*
X148147179Y-91808284D01*
X148205674Y-91628256D01*
X148225460Y-91440000D01*
X148205674Y-91251744D01*
X148147179Y-91071716D01*
X148052533Y-90907784D01*
X147925871Y-90767112D01*
X147925870Y-90767111D01*
X147772734Y-90655851D01*
X147772729Y-90655848D01*
X147599807Y-90578857D01*
X147599802Y-90578855D01*
X147454001Y-90547865D01*
X147414646Y-90539500D01*
X147225354Y-90539500D01*
X147197168Y-90545491D01*
X147040197Y-90578855D01*
X147040192Y-90578857D01*
X146867270Y-90655848D01*
X146867265Y-90655851D01*
X146714129Y-90767111D01*
X146587466Y-90907785D01*
X146492821Y-91071715D01*
X146492818Y-91071722D01*
X146434327Y-91251740D01*
X146434326Y-91251744D01*
X146414540Y-91440000D01*
X146434326Y-91628256D01*
X146434327Y-91628259D01*
X146492818Y-91808277D01*
X146492821Y-91808284D01*
X146535337Y-91881924D01*
X146536187Y-91883395D01*
X146552800Y-91945395D01*
X146552800Y-92340853D01*
X146533115Y-92407892D01*
X146516481Y-92428534D01*
X141958534Y-96986481D01*
X141897211Y-97019966D01*
X141870853Y-97022800D01*
X137073551Y-97022800D01*
X137034687Y-97031671D01*
X137027830Y-97032836D01*
X137023051Y-97033375D01*
X136988203Y-97037301D01*
X136988202Y-97037301D01*
X136950557Y-97050473D01*
X136943882Y-97052395D01*
X136905006Y-97061270D01*
X136905002Y-97061271D01*
X136869079Y-97078569D01*
X136862655Y-97081231D01*
X136825022Y-97094400D01*
X136825011Y-97094405D01*
X136791245Y-97115621D01*
X136785158Y-97118985D01*
X136749240Y-97136283D01*
X136749239Y-97136283D01*
X136718063Y-97161146D01*
X136712390Y-97165171D01*
X136678630Y-97186384D01*
X136678629Y-97186385D01*
X129248534Y-104616481D01*
X129187211Y-104649966D01*
X129160853Y-104652800D01*
X124366007Y-104652800D01*
X124298968Y-104633115D01*
X124264432Y-104599923D01*
X124228495Y-104548599D01*
X124228493Y-104548597D01*
X124228492Y-104548595D01*
X124061402Y-104381506D01*
X124061396Y-104381501D01*
X123875842Y-104251575D01*
X123832217Y-104196998D01*
X123825023Y-104127500D01*
X123856546Y-104065145D01*
X123875842Y-104048425D01*
X123898026Y-104032891D01*
X124061401Y-103918495D01*
X124228495Y-103751401D01*
X124264432Y-103700076D01*
X124319008Y-103656452D01*
X124366007Y-103647200D01*
X125806439Y-103647200D01*
X125806443Y-103647200D01*
X125845318Y-103638326D01*
X125852170Y-103637162D01*
X125891798Y-103632698D01*
X125929454Y-103619521D01*
X125936090Y-103617609D01*
X125968853Y-103610131D01*
X125974991Y-103608731D01*
X125974991Y-103608730D01*
X125974994Y-103608730D01*
X126010933Y-103591421D01*
X126017317Y-103588776D01*
X126054982Y-103575598D01*
X126088754Y-103554376D01*
X126094830Y-103551018D01*
X126130758Y-103533717D01*
X126161947Y-103508843D01*
X126167594Y-103504837D01*
X126201368Y-103483617D01*
X126323617Y-103361368D01*
X135013325Y-94671660D01*
X140294391Y-94671660D01*
X140308197Y-94680335D01*
X140308201Y-94680337D01*
X140478358Y-94739877D01*
X140478361Y-94739878D01*
X140657497Y-94760062D01*
X140657503Y-94760062D01*
X140836638Y-94739878D01*
X141006807Y-94680333D01*
X141020607Y-94671661D01*
X141020607Y-94671660D01*
X141819391Y-94671660D01*
X141833197Y-94680335D01*
X141833201Y-94680337D01*
X142003358Y-94739877D01*
X142003361Y-94739878D01*
X142182497Y-94760062D01*
X142182503Y-94760062D01*
X142361638Y-94739878D01*
X142531807Y-94680333D01*
X142545607Y-94671661D01*
X142545607Y-94671660D01*
X142182501Y-94308553D01*
X142182500Y-94308553D01*
X141819391Y-94671660D01*
X141020607Y-94671660D01*
X140657501Y-94308553D01*
X140657500Y-94308553D01*
X140294391Y-94671660D01*
X135013325Y-94671660D01*
X135775825Y-93909160D01*
X139531891Y-93909160D01*
X139545697Y-93917835D01*
X139545701Y-93917837D01*
X139715859Y-93977377D01*
X139758482Y-93982180D01*
X139822896Y-94009246D01*
X139862451Y-94066840D01*
X139867819Y-94091515D01*
X139872621Y-94134138D01*
X139872622Y-94134141D01*
X139932162Y-94304298D01*
X139932167Y-94304308D01*
X139940838Y-94318108D01*
X140303947Y-93955000D01*
X140502209Y-93955000D01*
X140523014Y-94032645D01*
X140579855Y-94089486D01*
X140637754Y-94105000D01*
X140677246Y-94105000D01*
X140735145Y-94089486D01*
X140791986Y-94032646D01*
X140812791Y-93955000D01*
X141011053Y-93955000D01*
X141374160Y-94318107D01*
X141406121Y-94314507D01*
X141433887Y-94314508D01*
X141465838Y-94318108D01*
X141828947Y-93955000D01*
X142027209Y-93955000D01*
X142048014Y-94032645D01*
X142104855Y-94089486D01*
X142162754Y-94105000D01*
X142202246Y-94105000D01*
X142260145Y-94089486D01*
X142316986Y-94032646D01*
X142337791Y-93955000D01*
X142536053Y-93955000D01*
X142899160Y-94318107D01*
X142899161Y-94318107D01*
X142907833Y-94304307D01*
X142967378Y-94134138D01*
X142972180Y-94091518D01*
X142999246Y-94027103D01*
X143056840Y-93987548D01*
X143081518Y-93982180D01*
X143124138Y-93977378D01*
X143294307Y-93917833D01*
X143308107Y-93909161D01*
X143308107Y-93909160D01*
X142945000Y-93546053D01*
X142536053Y-93955000D01*
X142337791Y-93955000D01*
X142316986Y-93877355D01*
X142260145Y-93820514D01*
X142202246Y-93805000D01*
X142162754Y-93805000D01*
X142104855Y-93820514D01*
X142048014Y-93877354D01*
X142027209Y-93955000D01*
X141828947Y-93955000D01*
X141420000Y-93546053D01*
X141011053Y-93955000D01*
X140812791Y-93955000D01*
X140791986Y-93877355D01*
X140735145Y-93820514D01*
X140677246Y-93805000D01*
X140637754Y-93805000D01*
X140579855Y-93820514D01*
X140523014Y-93877354D01*
X140502209Y-93955000D01*
X140303947Y-93955000D01*
X140303947Y-93954999D01*
X139895001Y-93546053D01*
X139895000Y-93546053D01*
X139531891Y-93909160D01*
X135775825Y-93909160D01*
X135827961Y-93857024D01*
X135858617Y-93826368D01*
X135879835Y-93792597D01*
X135883853Y-93786935D01*
X135908717Y-93755759D01*
X135926019Y-93719827D01*
X135929377Y-93713753D01*
X135950598Y-93679982D01*
X135963770Y-93642335D01*
X135966424Y-93635928D01*
X135983730Y-93599994D01*
X135992609Y-93561090D01*
X135994521Y-93554454D01*
X136007698Y-93516798D01*
X136012162Y-93477170D01*
X136013326Y-93470318D01*
X136022200Y-93431443D01*
X136022200Y-93258557D01*
X136022200Y-93192502D01*
X139089938Y-93192502D01*
X139110121Y-93371638D01*
X139110122Y-93371641D01*
X139169662Y-93541798D01*
X139169667Y-93541808D01*
X139178338Y-93555608D01*
X139541447Y-93192500D01*
X139739709Y-93192500D01*
X139760514Y-93270145D01*
X139817355Y-93326986D01*
X139875254Y-93342500D01*
X139914746Y-93342500D01*
X139972645Y-93326986D01*
X140029486Y-93270146D01*
X140050291Y-93192500D01*
X140248553Y-93192500D01*
X140657500Y-93601447D01*
X141066447Y-93192500D01*
X141264709Y-93192500D01*
X141285514Y-93270145D01*
X141342355Y-93326986D01*
X141400254Y-93342500D01*
X141439746Y-93342500D01*
X141497645Y-93326986D01*
X141554486Y-93270146D01*
X141575291Y-93192500D01*
X141773553Y-93192500D01*
X142182500Y-93601447D01*
X142591447Y-93192500D01*
X142789709Y-93192500D01*
X142810514Y-93270145D01*
X142867355Y-93326986D01*
X142925254Y-93342500D01*
X142964746Y-93342500D01*
X143022645Y-93326986D01*
X143079486Y-93270146D01*
X143100291Y-93192500D01*
X143298553Y-93192500D01*
X143661660Y-93555607D01*
X143661661Y-93555607D01*
X143670333Y-93541807D01*
X143729878Y-93371638D01*
X143750062Y-93192502D01*
X143750062Y-93192497D01*
X143729878Y-93013361D01*
X143729877Y-93013358D01*
X143670337Y-92843201D01*
X143670335Y-92843197D01*
X143661660Y-92829391D01*
X143298553Y-93192499D01*
X143298553Y-93192500D01*
X143100291Y-93192500D01*
X143079486Y-93114855D01*
X143022645Y-93058014D01*
X142964746Y-93042500D01*
X142925254Y-93042500D01*
X142867355Y-93058014D01*
X142810514Y-93114854D01*
X142789709Y-93192500D01*
X142591447Y-93192500D01*
X142182500Y-92783553D01*
X141773553Y-93192500D01*
X141575291Y-93192500D01*
X141554486Y-93114855D01*
X141497645Y-93058014D01*
X141439746Y-93042500D01*
X141400254Y-93042500D01*
X141342355Y-93058014D01*
X141285514Y-93114854D01*
X141264709Y-93192500D01*
X141066447Y-93192500D01*
X140657500Y-92783553D01*
X140248553Y-93192500D01*
X140050291Y-93192500D01*
X140029486Y-93114855D01*
X139972645Y-93058014D01*
X139914746Y-93042500D01*
X139875254Y-93042500D01*
X139817355Y-93058014D01*
X139760514Y-93114854D01*
X139739709Y-93192500D01*
X139541447Y-93192500D01*
X139541447Y-93192499D01*
X139178338Y-92829390D01*
X139178338Y-92829391D01*
X139169664Y-92843196D01*
X139110122Y-93013358D01*
X139110121Y-93013361D01*
X139089938Y-93192497D01*
X139089938Y-93192502D01*
X136022200Y-93192502D01*
X136022200Y-92475838D01*
X139531890Y-92475838D01*
X139894999Y-92838947D01*
X140303947Y-92430000D01*
X140502209Y-92430000D01*
X140523014Y-92507645D01*
X140579855Y-92564486D01*
X140637754Y-92580000D01*
X140677246Y-92580000D01*
X140735145Y-92564486D01*
X140791986Y-92507646D01*
X140812791Y-92430000D01*
X141011053Y-92430000D01*
X141420000Y-92838947D01*
X141828947Y-92430000D01*
X142027209Y-92430000D01*
X142048014Y-92507645D01*
X142104855Y-92564486D01*
X142162754Y-92580000D01*
X142202246Y-92580000D01*
X142260145Y-92564486D01*
X142316986Y-92507646D01*
X142337791Y-92430000D01*
X142536053Y-92430000D01*
X142945000Y-92838947D01*
X142945001Y-92838947D01*
X143308108Y-92475838D01*
X143304508Y-92443884D01*
X143304507Y-92416119D01*
X143308107Y-92384160D01*
X142945000Y-92021053D01*
X142536053Y-92430000D01*
X142337791Y-92430000D01*
X142316986Y-92352355D01*
X142260145Y-92295514D01*
X142202246Y-92280000D01*
X142162754Y-92280000D01*
X142104855Y-92295514D01*
X142048014Y-92352354D01*
X142027209Y-92430000D01*
X141828947Y-92430000D01*
X141420000Y-92021053D01*
X141011053Y-92430000D01*
X140812791Y-92430000D01*
X140791986Y-92352355D01*
X140735145Y-92295514D01*
X140677246Y-92280000D01*
X140637754Y-92280000D01*
X140579855Y-92295514D01*
X140523014Y-92352354D01*
X140502209Y-92430000D01*
X140303947Y-92430000D01*
X140303947Y-92429999D01*
X139895001Y-92021053D01*
X139895000Y-92021053D01*
X139531890Y-92384161D01*
X139535491Y-92416123D01*
X139535491Y-92443892D01*
X139531890Y-92475838D01*
X136022200Y-92475838D01*
X136022200Y-91667502D01*
X139089938Y-91667502D01*
X139110121Y-91846638D01*
X139110122Y-91846641D01*
X139169662Y-92016798D01*
X139169667Y-92016808D01*
X139178338Y-92030608D01*
X139541447Y-91667500D01*
X139739709Y-91667500D01*
X139760514Y-91745145D01*
X139817355Y-91801986D01*
X139875254Y-91817500D01*
X139914746Y-91817500D01*
X139972645Y-91801986D01*
X140029486Y-91745146D01*
X140050291Y-91667500D01*
X140248553Y-91667500D01*
X140657500Y-92076447D01*
X141066447Y-91667500D01*
X141264709Y-91667500D01*
X141285514Y-91745145D01*
X141342355Y-91801986D01*
X141400254Y-91817500D01*
X141439746Y-91817500D01*
X141497645Y-91801986D01*
X141554486Y-91745146D01*
X141575291Y-91667500D01*
X141773553Y-91667500D01*
X142182500Y-92076447D01*
X142591447Y-91667500D01*
X142789709Y-91667500D01*
X142810514Y-91745145D01*
X142867355Y-91801986D01*
X142925254Y-91817500D01*
X142964746Y-91817500D01*
X143022645Y-91801986D01*
X143079486Y-91745146D01*
X143100291Y-91667500D01*
X143298553Y-91667500D01*
X143661660Y-92030607D01*
X143661661Y-92030607D01*
X143670333Y-92016807D01*
X143729878Y-91846638D01*
X143750062Y-91667502D01*
X143750062Y-91667497D01*
X143729878Y-91488361D01*
X143729877Y-91488358D01*
X143670337Y-91318201D01*
X143670335Y-91318197D01*
X143661660Y-91304391D01*
X143298553Y-91667499D01*
X143298553Y-91667500D01*
X143100291Y-91667500D01*
X143079486Y-91589855D01*
X143022645Y-91533014D01*
X142964746Y-91517500D01*
X142925254Y-91517500D01*
X142867355Y-91533014D01*
X142810514Y-91589854D01*
X142789709Y-91667500D01*
X142591447Y-91667500D01*
X142182500Y-91258553D01*
X141773553Y-91667500D01*
X141575291Y-91667500D01*
X141554486Y-91589855D01*
X141497645Y-91533014D01*
X141439746Y-91517500D01*
X141400254Y-91517500D01*
X141342355Y-91533014D01*
X141285514Y-91589854D01*
X141264709Y-91667500D01*
X141066447Y-91667500D01*
X140657500Y-91258553D01*
X140248553Y-91667500D01*
X140050291Y-91667500D01*
X140029486Y-91589855D01*
X139972645Y-91533014D01*
X139914746Y-91517500D01*
X139875254Y-91517500D01*
X139817355Y-91533014D01*
X139760514Y-91589854D01*
X139739709Y-91667500D01*
X139541447Y-91667500D01*
X139541447Y-91667499D01*
X139178338Y-91304390D01*
X139178338Y-91304391D01*
X139169664Y-91318196D01*
X139110122Y-91488358D01*
X139110121Y-91488361D01*
X139089938Y-91667497D01*
X139089938Y-91667502D01*
X136022200Y-91667502D01*
X136022200Y-90950838D01*
X139531890Y-90950838D01*
X139894999Y-91313947D01*
X140303947Y-90905000D01*
X140502209Y-90905000D01*
X140523014Y-90982645D01*
X140579855Y-91039486D01*
X140637754Y-91055000D01*
X140677246Y-91055000D01*
X140735145Y-91039486D01*
X140791986Y-90982646D01*
X140812791Y-90905000D01*
X141011053Y-90905000D01*
X141419999Y-91313947D01*
X141828947Y-90905000D01*
X142027209Y-90905000D01*
X142048014Y-90982645D01*
X142104855Y-91039486D01*
X142162754Y-91055000D01*
X142202246Y-91055000D01*
X142260145Y-91039486D01*
X142316986Y-90982646D01*
X142337791Y-90905000D01*
X142536053Y-90905000D01*
X142945000Y-91313947D01*
X142945001Y-91313947D01*
X143308108Y-90950838D01*
X143308108Y-90950837D01*
X143294308Y-90942167D01*
X143294298Y-90942162D01*
X143124141Y-90882622D01*
X143124138Y-90882621D01*
X143081515Y-90877819D01*
X143017102Y-90850752D01*
X142977547Y-90793157D01*
X142972180Y-90768482D01*
X142967377Y-90725859D01*
X142907837Y-90555701D01*
X142907835Y-90555697D01*
X142899160Y-90541891D01*
X142536053Y-90904999D01*
X142536053Y-90905000D01*
X142337791Y-90905000D01*
X142316986Y-90827355D01*
X142260145Y-90770514D01*
X142202246Y-90755000D01*
X142162754Y-90755000D01*
X142104855Y-90770514D01*
X142048014Y-90827354D01*
X142027209Y-90905000D01*
X141828947Y-90905000D01*
X141828947Y-90904999D01*
X141465838Y-90541890D01*
X141433892Y-90545491D01*
X141406123Y-90545491D01*
X141374161Y-90541890D01*
X141011053Y-90904999D01*
X141011053Y-90905000D01*
X140812791Y-90905000D01*
X140791986Y-90827355D01*
X140735145Y-90770514D01*
X140677246Y-90755000D01*
X140637754Y-90755000D01*
X140579855Y-90770514D01*
X140523014Y-90827354D01*
X140502209Y-90905000D01*
X140303947Y-90905000D01*
X140303947Y-90904999D01*
X139940838Y-90541890D01*
X139940838Y-90541891D01*
X139932165Y-90555695D01*
X139872622Y-90725859D01*
X139867819Y-90768484D01*
X139840752Y-90832898D01*
X139783156Y-90872452D01*
X139758484Y-90877819D01*
X139715859Y-90882622D01*
X139545695Y-90942165D01*
X139531891Y-90950838D01*
X139531890Y-90950838D01*
X136022200Y-90950838D01*
X136022200Y-90188338D01*
X140294390Y-90188338D01*
X140657500Y-90551447D01*
X140657501Y-90551447D01*
X141020608Y-90188338D01*
X141819390Y-90188338D01*
X142182500Y-90551447D01*
X142182501Y-90551447D01*
X142545608Y-90188338D01*
X142545608Y-90188337D01*
X142531808Y-90179667D01*
X142531798Y-90179662D01*
X142361641Y-90120122D01*
X142361638Y-90120121D01*
X142182503Y-90099938D01*
X142182497Y-90099938D01*
X142003361Y-90120121D01*
X142003358Y-90120122D01*
X141833196Y-90179664D01*
X141819391Y-90188338D01*
X141819390Y-90188338D01*
X141020608Y-90188338D01*
X141020608Y-90188337D01*
X141006808Y-90179667D01*
X141006798Y-90179662D01*
X140836641Y-90120122D01*
X140836638Y-90120121D01*
X140657503Y-90099938D01*
X140657497Y-90099938D01*
X140478361Y-90120121D01*
X140478358Y-90120122D01*
X140308196Y-90179664D01*
X140294391Y-90188338D01*
X140294390Y-90188338D01*
X136022200Y-90188338D01*
X136022200Y-88634147D01*
X136041885Y-88567108D01*
X136058519Y-88546466D01*
X136171466Y-88433519D01*
X136232789Y-88400034D01*
X136259147Y-88397200D01*
X146804685Y-88397200D01*
X146860987Y-88412285D01*
X146861334Y-88411508D01*
X146866243Y-88413694D01*
X146866684Y-88413812D01*
X146867267Y-88414149D01*
X146867270Y-88414151D01*
X146867272Y-88414152D01*
X146867274Y-88414153D01*
X147040192Y-88491142D01*
X147040197Y-88491144D01*
X147225354Y-88530500D01*
X147225355Y-88530500D01*
X147414644Y-88530500D01*
X147414646Y-88530500D01*
X147599803Y-88491144D01*
X147772730Y-88414151D01*
X147925871Y-88302888D01*
X148052533Y-88162216D01*
X148147179Y-87998284D01*
X148205674Y-87818256D01*
X148225460Y-87630000D01*
X148205674Y-87441744D01*
X148147179Y-87261716D01*
X148052533Y-87097784D01*
X147925871Y-86957112D01*
X147925870Y-86957111D01*
X147772734Y-86845851D01*
X147772729Y-86845848D01*
X147599807Y-86768857D01*
X147599802Y-86768855D01*
X147454001Y-86737865D01*
X147414646Y-86729500D01*
X147225354Y-86729500D01*
X147192897Y-86736398D01*
X147040197Y-86768855D01*
X147040192Y-86768857D01*
X146867274Y-86845846D01*
X146866684Y-86846188D01*
X146866243Y-86846305D01*
X146861334Y-86848492D01*
X146860987Y-86847714D01*
X146804685Y-86862800D01*
X135980199Y-86862800D01*
X135980183Y-86862799D01*
X135976443Y-86862799D01*
X135803557Y-86862799D01*
X135803547Y-86862800D01*
X135764675Y-86871672D01*
X135757816Y-86872838D01*
X135718202Y-86877301D01*
X135680569Y-86890469D01*
X135673887Y-86892394D01*
X135635004Y-86901270D01*
X135599080Y-86918570D01*
X135592653Y-86921232D01*
X135555017Y-86934401D01*
X135521247Y-86955620D01*
X135515160Y-86958984D01*
X135479241Y-86976282D01*
X135448058Y-87001149D01*
X135442391Y-87005169D01*
X135430765Y-87012474D01*
X135408632Y-87026382D01*
X135408629Y-87026384D01*
X135388194Y-87046820D01*
X135377976Y-87057039D01*
X135179852Y-87255163D01*
X134651385Y-87783629D01*
X134651382Y-87783633D01*
X134630166Y-87817397D01*
X134626141Y-87823070D01*
X134601281Y-87854244D01*
X134583982Y-87890163D01*
X134580619Y-87896250D01*
X134559401Y-87930018D01*
X134546229Y-87967659D01*
X134543568Y-87974084D01*
X134526271Y-88010004D01*
X134526269Y-88010008D01*
X134522026Y-88028597D01*
X134519251Y-88040758D01*
X134517398Y-88048875D01*
X134515473Y-88055557D01*
X134502301Y-88093202D01*
X134502301Y-88093203D01*
X134497837Y-88132828D01*
X134496671Y-88139687D01*
X134487800Y-88178551D01*
X134487800Y-92975853D01*
X134468115Y-93042892D01*
X134451481Y-93063534D01*
X125438534Y-102076481D01*
X125377211Y-102109966D01*
X125350853Y-102112800D01*
X124366007Y-102112800D01*
X124298968Y-102093115D01*
X124264432Y-102059923D01*
X124228495Y-102008599D01*
X124228493Y-102008597D01*
X124228492Y-102008595D01*
X124061402Y-101841506D01*
X124061401Y-101841505D01*
X123875405Y-101711269D01*
X123831781Y-101656692D01*
X123824588Y-101587193D01*
X123856110Y-101524839D01*
X123875405Y-101508119D01*
X124061082Y-101378105D01*
X124228105Y-101211082D01*
X124363600Y-101017578D01*
X124463429Y-100803492D01*
X124463432Y-100803486D01*
X124520636Y-100590000D01*
X123623686Y-100590000D01*
X123649493Y-100549844D01*
X123690000Y-100411889D01*
X123690000Y-100268111D01*
X123649493Y-100130156D01*
X123623686Y-100090000D01*
X124520636Y-100090000D01*
X124520635Y-100089999D01*
X124463432Y-99876513D01*
X124463429Y-99876507D01*
X124363600Y-99662422D01*
X124363599Y-99662420D01*
X124228113Y-99468926D01*
X124228108Y-99468920D01*
X124106053Y-99346865D01*
X124072568Y-99285542D01*
X124077552Y-99215850D01*
X124119424Y-99159917D01*
X124150400Y-99143002D01*
X124282331Y-99093796D01*
X124397546Y-99007546D01*
X124483796Y-98892331D01*
X124534091Y-98757483D01*
X124540500Y-98697873D01*
X124540499Y-98669129D01*
X124560181Y-98602092D01*
X124612984Y-98556335D01*
X124623541Y-98552088D01*
X124659449Y-98539523D01*
X124666095Y-98537607D01*
X124704994Y-98528730D01*
X124740933Y-98511421D01*
X124747317Y-98508776D01*
X124784982Y-98495598D01*
X124818754Y-98474376D01*
X124824830Y-98471018D01*
X124860758Y-98453717D01*
X124891947Y-98428843D01*
X124897594Y-98424837D01*
X124931368Y-98403617D01*
X125053617Y-98281368D01*
X126302961Y-97032024D01*
X126333617Y-97001368D01*
X126354835Y-96967597D01*
X126358853Y-96961935D01*
X126383717Y-96930759D01*
X126401019Y-96894827D01*
X126404377Y-96888753D01*
X126425598Y-96854982D01*
X126438770Y-96817335D01*
X126441424Y-96810928D01*
X126458730Y-96774994D01*
X126467609Y-96736090D01*
X126469521Y-96729454D01*
X126482698Y-96691798D01*
X126487162Y-96652170D01*
X126488326Y-96645318D01*
X126497200Y-96606443D01*
X126497200Y-96433557D01*
X126497200Y-92681911D01*
X126497200Y-92638557D01*
X126488327Y-92599687D01*
X126487162Y-92592826D01*
X126483969Y-92564486D01*
X126482698Y-92553202D01*
X126469524Y-92515554D01*
X126467606Y-92508895D01*
X126458730Y-92470006D01*
X126441426Y-92434074D01*
X126438767Y-92427654D01*
X126425600Y-92390024D01*
X126425598Y-92390018D01*
X126404368Y-92356231D01*
X126401024Y-92350180D01*
X126383717Y-92314241D01*
X126383715Y-92314239D01*
X126383714Y-92314236D01*
X126367811Y-92294295D01*
X126358849Y-92283058D01*
X126354827Y-92277388D01*
X126333618Y-92243634D01*
X126333616Y-92243631D01*
X124990166Y-90900181D01*
X124956681Y-90838858D01*
X124961665Y-90769166D01*
X124990166Y-90724819D01*
X126207816Y-89507169D01*
X127572961Y-88142024D01*
X127603617Y-88111368D01*
X127624831Y-88077604D01*
X127628845Y-88071946D01*
X127653718Y-88040758D01*
X127671026Y-88004815D01*
X127674377Y-87998752D01*
X127695598Y-87964982D01*
X127708767Y-87927342D01*
X127711430Y-87920915D01*
X127724729Y-87893301D01*
X127728730Y-87884994D01*
X127737609Y-87846090D01*
X127739521Y-87839454D01*
X127752698Y-87801798D01*
X127757162Y-87762170D01*
X127758326Y-87755318D01*
X127767200Y-87716443D01*
X127767200Y-87543557D01*
X127767200Y-86865395D01*
X127783813Y-86803395D01*
X127827179Y-86728284D01*
X127871153Y-86592944D01*
X127901404Y-86543580D01*
X128006468Y-86438518D01*
X128067791Y-86405034D01*
X128094148Y-86402200D01*
X153513453Y-86402200D01*
X153580492Y-86421885D01*
X153626247Y-86474689D01*
X153636191Y-86543847D01*
X153607166Y-86607403D01*
X153601134Y-86613881D01*
X153066385Y-87148629D01*
X153066382Y-87148633D01*
X153045166Y-87182397D01*
X153041141Y-87188070D01*
X153016281Y-87219244D01*
X152998982Y-87255163D01*
X152995619Y-87261250D01*
X152974401Y-87295018D01*
X152961229Y-87332659D01*
X152958568Y-87339084D01*
X152941271Y-87375004D01*
X152941269Y-87375008D01*
X152932398Y-87413875D01*
X152930473Y-87420557D01*
X152917301Y-87458202D01*
X152917301Y-87458203D01*
X152912837Y-87497828D01*
X152911671Y-87504687D01*
X152902800Y-87543551D01*
X152902800Y-91526449D01*
X152911671Y-91565314D01*
X152912837Y-91572173D01*
X152917300Y-91611792D01*
X152917302Y-91611798D01*
X152930471Y-91649436D01*
X152932394Y-91656112D01*
X152941267Y-91694984D01*
X152941268Y-91694988D01*
X152941270Y-91694994D01*
X152958567Y-91730911D01*
X152961229Y-91737339D01*
X152974400Y-91774979D01*
X152995621Y-91808753D01*
X152998985Y-91814841D01*
X153016283Y-91850758D01*
X153016283Y-91850759D01*
X153041137Y-91881924D01*
X153045163Y-91887598D01*
X153066383Y-91921368D01*
X155406481Y-94261466D01*
X155439966Y-94322789D01*
X155442800Y-94349147D01*
X155442800Y-96014603D01*
X155426188Y-96076602D01*
X155382820Y-96151718D01*
X155382818Y-96151722D01*
X155361319Y-96217891D01*
X155324326Y-96331744D01*
X155304540Y-96520000D01*
X155324326Y-96708256D01*
X155324327Y-96708259D01*
X155382818Y-96888277D01*
X155382821Y-96888284D01*
X155425340Y-96961929D01*
X155426187Y-96963395D01*
X155442800Y-97025395D01*
X155442800Y-106310852D01*
X155423115Y-106377891D01*
X155406481Y-106398533D01*
X153487236Y-108317777D01*
X153425913Y-108351262D01*
X153425338Y-108351386D01*
X153390194Y-108358856D01*
X153390192Y-108358857D01*
X153217270Y-108435848D01*
X153217265Y-108435851D01*
X153064129Y-108547111D01*
X152937466Y-108687785D01*
X152842821Y-108851715D01*
X152842818Y-108851722D01*
X152784327Y-109031740D01*
X152784326Y-109031744D01*
X152764540Y-109220000D01*
X152784326Y-109408256D01*
X152784327Y-109408259D01*
X152842818Y-109588277D01*
X152842821Y-109588284D01*
X152937467Y-109752216D01*
X153064129Y-109892888D01*
X153217265Y-110004148D01*
X153217270Y-110004151D01*
X153390192Y-110081142D01*
X153390197Y-110081144D01*
X153575354Y-110120500D01*
X153575355Y-110120500D01*
X153764644Y-110120500D01*
X153764646Y-110120500D01*
X153949803Y-110081144D01*
X154122730Y-110004151D01*
X154275871Y-109892888D01*
X154402533Y-109752216D01*
X154497179Y-109588284D01*
X154526556Y-109497870D01*
X159289500Y-109497870D01*
X159289501Y-109497876D01*
X159295908Y-109557483D01*
X159346202Y-109692328D01*
X159346206Y-109692335D01*
X159432452Y-109807544D01*
X159432455Y-109807547D01*
X159547664Y-109893793D01*
X159547671Y-109893797D01*
X159682517Y-109944091D01*
X159682516Y-109944091D01*
X159689444Y-109944835D01*
X159742127Y-109950500D01*
X162837872Y-109950499D01*
X162897483Y-109944091D01*
X163032331Y-109893796D01*
X163147546Y-109807546D01*
X163233796Y-109692331D01*
X163284091Y-109557483D01*
X163290500Y-109497873D01*
X163290499Y-106402128D01*
X163284091Y-106342517D01*
X163265026Y-106291402D01*
X163233797Y-106207671D01*
X163233793Y-106207664D01*
X163147547Y-106092455D01*
X163147544Y-106092452D01*
X163032335Y-106006206D01*
X163032328Y-106006202D01*
X162897482Y-105955908D01*
X162897483Y-105955908D01*
X162837883Y-105949501D01*
X162837881Y-105949500D01*
X162837873Y-105949500D01*
X162837864Y-105949500D01*
X159742129Y-105949500D01*
X159742123Y-105949501D01*
X159682516Y-105955908D01*
X159547671Y-106006202D01*
X159547664Y-106006206D01*
X159432455Y-106092452D01*
X159432452Y-106092455D01*
X159346206Y-106207664D01*
X159346202Y-106207671D01*
X159295908Y-106342517D01*
X159289886Y-106398533D01*
X159289501Y-106402123D01*
X159289500Y-106402135D01*
X159289500Y-109497870D01*
X154526556Y-109497870D01*
X154541154Y-109452942D01*
X154571401Y-109403582D01*
X156782961Y-107192024D01*
X156813617Y-107161368D01*
X156834835Y-107127597D01*
X156838853Y-107121935D01*
X156863717Y-107090759D01*
X156881019Y-107054827D01*
X156884377Y-107048753D01*
X156905598Y-107014982D01*
X156918770Y-106977335D01*
X156921424Y-106970928D01*
X156938730Y-106934994D01*
X156947609Y-106896090D01*
X156949521Y-106889454D01*
X156962698Y-106851798D01*
X156967162Y-106812170D01*
X156968327Y-106805314D01*
X156977200Y-106766443D01*
X156977200Y-106593557D01*
X156977200Y-102870001D01*
X159284891Y-102870001D01*
X159305300Y-103155362D01*
X159366109Y-103434895D01*
X159466091Y-103702958D01*
X159603191Y-103954038D01*
X159603196Y-103954046D01*
X159709882Y-104096561D01*
X159709883Y-104096562D01*
X160605195Y-103201250D01*
X160627340Y-103252587D01*
X160733433Y-103395094D01*
X160869530Y-103509294D01*
X160959216Y-103554335D01*
X160063436Y-104450115D01*
X160205960Y-104556807D01*
X160205961Y-104556808D01*
X160457042Y-104693908D01*
X160457041Y-104693908D01*
X160725104Y-104793890D01*
X161004637Y-104854699D01*
X161289999Y-104875109D01*
X161290001Y-104875109D01*
X161575362Y-104854699D01*
X161854895Y-104793890D01*
X162122958Y-104693908D01*
X162374047Y-104556803D01*
X162516561Y-104450116D01*
X162516562Y-104450115D01*
X161623748Y-103557300D01*
X161633409Y-103553784D01*
X161781844Y-103456157D01*
X161903764Y-103326930D01*
X161975768Y-103202215D01*
X162870115Y-104096562D01*
X162870116Y-104096561D01*
X162976803Y-103954047D01*
X163113908Y-103702958D01*
X163213890Y-103434895D01*
X163274699Y-103155362D01*
X163295109Y-102870001D01*
X163295109Y-102869998D01*
X163274699Y-102584637D01*
X163213890Y-102305104D01*
X163113908Y-102037041D01*
X162976808Y-101785961D01*
X162976807Y-101785960D01*
X162870115Y-101643436D01*
X161974803Y-102538747D01*
X161952660Y-102487413D01*
X161846567Y-102344906D01*
X161710470Y-102230706D01*
X161620782Y-102185663D01*
X162516562Y-101289883D01*
X162516561Y-101289882D01*
X162374046Y-101183196D01*
X162374038Y-101183191D01*
X162122957Y-101046091D01*
X162122958Y-101046091D01*
X161854895Y-100946109D01*
X161575362Y-100885300D01*
X161290001Y-100864891D01*
X161289999Y-100864891D01*
X161004637Y-100885300D01*
X160725104Y-100946109D01*
X160457041Y-101046091D01*
X160205961Y-101183191D01*
X160205953Y-101183196D01*
X160063437Y-101289882D01*
X160063436Y-101289883D01*
X160956252Y-102182699D01*
X160946591Y-102186216D01*
X160798156Y-102283843D01*
X160676236Y-102413070D01*
X160604231Y-102537784D01*
X159709883Y-101643436D01*
X159709882Y-101643437D01*
X159603196Y-101785953D01*
X159603191Y-101785961D01*
X159466091Y-102037041D01*
X159366109Y-102305104D01*
X159305300Y-102584637D01*
X159284891Y-102869998D01*
X159284891Y-102870001D01*
X156977200Y-102870001D01*
X156977200Y-97025395D01*
X156993813Y-96963395D01*
X157037179Y-96888284D01*
X157095674Y-96708256D01*
X157115460Y-96520000D01*
X157095674Y-96331744D01*
X157037179Y-96151716D01*
X156993811Y-96076601D01*
X156977200Y-96014603D01*
X156977200Y-93893557D01*
X156968328Y-93854688D01*
X156967162Y-93847826D01*
X156967031Y-93846664D01*
X156962698Y-93808202D01*
X156949524Y-93770554D01*
X156947606Y-93763895D01*
X156938730Y-93725006D01*
X156921426Y-93689074D01*
X156918767Y-93682654D01*
X156905600Y-93645024D01*
X156905598Y-93645018D01*
X156884368Y-93611231D01*
X156881024Y-93605180D01*
X156863717Y-93569241D01*
X156863715Y-93569239D01*
X156863714Y-93569236D01*
X156845225Y-93546053D01*
X156838849Y-93538058D01*
X156834827Y-93532388D01*
X156813618Y-93498634D01*
X156813616Y-93498631D01*
X154473519Y-91158534D01*
X154440034Y-91097211D01*
X154437200Y-91070853D01*
X154437200Y-87999146D01*
X154456885Y-87932107D01*
X154473515Y-87911469D01*
X155122763Y-87262220D01*
X155184084Y-87228737D01*
X155184436Y-87228660D01*
X155219803Y-87221144D01*
X155219807Y-87221142D01*
X155219808Y-87221142D01*
X155278058Y-87195206D01*
X155392730Y-87144151D01*
X155545871Y-87032888D01*
X155672533Y-86892216D01*
X155767179Y-86728284D01*
X155825674Y-86548256D01*
X155845460Y-86360000D01*
X155825674Y-86171744D01*
X155767179Y-85991716D01*
X155672533Y-85827784D01*
X155545871Y-85687112D01*
X155539413Y-85682420D01*
X155392734Y-85575851D01*
X155392729Y-85575848D01*
X155219807Y-85498857D01*
X155219803Y-85498856D01*
X155184661Y-85491386D01*
X155123179Y-85458193D01*
X155122762Y-85457777D01*
X154696368Y-85031383D01*
X154662598Y-85010163D01*
X154656924Y-85006137D01*
X154625759Y-84981283D01*
X154589841Y-84963985D01*
X154583753Y-84960621D01*
X154549979Y-84939400D01*
X154512339Y-84926229D01*
X154505911Y-84923567D01*
X154469994Y-84906270D01*
X154469988Y-84906268D01*
X154469984Y-84906267D01*
X154431112Y-84897394D01*
X154424436Y-84895471D01*
X154401497Y-84887445D01*
X154386799Y-84882302D01*
X154386792Y-84882300D01*
X154347173Y-84877837D01*
X154340314Y-84876671D01*
X154301449Y-84867800D01*
X154301443Y-84867800D01*
X154258089Y-84867800D01*
X127811443Y-84867800D01*
X127638557Y-84867800D01*
X127638551Y-84867800D01*
X127599687Y-84876671D01*
X127592830Y-84877836D01*
X127588051Y-84878375D01*
X127553203Y-84882301D01*
X127553202Y-84882301D01*
X127515557Y-84895473D01*
X127508882Y-84897395D01*
X127491450Y-84901375D01*
X127470008Y-84906269D01*
X127470001Y-84906272D01*
X127434081Y-84923570D01*
X127427653Y-84926233D01*
X127390018Y-84939401D01*
X127356247Y-84960620D01*
X127350160Y-84963984D01*
X127314241Y-84981282D01*
X127283058Y-85006149D01*
X127277391Y-85010169D01*
X127265765Y-85017474D01*
X127243632Y-85031382D01*
X127243629Y-85031384D01*
X127223194Y-85051820D01*
X127212976Y-85062039D01*
X127145872Y-85129143D01*
X126817236Y-85457777D01*
X126755913Y-85491262D01*
X126755338Y-85491386D01*
X126720194Y-85498856D01*
X126720192Y-85498857D01*
X126547270Y-85575848D01*
X126547265Y-85575851D01*
X126394129Y-85687111D01*
X126267466Y-85827785D01*
X126172821Y-85991715D01*
X126172818Y-85991722D01*
X126121340Y-86150156D01*
X126114326Y-86171744D01*
X126094540Y-86360000D01*
X126114326Y-86548256D01*
X126114327Y-86548259D01*
X126172818Y-86728277D01*
X126172821Y-86728284D01*
X126205538Y-86784952D01*
X126216187Y-86803395D01*
X126232800Y-86865395D01*
X126232800Y-87260852D01*
X126213115Y-87327891D01*
X126196481Y-87348533D01*
X124693346Y-88851667D01*
X124632023Y-88885152D01*
X124562331Y-88880168D01*
X124506398Y-88838296D01*
X124481981Y-88772832D01*
X124489483Y-88720652D01*
X124533597Y-88602376D01*
X124533598Y-88602372D01*
X124539999Y-88542844D01*
X124540000Y-88542827D01*
X124540000Y-87895000D01*
X123623686Y-87895000D01*
X123649493Y-87854844D01*
X123690000Y-87716889D01*
X123690000Y-87573111D01*
X123649493Y-87435156D01*
X123623686Y-87395000D01*
X124540000Y-87395000D01*
X124540000Y-86747172D01*
X124539999Y-86747155D01*
X124533598Y-86687627D01*
X124533596Y-86687620D01*
X124483354Y-86552913D01*
X124483350Y-86552906D01*
X124397190Y-86437812D01*
X124397187Y-86437809D01*
X124282093Y-86351649D01*
X124282086Y-86351645D01*
X124147379Y-86301403D01*
X124147372Y-86301401D01*
X124087844Y-86295000D01*
X123440000Y-86295000D01*
X123440000Y-87209498D01*
X123332315Y-87160320D01*
X123225763Y-87145000D01*
X123154237Y-87145000D01*
X123047685Y-87160320D01*
X122940000Y-87209498D01*
X122940000Y-86295000D01*
X122292155Y-86295000D01*
X122232627Y-86301401D01*
X122232620Y-86301403D01*
X122097913Y-86351645D01*
X122097906Y-86351649D01*
X121982812Y-86437809D01*
X121982809Y-86437812D01*
X121896649Y-86552906D01*
X121896645Y-86552913D01*
X121846403Y-86687620D01*
X121846401Y-86687627D01*
X121840000Y-86747155D01*
X121840000Y-87395000D01*
X122756314Y-87395000D01*
X122730507Y-87435156D01*
X122690000Y-87573111D01*
X122690000Y-87716889D01*
X122730507Y-87854844D01*
X122756314Y-87895000D01*
X121840000Y-87895000D01*
X121840000Y-88542844D01*
X121846401Y-88602372D01*
X121846403Y-88602379D01*
X121896645Y-88737086D01*
X121896649Y-88737093D01*
X121982809Y-88852187D01*
X121982812Y-88852190D01*
X122097906Y-88938350D01*
X122097913Y-88938354D01*
X122229470Y-88987421D01*
X122285403Y-89029292D01*
X122309821Y-89094756D01*
X122294970Y-89163029D01*
X122273819Y-89191284D01*
X122151503Y-89313600D01*
X122015965Y-89507169D01*
X122015964Y-89507171D01*
X121916098Y-89721335D01*
X121916094Y-89721344D01*
X121854938Y-89949586D01*
X121854936Y-89949596D01*
X121834341Y-90184999D01*
X121834341Y-90185000D01*
X121854936Y-90420403D01*
X121854938Y-90420413D01*
X121916094Y-90648655D01*
X121916096Y-90648659D01*
X121916097Y-90648663D01*
X122004787Y-90838858D01*
X122015965Y-90862830D01*
X122015967Y-90862834D01*
X122151501Y-91056395D01*
X122151506Y-91056402D01*
X122318597Y-91223493D01*
X122318603Y-91223498D01*
X122504158Y-91353425D01*
X122547783Y-91408002D01*
X122554977Y-91477500D01*
X122523454Y-91539855D01*
X122504158Y-91556575D01*
X122318597Y-91686505D01*
X122151505Y-91853597D01*
X122015965Y-92047169D01*
X122015964Y-92047171D01*
X121916098Y-92261335D01*
X121916094Y-92261344D01*
X121854938Y-92489586D01*
X121854936Y-92489596D01*
X121834341Y-92724999D01*
X121834341Y-92725000D01*
X121854936Y-92960403D01*
X121854938Y-92960413D01*
X121916094Y-93188655D01*
X121916096Y-93188659D01*
X121916097Y-93188663D01*
X121980598Y-93326986D01*
X122015965Y-93402830D01*
X122015967Y-93402834D01*
X122116251Y-93546053D01*
X122151505Y-93596401D01*
X122318599Y-93763495D01*
X122408391Y-93826368D01*
X122512165Y-93899032D01*
X122512167Y-93899033D01*
X122512170Y-93899035D01*
X122726337Y-93998903D01*
X122954592Y-94060063D01*
X123142918Y-94076539D01*
X123189999Y-94080659D01*
X123190000Y-94080659D01*
X123190001Y-94080659D01*
X123229234Y-94077226D01*
X123425408Y-94060063D01*
X123653663Y-93998903D01*
X123867830Y-93899035D01*
X124061401Y-93763495D01*
X124228495Y-93596401D01*
X124364035Y-93402830D01*
X124463903Y-93188663D01*
X124525063Y-92960408D01*
X124530475Y-92898540D01*
X124555927Y-92833475D01*
X124612518Y-92792496D01*
X124682279Y-92788617D01*
X124741684Y-92821669D01*
X124926481Y-93006466D01*
X124959966Y-93067789D01*
X124962800Y-93094147D01*
X124962800Y-96150852D01*
X124943115Y-96217891D01*
X124926481Y-96238533D01*
X124572734Y-96592280D01*
X124511411Y-96625765D01*
X124441719Y-96620781D01*
X124405056Y-96597218D01*
X124404645Y-96597768D01*
X124282335Y-96506206D01*
X124282328Y-96506202D01*
X124147482Y-96455908D01*
X124147483Y-96455908D01*
X124087883Y-96449501D01*
X124087881Y-96449500D01*
X124087873Y-96449500D01*
X124087864Y-96449500D01*
X122292129Y-96449500D01*
X122292123Y-96449501D01*
X122232516Y-96455908D01*
X122097671Y-96506202D01*
X122097664Y-96506206D01*
X121982455Y-96592452D01*
X121982452Y-96592455D01*
X121896206Y-96707664D01*
X121896202Y-96707671D01*
X121845908Y-96842517D01*
X121840989Y-96888277D01*
X121839501Y-96902123D01*
X121839500Y-96902135D01*
X121839500Y-98697870D01*
X121839501Y-98697876D01*
X121845908Y-98757483D01*
X121896202Y-98892328D01*
X121896206Y-98892335D01*
X121982452Y-99007544D01*
X121982455Y-99007547D01*
X122097664Y-99093793D01*
X122097671Y-99093797D01*
X122097674Y-99093798D01*
X122229598Y-99143002D01*
X122285531Y-99184873D01*
X122309949Y-99250337D01*
X122295098Y-99318610D01*
X122273947Y-99346865D01*
X122151886Y-99468926D01*
X122016400Y-99662420D01*
X122016399Y-99662422D01*
X121916570Y-99876507D01*
X121916567Y-99876513D01*
X121859364Y-100089999D01*
X121859364Y-100090000D01*
X122756314Y-100090000D01*
X122730507Y-100130156D01*
X122690000Y-100268111D01*
X122690000Y-100411889D01*
X122730507Y-100549844D01*
X122756314Y-100590000D01*
X121859364Y-100590000D01*
X121916567Y-100803486D01*
X121916570Y-100803492D01*
X122016399Y-101017578D01*
X122151894Y-101211082D01*
X122318917Y-101378105D01*
X122504595Y-101508119D01*
X122548219Y-101562696D01*
X122555412Y-101632195D01*
X122523890Y-101694549D01*
X122504595Y-101711269D01*
X122318594Y-101841508D01*
X122151505Y-102008597D01*
X122015965Y-102202169D01*
X122015964Y-102202171D01*
X121916098Y-102416335D01*
X121916094Y-102416344D01*
X121854938Y-102644586D01*
X121854936Y-102644596D01*
X121834341Y-102879999D01*
X121834341Y-102880000D01*
X121854936Y-103115403D01*
X121854938Y-103115413D01*
X121916094Y-103343655D01*
X121916096Y-103343659D01*
X121916097Y-103343663D01*
X121968554Y-103456157D01*
X122015965Y-103557830D01*
X122015967Y-103557834D01*
X122151501Y-103751395D01*
X122151506Y-103751402D01*
X122318597Y-103918493D01*
X122318603Y-103918498D01*
X122504158Y-104048425D01*
X122547783Y-104103002D01*
X122554977Y-104172500D01*
X122523454Y-104234855D01*
X122504158Y-104251575D01*
X122318597Y-104381505D01*
X122151505Y-104548597D01*
X122015965Y-104742169D01*
X122015964Y-104742171D01*
X121916098Y-104956335D01*
X121916094Y-104956344D01*
X121854938Y-105184586D01*
X121854936Y-105184596D01*
X121834341Y-105419999D01*
X121834341Y-105420000D01*
X119895659Y-105420000D01*
X119875063Y-105184592D01*
X119813903Y-104956337D01*
X119714035Y-104742171D01*
X119637674Y-104633115D01*
X119578494Y-104548597D01*
X119411402Y-104381506D01*
X119411396Y-104381501D01*
X119225842Y-104251575D01*
X119182217Y-104196998D01*
X119175023Y-104127500D01*
X119206546Y-104065145D01*
X119225842Y-104048425D01*
X119248026Y-104032891D01*
X119411401Y-103918495D01*
X119578495Y-103751401D01*
X119714035Y-103557830D01*
X119813903Y-103343663D01*
X119875063Y-103115408D01*
X119895659Y-102880000D01*
X119875063Y-102644592D01*
X119813903Y-102416337D01*
X119714035Y-102202171D01*
X119709448Y-102195619D01*
X119578494Y-102008597D01*
X119411402Y-101841506D01*
X119411401Y-101841505D01*
X119225405Y-101711269D01*
X119181781Y-101656692D01*
X119174588Y-101587193D01*
X119206110Y-101524839D01*
X119225405Y-101508119D01*
X119411082Y-101378105D01*
X119578105Y-101211082D01*
X119713600Y-101017578D01*
X119813429Y-100803492D01*
X119813432Y-100803486D01*
X119870636Y-100590000D01*
X118973686Y-100590000D01*
X118999493Y-100549844D01*
X119040000Y-100411889D01*
X119040000Y-100268111D01*
X118999493Y-100130156D01*
X118973686Y-100090000D01*
X119870636Y-100090000D01*
X119870635Y-100089999D01*
X119813432Y-99876513D01*
X119813429Y-99876507D01*
X119713600Y-99662422D01*
X119713599Y-99662420D01*
X119578113Y-99468926D01*
X119578108Y-99468920D01*
X119456053Y-99346865D01*
X119422568Y-99285542D01*
X119427552Y-99215850D01*
X119469424Y-99159917D01*
X119500400Y-99143002D01*
X119632331Y-99093796D01*
X119747546Y-99007546D01*
X119833796Y-98892331D01*
X119884091Y-98757483D01*
X119890500Y-98697873D01*
X119890499Y-96902128D01*
X119884091Y-96842517D01*
X119858907Y-96774996D01*
X119833797Y-96707671D01*
X119833793Y-96707664D01*
X119747547Y-96592455D01*
X119747544Y-96592452D01*
X119632335Y-96506206D01*
X119632328Y-96506202D01*
X119497482Y-96455908D01*
X119497483Y-96455908D01*
X119437883Y-96449501D01*
X119437881Y-96449500D01*
X119437873Y-96449500D01*
X119437864Y-96449500D01*
X117642129Y-96449500D01*
X117642123Y-96449501D01*
X117582516Y-96455908D01*
X117447671Y-96506202D01*
X117447664Y-96506206D01*
X117332455Y-96592452D01*
X117332452Y-96592455D01*
X117246206Y-96707664D01*
X117246202Y-96707671D01*
X117195908Y-96842517D01*
X117190989Y-96888277D01*
X117189501Y-96902123D01*
X117189500Y-96902135D01*
X117189500Y-98697870D01*
X117189501Y-98697876D01*
X117195908Y-98757483D01*
X117246202Y-98892328D01*
X117246206Y-98892335D01*
X117332452Y-99007544D01*
X117332455Y-99007547D01*
X117447664Y-99093793D01*
X117447671Y-99093797D01*
X117447674Y-99093798D01*
X117579598Y-99143002D01*
X117635531Y-99184873D01*
X117659949Y-99250337D01*
X117645098Y-99318610D01*
X117623947Y-99346865D01*
X117501886Y-99468926D01*
X117366400Y-99662420D01*
X117366399Y-99662422D01*
X117266570Y-99876507D01*
X117266567Y-99876513D01*
X117209364Y-100089999D01*
X117209364Y-100090000D01*
X118106314Y-100090000D01*
X118080507Y-100130156D01*
X118040000Y-100268111D01*
X118040000Y-100411889D01*
X118080507Y-100549844D01*
X118106314Y-100590000D01*
X117209364Y-100590000D01*
X117266567Y-100803486D01*
X117266570Y-100803492D01*
X117366399Y-101017578D01*
X117501894Y-101211082D01*
X117668917Y-101378105D01*
X117854595Y-101508119D01*
X117898219Y-101562696D01*
X117905412Y-101632195D01*
X117873890Y-101694549D01*
X117854595Y-101711269D01*
X117668594Y-101841508D01*
X117501507Y-102008595D01*
X117481590Y-102037041D01*
X117465567Y-102059923D01*
X117410992Y-102103548D01*
X117363993Y-102112800D01*
X115714228Y-102112800D01*
X115686636Y-102109691D01*
X115681053Y-102108417D01*
X115656446Y-102102800D01*
X115656443Y-102102800D01*
X115616572Y-102102800D01*
X115609631Y-102102410D01*
X115583954Y-102099517D01*
X115570002Y-102097945D01*
X115569998Y-102097945D01*
X115556045Y-102099517D01*
X115530368Y-102102410D01*
X115523428Y-102102800D01*
X115483551Y-102102800D01*
X115444687Y-102111671D01*
X115437830Y-102112836D01*
X115433051Y-102113375D01*
X115398203Y-102117301D01*
X115398202Y-102117301D01*
X115360557Y-102130473D01*
X115353882Y-102132395D01*
X115336450Y-102136375D01*
X115315008Y-102141269D01*
X115315004Y-102141271D01*
X115279084Y-102158568D01*
X115272659Y-102161229D01*
X115235018Y-102174401D01*
X115201250Y-102195619D01*
X115195163Y-102198982D01*
X115159244Y-102216281D01*
X115128067Y-102241143D01*
X115122394Y-102245168D01*
X115088635Y-102266379D01*
X115088634Y-102266380D01*
X115060429Y-102294583D01*
X115055244Y-102299216D01*
X115024074Y-102324074D01*
X114999216Y-102355244D01*
X114994583Y-102360429D01*
X114966380Y-102388634D01*
X114966379Y-102388635D01*
X114945168Y-102422394D01*
X114941143Y-102428067D01*
X114916281Y-102459244D01*
X114898982Y-102495163D01*
X114895619Y-102501250D01*
X114874401Y-102535018D01*
X114861229Y-102572659D01*
X114858568Y-102579084D01*
X114841271Y-102615004D01*
X114841269Y-102615008D01*
X114836375Y-102636450D01*
X114833158Y-102650546D01*
X114832398Y-102653875D01*
X114830473Y-102660557D01*
X114817301Y-102698202D01*
X114817301Y-102698203D01*
X114812837Y-102737828D01*
X114811671Y-102744687D01*
X114802800Y-102783551D01*
X114802800Y-106766449D01*
X113030500Y-106766449D01*
X113030500Y-92725000D01*
X117184341Y-92725000D01*
X117204936Y-92960403D01*
X117204938Y-92960413D01*
X117266094Y-93188655D01*
X117266096Y-93188659D01*
X117266097Y-93188663D01*
X117330598Y-93326986D01*
X117365965Y-93402830D01*
X117365967Y-93402834D01*
X117466251Y-93546053D01*
X117501505Y-93596401D01*
X117668599Y-93763495D01*
X117758391Y-93826368D01*
X117862165Y-93899032D01*
X117862167Y-93899033D01*
X117862170Y-93899035D01*
X118076337Y-93998903D01*
X118304592Y-94060063D01*
X118492918Y-94076539D01*
X118539999Y-94080659D01*
X118540000Y-94080659D01*
X118540001Y-94080659D01*
X118579234Y-94077226D01*
X118775408Y-94060063D01*
X119003663Y-93998903D01*
X119217830Y-93899035D01*
X119411401Y-93763495D01*
X119578495Y-93596401D01*
X119714035Y-93402830D01*
X119813903Y-93188663D01*
X119875063Y-92960408D01*
X119895659Y-92725000D01*
X119875063Y-92489592D01*
X119813903Y-92261337D01*
X119714035Y-92047171D01*
X119625948Y-91921368D01*
X119578494Y-91853597D01*
X119411402Y-91686506D01*
X119411396Y-91686501D01*
X119225842Y-91556575D01*
X119182217Y-91501998D01*
X119175023Y-91432500D01*
X119206546Y-91370145D01*
X119225842Y-91353425D01*
X119282222Y-91313947D01*
X119411401Y-91223495D01*
X119578495Y-91056401D01*
X119714035Y-90862830D01*
X119813903Y-90648663D01*
X119875063Y-90420408D01*
X119895659Y-90185000D01*
X119875063Y-89949592D01*
X119813903Y-89721337D01*
X119714035Y-89507171D01*
X119613544Y-89363655D01*
X119578496Y-89313600D01*
X119578495Y-89313599D01*
X119456179Y-89191283D01*
X119422696Y-89129963D01*
X119427680Y-89060271D01*
X119469551Y-89004337D01*
X119500529Y-88987422D01*
X119632086Y-88938354D01*
X119632093Y-88938350D01*
X119747187Y-88852190D01*
X119747190Y-88852187D01*
X119833350Y-88737093D01*
X119833354Y-88737086D01*
X119883596Y-88602379D01*
X119883598Y-88602372D01*
X119889999Y-88542844D01*
X119890000Y-88542827D01*
X119890000Y-87895000D01*
X118973686Y-87895000D01*
X118999493Y-87854844D01*
X119040000Y-87716889D01*
X119040000Y-87573111D01*
X118999493Y-87435156D01*
X118973686Y-87395000D01*
X119890000Y-87395000D01*
X119890000Y-86747172D01*
X119889999Y-86747155D01*
X119883598Y-86687627D01*
X119883596Y-86687620D01*
X119833354Y-86552913D01*
X119833350Y-86552906D01*
X119747190Y-86437812D01*
X119747187Y-86437809D01*
X119632093Y-86351649D01*
X119632086Y-86351645D01*
X119497379Y-86301403D01*
X119497372Y-86301401D01*
X119437844Y-86295000D01*
X118790000Y-86295000D01*
X118790000Y-87209498D01*
X118682315Y-87160320D01*
X118575763Y-87145000D01*
X118504237Y-87145000D01*
X118397685Y-87160320D01*
X118290000Y-87209498D01*
X118290000Y-86295000D01*
X117642155Y-86295000D01*
X117582627Y-86301401D01*
X117582620Y-86301403D01*
X117447913Y-86351645D01*
X117447906Y-86351649D01*
X117332812Y-86437809D01*
X117332809Y-86437812D01*
X117246649Y-86552906D01*
X117246645Y-86552913D01*
X117196403Y-86687620D01*
X117196401Y-86687627D01*
X117190000Y-86747155D01*
X117190000Y-87395000D01*
X118106314Y-87395000D01*
X118080507Y-87435156D01*
X118040000Y-87573111D01*
X118040000Y-87716889D01*
X118080507Y-87854844D01*
X118106314Y-87895000D01*
X117190000Y-87895000D01*
X117190000Y-88542844D01*
X117196401Y-88602372D01*
X117196403Y-88602379D01*
X117246645Y-88737086D01*
X117246649Y-88737093D01*
X117332809Y-88852187D01*
X117332812Y-88852190D01*
X117447906Y-88938350D01*
X117447913Y-88938354D01*
X117579470Y-88987421D01*
X117635403Y-89029292D01*
X117659821Y-89094756D01*
X117644970Y-89163029D01*
X117623819Y-89191284D01*
X117501503Y-89313600D01*
X117365965Y-89507169D01*
X117365964Y-89507171D01*
X117266098Y-89721335D01*
X117266094Y-89721344D01*
X117204938Y-89949586D01*
X117204936Y-89949596D01*
X117184341Y-90184999D01*
X117184341Y-90185000D01*
X117204936Y-90420403D01*
X117204938Y-90420413D01*
X117266094Y-90648655D01*
X117266096Y-90648659D01*
X117266097Y-90648663D01*
X117354787Y-90838858D01*
X117365965Y-90862830D01*
X117365967Y-90862834D01*
X117501501Y-91056395D01*
X117501506Y-91056402D01*
X117668597Y-91223493D01*
X117668603Y-91223498D01*
X117854158Y-91353425D01*
X117897783Y-91408002D01*
X117904977Y-91477500D01*
X117873454Y-91539855D01*
X117854158Y-91556575D01*
X117668597Y-91686505D01*
X117501505Y-91853597D01*
X117365965Y-92047169D01*
X117365964Y-92047171D01*
X117266098Y-92261335D01*
X117266094Y-92261344D01*
X117204938Y-92489586D01*
X117204936Y-92489596D01*
X117184341Y-92724999D01*
X117184341Y-92725000D01*
X113030500Y-92725000D01*
X113030500Y-85214000D01*
X113050185Y-85146961D01*
X113102989Y-85101206D01*
X113154500Y-85090000D01*
X120650000Y-85090000D01*
X120650000Y-83664000D01*
X120669685Y-83596961D01*
X120722489Y-83551206D01*
X120774000Y-83540000D01*
X158626000Y-83540000D01*
X158693039Y-83559685D01*
G37*
%TD.AperFunction*%
%TD*%
M02*
